<?xml version="1.0" standalone="no"?>
<!DOCTYPE svg PUBLIC "-//W3C//DTD SVG 1.1//EN" "http://www.w3.org/Graphics/SVG/1.1/DTD/svg11.dtd" >
<svg xmlns="http://www.w3.org/2000/svg" xmlns:xlink="http://www.w3.org/1999/xlink" version="1.1">
<metadata></metadata>
<defs>
<font id="krubregular" horiz-adv-x="0" >
<font-face units-per-em="2048" ascent="1638" descent="-410" />
<missing-glyph horiz-adv-x="528" />
<glyph unicode="fi" horiz-adv-x="1275" d="M25 1020v106h211v152q0 147 78.5 235.5t209.5 88.5q94 0 143.5 -23t49.5 -66q0 -23 -7.5 -42t-17.5 -19q-61 31 -141 31q-86 0 -131 -53.5t-45 -153.5v-150h254v-106h-254v-1020h-139v1020h-211zM881 1425v19q0 92 92 92h16q92 0 92 -92v-19q0 -92 -92 -92h-16 q-92 0 -92 92zM911 0v1126h140v-1126h-140z" />
<glyph unicode="fl" horiz-adv-x="1234" d="M25 1020v106h211v152q0 147 78.5 235.5t209.5 88.5q94 0 143.5 -23t49.5 -66q0 -23 -7.5 -42t-17.5 -19q-61 31 -141 31q-86 0 -131 -53.5t-45 -153.5v-150h254v-106h-254v-1020h-139v1020h-211zM891 0v1620h139v-1620h-139z" />
<glyph unicode="&#xe24;&#xe45;" horiz-adv-x="1935" d="M113 901q0 66 65.5 135.5t179 116.5t252.5 47q121 0 220.5 -36t164.5 -105q147 141 367 141q182 0 296 -104.5t114 -286.5v-1251h-134v1251q0 135 -73.5 208t-202.5 73q-182 0 -299 -132q33 -78 33 -174v-1235h-133v1235q0 156 -91.5 234t-261.5 78q-98 0 -183 -32 t-135 -76t-50 -81q0 -27 25.5 -52.5t59 -42.5t54.5 -17q27 0 68 16q37 12 51 12q12 0 30.5 -25.5t25.5 -50t-7 -24.5q-127 0 -177 -65.5t-50 -204.5v-211q0 -78 32.5 -118t87.5 -40q53 0 80 27.5t27 72.5t-26.5 71t-71.5 26q-31 0 -80 -13q-6 12 -6 27q0 31 25.5 51.5 t74.5 20.5q80 0 131 -47.5t51 -135.5t-60.5 -143t-152.5 -55q-106 0 -176 66.5t-70 187.5v213q0 96 21.5 161.5t66.5 108.5q-59 25 -111 74t-52 104z" />
<glyph unicode="&#xe26;&#xe45;" horiz-adv-x="1955" d="M33 164q0 76 45 119t102 43q35 0 56.5 -19.5t21.5 -50.5h-39q-45 0 -68.5 -24.5t-23.5 -67.5q0 -35 24.5 -60.5t67.5 -25.5t66.5 28.5t23.5 73.5q0 61 -12 124t-14 73q-2 14 -12.5 67.5t-10.5 98.5q0 115 62 176q-70 23 -129.5 81t-59.5 111q0 57 67.5 126t184.5 116 t258 47q254 0 379 -135q145 135 360 135q182 0 296 -104.5t114 -286.5v-1251h-133v1251q0 135 -74 208t-203 73q-178 0 -295 -127q39 -90 39 -213v-1201h-133v1201q0 199 -91 272.5t-259 73.5q-102 0 -189 -29t-138.5 -71t-51.5 -78q0 -25 26.5 -53.5t59.5 -48t47 -19.5 q12 0 34 8t28 10q45 20 63 21q14 0 32.5 -24t26 -47.5t-9.5 -23.5q-90 0 -134 -56t-44 -146q0 -49 6.5 -104.5t8.5 -72.5q16 -115 16 -180q0 -94 -53.5 -146t-151.5 -52q-82 0 -134 51t-52 129z" />
<glyph />
<glyph />
<glyph unicode=" "  horiz-adv-x="528" />
<glyph unicode="&#x09;" horiz-adv-x="528" />
<glyph unicode="&#xa0;" horiz-adv-x="528" />
<glyph unicode="!" horiz-adv-x="503" d="M152 92v19q0 92 92 92h16q92 0 92 -92v-19q0 -92 -92 -92h-16q-92 0 -92 92zM164 1434h176l-31 -1012h-114z" />
<glyph unicode="&#x22;" horiz-adv-x="663" d="M127 1509h145l-20 -475h-105zM391 1509h146l-21 -475h-104z" />
<glyph unicode="#" horiz-adv-x="1105" d="M51 440v103h221l56 344h-224v102h240l72 445h108l-71 -445h307l71 445h109l-72 -445h187v-102h-203l-55 -344h204v-103h-221l-69 -440h-109l70 440h-307l-70 -440h-109l70 440h-205zM381 543h307l55 344h-307z" />
<glyph unicode="$" horiz-adv-x="1247" d="M80 309q0 41 29.5 66.5t78.5 27.5q31 -137 129.5 -212.5t253.5 -84.5v599q-172 47 -269 98t-139 117.5t-42 162.5q0 168 119.5 266.5t330.5 104.5v203h127v-209q156 -20 258.5 -109.5t141.5 -232.5q-27 -27 -82 -27q-57 0 -84 56q-33 68 -94.5 115.5t-139.5 68.5v-516 q178 -53 270.5 -105.5t130.5 -119t38 -170.5q0 -175 -118 -287.5t-321 -134.5v-232h-127v226q-137 4 -248.5 49t-177 118.5t-65.5 161.5zM268 1083q0 -59 28 -99t92.5 -73.5t182.5 -68.5v489q-150 -6 -226.5 -68.5t-76.5 -179.5zM698 115q131 20 209 95t78 185 q0 98 -64.5 159.5t-222.5 113.5v-553z" />
<glyph unicode="%" horiz-adv-x="1761" d="M184 1085q0 156 84 252.5t217 96.5q137 0 222.5 -96.5t85.5 -252.5q0 -158 -85 -251t-223 -93q-133 0 -217 94.5t-84 249.5zM303 1094q0 -117 47 -181.5t135 -64.5q95 0 142 62.5t47 176.5q0 240 -189 240q-88 0 -135 -59.5t-47 -173.5zM403 -20l828 1474h127l-828 -1474 h-127zM969 344q0 156 84 252t217 96q137 0 222 -96t85 -252q0 -158 -85 -251t-222 -93q-133 0 -217 94t-84 250zM1087 352q0 -117 47.5 -181.5t135.5 -64.5q94 0 141 62.5t47 177.5q0 240 -188 240q-88 0 -135.5 -59.5t-47.5 -174.5z" />
<glyph unicode="&#x26;" horiz-adv-x="1406" d="M82 350q0 141 69.5 240.5t237.5 204.5q-66 100 -97.5 181t-31.5 163q0 92 43 164.5t117 111.5t164 39q129 0 217 -79t88 -208q0 -117 -79 -207t-251 -196q72 -102 179.5 -239.5t185.5 -227.5q66 88 104.5 198.5t42.5 217.5q70 0 92.5 -18.5t22.5 -80.5q0 -90 -44 -203.5 t-128 -207.5q71 -70 123.5 -89.5t126.5 -21.5v-55q0 -57 -86 -57q-57 0 -118 31.5t-134 107.5q-178 -139 -410 -139q-115 0 -214 41.5t-159.5 125.5t-60.5 203zM215 342q0 -80 44 -138.5t114.5 -88t148.5 -29.5q186 0 322 123q-96 111 -206 248t-183 241 q-133 -86 -186.5 -160.5t-53.5 -195.5zM387 1143q0 -63 27.5 -132t81.5 -155q141 82 202.5 155.5t61.5 164.5q0 74 -48 122t-134 48t-138.5 -49.5t-52.5 -153.5z" />
<glyph unicode="'" horiz-adv-x="456" d="M156 1509h145l-20 -475h-105z" />
<glyph unicode="(" horiz-adv-x="798" d="M164 778q0 240 85 499t245 472h151q-174 -223 -255 -472t-81 -499q0 -252 80 -501.5t256 -473.5h-151q-160 211 -245 472.5t-85 502.5z" />
<glyph unicode=")" horiz-adv-x="798" d="M154 -197q176 223 255.5 473t79.5 502q0 250 -80.5 499t-254.5 472h151q160 -213 245 -472t85 -499q0 -242 -85 -503t-245 -472h-151z" />
<glyph unicode="*" horiz-adv-x="1265" d="M207 1513l47 136l344 -133l-35 368h142l-29 -368l344 133l47 -136l-375 -77l246 -283l-119 -76l-182 322l-182 -322l-119 76l246 283z" />
<glyph unicode="+" horiz-adv-x="1228" d="M102 602v123h447v459h131v-459h446v-123h-446v-459h-131v459h-447z" />
<glyph unicode="," horiz-adv-x="630" d="M182 -252q55 68 86 126t41 126h-10q-39 0 -61.5 24.5t-22.5 65.5v23q0 41 23.5 65.5t62.5 24.5h25q41 0 65.5 -25.5t24.5 -71.5v-22q0 -72 -24.5 -144.5t-61.5 -129.5q-53 -82 -90 -82q-33 0 -58 20z" />
<glyph unicode="-" horiz-adv-x="983" d="M123 567v123h737v-123h-737z" />
<glyph unicode="." horiz-adv-x="630" d="M215 92v19q0 92 92 92h17q92 0 92 -92v-19q0 -92 -92 -92h-17q-92 0 -92 92z" />
<glyph unicode="/" horiz-adv-x="684" d="M-20 -113l593 1774h132l-594 -1774h-131z" />
<glyph unicode="0" horiz-adv-x="1269" d="M102 692q0 362 136.5 562t396.5 200t396 -199.5t136 -562.5q0 -342 -136 -529.5t-396 -187.5t-396.5 187.5t-136.5 529.5zM242 692q0 -285 98 -437.5t295 -152.5q194 0 293.5 154t99.5 436q0 307 -99.5 471t-293.5 164q-197 0 -295 -164t-98 -471z" />
<glyph unicode="1" horiz-adv-x="940" d="M92 1217q0 20 10 36q82 8 174.5 54.5t174.5 126.5h92v-1321h239v-113h-622v113h250v1151q-53 -45 -122 -79t-120 -34q-37 0 -56.5 19.5t-19.5 46.5z" />
<glyph unicode="2" horiz-adv-x="1099" d="M106 0v74q264 215 423 375.5t236 299t77 273.5q0 143 -75 218t-212 75q-145 0 -225 -77t-97 -249q-59 0 -81.5 16.5t-22.5 57.5q0 102 50 187t147.5 134.5t228.5 49.5q190 0 301 -101.5t119 -308.5q6 -207 -156 -421t-479 -482h625v-121h-859z" />
<glyph unicode="3" horiz-adv-x="1126" d="M61 213q0 39 24 62.5t58 23.5q61 -94 142.5 -146.5t232.5 -52.5q164 0 253 82t89 226q0 137 -82 204.5t-217 67.5l-65 -2q-45 -4 -72 -4q-29 0 -53.5 34.5t-24.5 63.5q0 18 14 19h183q135 0 208.5 71.5t73.5 212.5q0 117 -78.5 178.5t-228.5 61.5q-123 0 -201.5 -54.5 t-140.5 -166.5q-35 0 -58.5 20.5t-23.5 59.5q0 55 56.5 116.5t154.5 102.5t217 41q195 0 315.5 -95.5t120.5 -267.5q0 -129 -57 -212t-145 -118q100 -28 168.5 -109t68.5 -222q0 -201 -131 -314.5t-350 -113.5q-137 0 -239.5 34.5t-157 88t-54.5 108.5z" />
<glyph unicode="4" horiz-adv-x="1069" d="M41 354v74q195 274 287 500.5t112 505.5q25 6 47 6q86 0 86 -109q0 -176 -105.5 -415.5t-248.5 -440.5h459v451h131v-451h207v-121h-207v-354h-131v354h-637z" />
<glyph unicode="5" horiz-adv-x="1138" d="M156 233q0 68 77 84q92 -217 351 -217q162 0 249 101.5t87 261.5q0 174 -87.5 259t-242.5 85q-102 0 -176 -36t-135 -116l-101 15l49 764h707v-119h-590l-31 -479q115 92 285 92q131 0 234.5 -57.5t162 -161t58.5 -238.5q0 -145 -57.5 -257t-164 -172t-247.5 -60 q-121 0 -219.5 37.5t-153.5 96t-55 117.5z" />
<glyph unicode="6" horiz-adv-x="1181" d="M102 569q0 236 93.5 437.5t248 319.5t326.5 118q102 0 102 -115q-236 0 -396.5 -146.5t-215.5 -387.5q61 51 153.5 88t184.5 37q135 0 237.5 -58.5t159 -167t56.5 -252.5q0 -129 -55.5 -233.5t-160 -163.5t-243.5 -59q-158 0 -268.5 78.5t-166 211t-55.5 293.5zM236 569 q0 -199 90 -331t270 -132q154 0 238 94.5t84 241.5q0 180 -85 268.5t-235 88.5q-109 0 -203 -50.5t-157 -127.5q-2 -18 -2 -52z" />
<glyph unicode="7" horiz-adv-x="987" d="M100 1391q0 18 6 43h828v-70q-225 -381 -314.5 -652.5t-105.5 -564.5l-8 -147h-66q-88 0 -86 90l2 72q8 270 120 572t302 581h-592q-86 0 -86 76z" />
<glyph unicode="8" horiz-adv-x="1155" d="M106 354q0 131 66 229.5t234 155.5q-129 55 -192.5 138.5t-63.5 197.5q0 170 117.5 269.5t310.5 99.5q195 0 310.5 -99.5t115.5 -269.5q0 -117 -58.5 -197.5t-185.5 -138.5q164 -63 227.5 -160.5t63.5 -224.5q0 -178 -128 -275t-345 -97q-215 0 -343.5 97t-128.5 275z M240 354q0 -117 93 -185.5t245 -68.5q151 0 245.5 69t94.5 185q0 80 -31 134.5t-102.5 98.5t-198.5 87q-180 -59 -263 -130t-83 -190zM281 1081q0 -104 80.5 -177t224.5 -116q160 49 223 117t63 176q0 115 -79.5 180.5t-214.5 65.5q-133 0 -215 -65.5t-82 -180.5z" />
<glyph unicode="9" horiz-adv-x="1181" d="M102 961q0 133 60.5 241.5t165 170t233.5 61.5q260 0 375 -166t115 -428q0 -236 -93.5 -431.5t-248 -309t-326.5 -113.5q-102 0 -102 114q236 0 396.5 140.5t215.5 375.5q-57 -47 -145.5 -79.5t-178.5 -32.5q-141 0 -246.5 56t-163 159.5t-57.5 241.5zM236 961 q0 -170 86 -253t247 -83q111 0 198 44t148 119q2 16 3 52q0 209 -82 341t-279 132q-154 0 -237.5 -101.5t-83.5 -250.5z" />
<glyph unicode=":" horiz-adv-x="663" d="M215 92v19q0 92 92 92h17q92 0 92 -92v-19q0 -92 -92 -92h-17q-92 0 -92 92zM215 833v19q0 92 92 92h17q92 0 92 -92v-19q0 -92 -92 -92h-17q-92 0 -92 92z" />
<glyph unicode=";" horiz-adv-x="663" d="M182 -252q55 68 86 126t41 126h-10q-39 0 -61.5 24.5t-22.5 65.5v23q0 41 23.5 65.5t62.5 24.5h25q41 0 65.5 -25.5t24.5 -71.5v-22q0 -72 -24.5 -144.5t-61.5 -129.5q-53 -82 -90 -82q-33 0 -58 20zM215 833v19q0 92 92 92h17q92 0 92 -92v-19q0 -92 -92 -92h-17 q-92 0 -92 92z" />
<glyph unicode="&#x3c;" horiz-adv-x="1228" d="M102 557v131l1024 567v-153l-872 -479l872 -484v-153z" />
<glyph unicode="=" horiz-adv-x="1228" d="M143 408v127h942v-127h-942zM143 825v127h942v-127h-942z" />
<glyph unicode="&#x3e;" horiz-adv-x="1228" d="M102 -14v153l873 484l-873 479v153l1024 -567v-131z" />
<glyph unicode="?" horiz-adv-x="972" d="M68 1143q35 137 152.5 223t275.5 86q113 0 205 -44t147 -128t55 -197q0 -84 -29.5 -149.5t-72.5 -112.5t-113 -108q-88 -80 -131 -136.5t-43 -136.5v-53h-135v82q0 86 49 153.5t145 157.5t144.5 155.5t48.5 149.5q0 113 -72.5 176.5t-201.5 63.5q-123 0 -196 -68.5 t-108 -173.5zM350 92v19q0 92 92 92h17q92 0 92 -92v-19q0 -92 -92 -92h-17q-92 0 -92 92z" />
<glyph unicode="@" horiz-adv-x="1708" d="M147 721q0 209 94.5 380t262.5 269t381 98q205 0 362.5 -79.5t245.5 -224t88 -333.5q0 -158 -58.5 -280.5t-151.5 -190t-193 -67.5q-57 0 -98.5 32.5t-49.5 90.5q-29 -55 -86 -89t-147 -34q-133 0 -211 89t-78 251q0 211 98.5 341t263.5 130q166 0 230 -131l16 98h111 l-88 -524q-10 -51 -11 -82q0 -68 60 -68q68 0 133 59.5t107 160t42 219.5q0 162 -75.5 282.5t-208.5 186t-299 65.5q-184 0 -327.5 -85t-222.5 -233.5t-79 -334.5q0 -199 83 -348.5t231.5 -230.5t338.5 -81q139 0 237.5 33t199.5 94q39 -31 38 -61q0 -41 -66.5 -79 t-176 -61.5t-232.5 -23.5q-227 0 -400 90t-268.5 262t-95.5 410zM641 631q0 -246 166 -246q74 0 130 55.5t86 143.5t30 184q0 121 -49.5 182.5t-135.5 61.5q-113 0 -170 -108.5t-57 -272.5z" />
<glyph unicode="A" horiz-adv-x="1269" d="M31 0q106 438 231 779t297 655h154q170 -311 295 -652.5t231 -781.5h-152q-55 254 -104 416h-696q-49 -162 -105 -416h-151zM322 539h626q-125 397 -313 745q-188 -348 -313 -745z" />
<glyph unicode="B" horiz-adv-x="1259" d="M176 0v1434h471q213 0 336 -101.5t123 -275.5q0 -109 -52.5 -195t-138.5 -123q113 -30 184.5 -124.5t71.5 -217.5q0 -190 -131 -293.5t-372 -103.5h-492zM324 123h323q201 0 289 64.5t88 209.5q0 143 -91 209t-290 66h-319v-549zM324 788h317q317 0 317 269 q0 119 -82.5 186.5t-228.5 67.5h-323v-523z" />
<glyph unicode="C" horiz-adv-x="1220" d="M106 717q0 354 160 545.5t455 191.5q119 0 221 -40t176 -118q-12 -39 -34.5 -59t-51.5 -20t-53 18q-111 86 -262 86q-225 0 -342 -153.5t-117 -450.5q0 -295 117 -448.5t342 -153.5q96 0 173 26.5t152 87.5q27 -2 45.5 -21.5t18.5 -47.5q0 -47 -54.5 -88t-143.5 -66.5 t-187 -25.5q-293 0 -454 192.5t-161 544.5z" />
<glyph unicode="D" horiz-adv-x="1376" d="M176 0v1434h424q318 0 489 -185.5t171 -531.5q0 -221 -79 -383t-227.5 -248t-353.5 -86h-424zM324 123h276q250 0 379 150.5t129 441.5q0 301 -126 448.5t-382 147.5h-276v-1188z" />
<glyph unicode="E" horiz-adv-x="1146" d="M176 0v1434h856v-123h-708v-516h610v-123h-610v-549h710q0 -74 -21.5 -98.5t-84.5 -24.5h-752z" />
<glyph unicode="F" horiz-adv-x="1085" d="M176 0v1434h844v-123h-696v-506h608v-123h-608v-682h-148z" />
<glyph unicode="G" horiz-adv-x="1363" d="M127 717q0 354 167 545.5t478 191.5q145 0 270 -54t189 -145q-40 -71 -89 -71h-1q-33 0 -68 28q-70 59 -141.5 86t-161.5 27q-242 0 -366.5 -154.5t-124.5 -453.5q0 -307 121.5 -457.5t369.5 -150.5q102 0 190.5 26.5t129.5 71.5v430h-289q-41 0 -58.5 28.5t-17.5 98.5 h512v-614q-76 -78 -202 -124t-263 -46q-317 0 -481 187t-164 550z" />
<glyph unicode="H" horiz-adv-x="1392" d="M176 0v1434h148v-635h745v635h148v-1434h-148v676h-745v-676h-148z" />
<glyph unicode="I" horiz-adv-x="716" d="M285 0v1434h147v-1434h-147z" />
<glyph unicode="J" horiz-adv-x="874" d="M49 35q0 55 15.5 81.5t39.5 26.5q8 0 70 -18.5t131 -18.5q242 0 242 269v1059h147v-1059q0 -184 -105.5 -289.5t-287.5 -105.5q-70 0 -142.5 17t-109.5 38z" />
<glyph unicode="K" horiz-adv-x="1249" d="M205 0v1434h147v-631h121q37 0 55 -2l484 633h170l-523 -674q86 -47 164 -168l375 -586q-39 -22 -84 -22h-4q-37 0 -58.5 13t-43.5 48l-312 504q-47 76 -99 101.5t-165 25.5h-80v-676h-147z" />
<glyph unicode="L" horiz-adv-x="1050" d="M176 0v1434h148v-1311h696v-123h-844z" />
<glyph unicode="M" horiz-adv-x="1697" d="M156 0q10 385 50 757.5t103 676.5h164q123 -264 207 -483.5t170 -501.5q86 283 170 500.5t205 484.5h164q63 -303 103 -676t50 -758h-147q-18 643 -117 1227q-74 -168 -145.5 -374t-229.5 -710h-106q-139 442 -218 666.5t-159 411.5q-98 -559 -117 -1221h-147z" />
<glyph unicode="N" horiz-adv-x="1413" d="M176 0v1434h119q27 0 42 -7.5t36 -33.5l708 -932v973h148v-1153q0 -64 4 -150q4 -57 4 -76q0 -55 -53 -55h-103v111q0 119 -80 227l-677 893v-1231h-148z" />
<glyph unicode="O" horiz-adv-x="1392" d="M98 725q0 352 155 540.5t443 188.5q289 0 443.5 -188.5t154.5 -540.5q0 -360 -154.5 -552.5t-443.5 -192.5q-288 0 -443 192.5t-155 552.5zM250 725q0 -305 112.5 -459.5t333.5 -154.5q222 0 334.5 154.5t112.5 459.5q0 598 -447 598q-446 0 -446 -598z" />
<glyph unicode="P" horiz-adv-x="1259" d="M176 0v1434h426q281 0 425 -116t144 -341q0 -229 -144 -346t-425 -117h-278v-514h-148zM324 641h278q219 0 320.5 81t101.5 255q0 172 -101.5 251t-320.5 79h-278v-666z" />
<glyph unicode="Q" horiz-adv-x="1392" d="M98 725q0 352 155 540.5t443 188.5q289 0 443.5 -188.5t154.5 -540.5q0 -256 -80.5 -430t-234.5 -254q33 -43 127 -158q-20 -23 -50 -37t-63 -14q-53 0 -92 59l-65 101q-63 -12 -140 -12q-289 0 -443.5 192.5t-154.5 552.5zM250 725q0 -305 112.5 -459.5t333.5 -154.5 q23 0 64 4l-117 190h156q47 -78 100 -151q244 121 244 571q0 598 -447 598q-446 0 -446 -598z" />
<glyph unicode="R" horiz-adv-x="1288" d="M176 0v1434h465q248 0 389 -110t141 -304q0 -154 -102 -265.5t-266 -138.5q59 -49 106 -124l289 -486q-39 -22 -84 -22h-4q-37 0 -60.5 14t-41.5 47l-234 401q-49 86 -119.5 122t-191.5 36h-139v-604h-148zM324 731h307q184 0 285.5 76t101.5 213q0 141 -95.5 214 t-281.5 73h-317v-576z" />
<glyph unicode="S" horiz-adv-x="1314" d="M141 309q0 41 30 66.5t79 27.5q33 -145 139.5 -221t274.5 -76q172 0 277.5 80t105.5 209q0 76 -38 129.5t-124 95.5t-238 80q-176 47 -276.5 99.5t-144.5 119t-44 164.5q0 172 127 271.5t350 99.5q195 0 325 -91t175 -257q-27 -27 -82 -27q-57 0 -84 56q-45 90 -136 143 t-198 53q-162 0 -245.5 -63.5t-83.5 -184.5q0 -61 30.5 -103t102.5 -77t203 -72q219 -61 330.5 -116.5t156.5 -125t45 -181.5q0 -129 -65.5 -226.5t-187.5 -149.5t-286 -52q-141 0 -259.5 44t-188.5 119.5t-70 165.5z" />
<glyph unicode="T" horiz-adv-x="1093" d="M31 1311v123h1032q8 -38 8 -50q0 -35 -18.5 -54t-55.5 -19h-376v-1311h-148v1311h-442z" />
<glyph unicode="U" horiz-adv-x="1449" d="M176 514v920h148v-940q0 -199 98 -293.5t307 -94.5q211 0 307.5 93.5t96.5 294.5v940h147v-920q0 -274 -133 -404t-418 -130q-280 0 -416.5 132t-136.5 402z" />
<glyph unicode="V" horiz-adv-x="1306" d="M61 1434h156q104 -664 436 -1272q332 608 437 1272h155q-66 -379 -191.5 -730.5t-322.5 -703.5h-153q-199 356 -326 707.5t-191 726.5z" />
<glyph unicode="W" horiz-adv-x="1753" d="M31 1434h147q39 -256 107.5 -527.5t208.5 -711.5q82 254 154.5 513t191.5 726h86q178 -647 236.5 -850t117.5 -387q133 434 199.5 706.5t103.5 530.5h139q-43 -289 -120.5 -598.5t-237.5 -835.5h-168q-141 475 -203.5 704.5t-105.5 423.5q-49 -221 -117 -469.5 t-192 -658.5h-168q-160 496 -245 816.5t-134 617.5z" />
<glyph unicode="X" horiz-adv-x="1191" d="M49 0q31 168 97.5 302t150.5 236.5t203 219.5q-174 174 -276.5 324.5t-143.5 351.5h153q37 -172 126.5 -302.5t236.5 -277.5q147 147 236.5 277.5t125.5 302.5h154q-41 -201 -143.5 -351.5t-276.5 -324.5q119 -117 203 -219.5t150.5 -236.5t97.5 -302h-158 q-33 197 -129 345.5t-260 313.5q-164 -166 -260 -314t-129 -345h-158z" />
<glyph unicode="Y" horiz-adv-x="1208" d="M41 1434h160l405 -695l404 695h157l-489 -832v-602h-148v602z" />
<glyph unicode="Z" horiz-adv-x="1187" d="M106 1311v123h959v-131l-782 -1180h798v-123h-970v123l792 1188h-797z" />
<glyph unicode="[" horiz-adv-x="796" d="M209 -174v1898h436v-102h-293v-1694h293v-102h-436z" />
<glyph unicode="\" horiz-adv-x="684" d="M-20 1661h131l594 -1774h-132z" />
<glyph unicode="]" horiz-adv-x="796" d="M152 -72h292v1694h-292v102h436v-1898h-436v102z" />
<glyph unicode="^" horiz-adv-x="1345" d="M127 664l483 956h121l488 -956h-148l-405 792l-392 -792h-147z" />
<glyph unicode="_" horiz-adv-x="1400" d="M0 -209h1401v-123h-1401v123z" />
<glyph unicode="`" horiz-adv-x="497" d="M-8 1604h170l207 -310h-136z" />
<glyph unicode="a" horiz-adv-x="1142" d="M102 272q0 193 187.5 301.5t546.5 124.5v66q0 135 -69 201.5t-208 66.5q-90 0 -167 -38t-165 -126q-12 -12 -30 -12q-20 0 -45 17.5t-48 50.5q92 109 210 166t251 57q190 0 300 -102.5t110 -280.5v-483q0 -95 15.5 -149t53.5 -97q-20 -20 -47.5 -32.5t-52.5 -12.5 q-41 0 -68.5 47t-35.5 129q-63 -86 -170 -136t-224 -50q-156 0 -250 80.5t-94 211.5zM246 274q0 -180 211 -180q110 0 208.5 61.5t170.5 174.5v254q-590 -25 -590 -310z" />
<glyph unicode="b" horiz-adv-x="1249" d="M168 25q39 86 39 245v1350h143v-578q150 104 342 105q228 0 351.5 -147.5t123.5 -417.5q0 -283 -129 -442.5t-356 -159.5q-217 0 -340 129q-18 -109 -72 -109q-61 0 -102 25zM350 250q121 -152 332 -152q164 0 253 126t89 358q0 217 -86 333.5t-246 116.5 q-188 0 -342 -117v-665z" />
<glyph unicode="c" horiz-adv-x="1128" d="M82 569q0 176 62.5 306.5t179 201t274.5 70.5q188 0 310 -95.5t143 -258.5q-18 -8 -50 -16.5t-53 -8.5q-20 0 -29.5 11.5t-19.5 47.5q-23 96 -102.5 150.5t-198.5 54.5q-111 0 -196 -57t-131 -162.5t-46 -243.5q0 -217 103.5 -346t277.5 -129q133 0 227.5 62.5 t141.5 183.5q29 0 48 -24.5t19 -57.5q0 -72 -60 -136.5t-161.5 -103t-214.5 -38.5q-248 0 -386 155.5t-138 433.5z" />
<glyph unicode="d" horiz-adv-x="1224" d="M82 559q0 279 136 433.5t380 154.5q76 0 161 -27.5t140 -68.5v569h139v-1358q0 -65 8.5 -133t20.5 -113q-49 -24 -91 -24h-3q-55 0 -70 139q-68 -82 -147.5 -116.5t-196.5 -34.5q-223 0 -350 154.5t-127 424.5zM225 559q0 -225 88 -345t256 -120q105 0 185 43t145 133 v645q-49 51 -134 86t-167 35q-180 0 -276.5 -122.5t-96.5 -354.5z" />
<glyph unicode="e" horiz-adv-x="1146" d="M102 565q0 272 135.5 427t370.5 155q215 0 336 -133t121 -371q0 -47 -4 -94h-815q4 -213 95 -332t253 -119q111 0 187.5 43t127.5 138q14 27 43 26q33 0 90 -39q-45 -133 -165.5 -209.5t-282.5 -76.5q-150 0 -261.5 70.5t-171 202.5t-59.5 312zM250 659h672 q0 369 -320 369q-156 0 -246 -94t-106 -275z" />
<glyph unicode="f" horiz-adv-x="686" d="M25 1020v106h211v152q0 147 78.5 235.5t209.5 88.5q94 0 143.5 -23t49.5 -66q0 -23 -7.5 -42t-17.5 -19q-61 31 -141 31q-86 0 -131 -53.5t-45 -153.5v-150h254v-106h-254v-1020h-139v1020h-211z" />
<glyph unicode="g" horiz-adv-x="1198" d="M102 -123q0 82 56.5 145.5t156.5 94.5v6q-61 16 -98 60t-37 106q0 51 41 91t111 54q-88 49 -136.5 130t-48.5 181q0 401 463 402q145 0 248 -64q51 47 111.5 75t115.5 28q37 0 54.5 -19.5t17.5 -62.5q0 -12 -4 -49q-152 0 -211 -41q82 -98 82 -244q0 -393 -453 -393 q-139 0 -203.5 -19.5t-64.5 -60.5q0 -92 330 -92q231 0 358 -78t127 -221q0 -154 -136 -237t-390 -83q-240 0 -365 74t-125 217zM248 -106q0 -94 88 -143.5t256 -49.5q188 0 284.5 48t96.5 145q0 98 -87 141t-286 43q-174 0 -263 -47t-89 -137zM291 762q0 -270 293 -270 q157 0 226 62t69 208q0 143 -70 208.5t-225 65.5q-152 0 -222.5 -66.5t-70.5 -207.5z" />
<glyph unicode="h" horiz-adv-x="1290" d="M186 0v1620h140v-608q90 66 192.5 100.5t204.5 34.5q176 0 278.5 -101.5t102.5 -275.5v-770h-139v756q0 133 -65.5 204.5t-188.5 71.5q-94 0 -198.5 -42t-186.5 -111v-879h-140z" />
<glyph unicode="i" horiz-adv-x="589" d="M195 1425v19q0 92 92 92h16q92 0 92 -92v-19q0 -92 -92 -92h-16q-92 0 -92 92zM225 0v1126h140v-1126h-140z" />
<glyph unicode="j" horiz-adv-x="552" d="M-113 -301q0 25 10.5 43t22.5 18q64 -34 151 -34h5q61 0 95 36.5t34 110.5v1253h139v-1235q0 -139 -71.5 -211.5t-202.5 -72.5q-41 0 -91.5 12t-72.5 35q-18 18 -19 45zM174 1425v19q0 92 92 92h16q92 0 92 -92v-19q0 -92 -92 -92h-16q-92 0 -92 92z" />
<glyph unicode="k" horiz-adv-x="1120" d="M186 0v1620h140v-956l80 2q43 2 73.5 17t55.5 48l307 395h172l-365 -446q-4 -4 -18.5 -21.5t-36.5 -29.5q100 -27 145 -99l344 -530q-35 0 -79 -4q-37 -4 -46 -4q-39 0 -59 33l-264 426q-56 90 -197 90h-18l-94 -4v-537h-140z" />
<glyph unicode="l" horiz-adv-x="548" d="M205 0v1620h139v-1620h-139z" />
<glyph unicode="m" horiz-adv-x="1867" d="M164 1104q66 31 104 31q59 0 60 -119v-8q78 74 160.5 106.5t189.5 32.5q96 0 172 -44t117 -120q88 86 179 125t208 39q145 0 236 -94.5t91 -243.5v-809h-141v803q0 119 -53 176t-162 57q-174 0 -324 -159q4 -33 5 -50v-827h-140v823q0 96 -58 154.5t-155 58.5 q-88 0 -166.5 -39t-158.5 -125v-872h-140v743q0 303 -24 361z" />
<glyph unicode="n" horiz-adv-x="1249" d="M160 1104q66 31 104 31q59 0 60 -119v-19q94 78 189 114t202 36q176 0 263 -95.5t87 -289.5v-500q0 -125 3 -169t15 -79q-47 -24 -102 -24h-4q-31 0 -41 44t-10 175v555q0 143 -53.5 207.5t-172.5 64.5q-184 0 -376 -182v-854h-140v743q0 303 -24 361z" />
<glyph unicode="o" horiz-adv-x="1122" d="M82 565q0 582 479 582t479 -582q0 -291 -120.5 -438t-358.5 -147q-237 0 -358 147t-121 438zM225 565q0 -244 81 -357.5t255 -113.5t255 114t81 357q0 242 -81 354.5t-255 112.5t-255 -112.5t-81 -354.5z" />
<glyph unicode="p" horiz-adv-x="1224" d="M164 1104q66 31 104 31q59 0 60 -119v-8q68 68 156.5 103.5t187.5 35.5q229 0 350 -150.5t121 -431.5q0 -178 -62.5 -310t-180.5 -203.5t-275 -71.5q-78 0 -157 15t-140 40v-486h-140v1194q0 303 -24 361zM328 156q127 -61 297 -62q176 0 273 123t97 348q0 467 -323 467 q-94 0 -183.5 -43t-160.5 -123v-710z" />
<glyph unicode="q" horiz-adv-x="1245" d="M82 569q0 268 129 423t354 155q111 0 190 -27.5t154 -95.5q18 111 74 111q29 0 48.5 -6.5t45.5 -24.5q-14 -39 -26.5 -150.5t-12.5 -212.5v-1192h-139v517q-90 -51 -158.5 -68.5t-177.5 -17.5q-225 0 -353 156.5t-128 432.5zM227 569q0 -244 92.5 -363.5t278.5 -119.5 q92 0 164 23.5t137 74.5v697q-126 157 -322 157h-2q-168 0 -258 -120.5t-90 -348.5z" />
<glyph unicode="r" horiz-adv-x="819" d="M174 0v1126h139v-202q47 94 133 155.5t181 61.5q71 0 109 -23.5t38 -70.5q0 -33 -22 -60q-49 27 -136 27q-137 0 -220 -108.5t-83 -284.5v-621h-139z" />
<glyph unicode="s" horiz-adv-x="993" d="M82 201q0 27 17.5 48t43.5 30q74 -96 160 -140.5t207 -44.5q129 0 195.5 59.5t66.5 157.5q0 66 -40 107t-98.5 61.5t-160.5 46.5q-119 31 -191.5 59.5t-122.5 87t-50 156.5q0 104 55 176t141 107t176 35q129 0 234.5 -51.5t165.5 -149.5q-49 -51 -84 -51q-27 0 -52 29 q-49 57 -113.5 84.5t-156.5 27.5q-104 0 -165.5 -49t-61.5 -151q0 -59 37 -96.5t92 -56.5t151 -44q123 -29 200 -59.5t130 -95t53 -173.5q0 -152 -111.5 -241.5t-297.5 -89.5q-92 0 -190.5 30.5t-164 81.5t-65.5 109z" />
<glyph unicode="t" horiz-adv-x="765" d="M25 1016v110h213v308h139v-308h295v-110h-295v-742q0 -172 147 -172q94 0 176 35q15 -10 24 -29.5t9 -39.5q0 -39 -33 -56q-64 -32 -164 -32h-6q-133 0 -212.5 72.5t-79.5 195.5v768h-213z" />
<glyph unicode="u" horiz-adv-x="1249" d="M184 358v768h140v-753q0 -150 55 -216.5t176 -66.5q109 0 204 55.5t159 155.5v825h141v-895q0 -119 31 -217q-41 -24 -85 -24h-4q-43 0 -62 35.5t-21 130.5q-57 -80 -162 -128t-226 -48q-346 0 -346 378z" />
<glyph unicode="v" horiz-adv-x="993" d="M33 1126h139q29 -297 105.5 -527t220.5 -447q143 217 219 447t104 527h140q-25 -315 -121.5 -588.5t-276.5 -537.5h-133q-180 264 -276.5 537.5t-120.5 588.5z" />
<glyph unicode="w" horiz-adv-x="1556" d="M68 1126h143q35 -299 89 -523t142 -417q197 403 267 940h135q74 -555 264 -944q178 426 211 944h160q-82 -623 -312 -1126h-127q-106 233 -168.5 425.5t-97.5 401.5q-37 -213 -100.5 -406.5t-169.5 -420.5h-131q-109 231 -181.5 499.5t-123.5 626.5z" />
<glyph unicode="x" horiz-adv-x="991" d="M33 0q10 111 62 210t124 181t184 193q-158 152 -244.5 274.5t-101.5 267.5h152q12 -117 86 -224t201 -230q127 123 200.5 230.5t85.5 223.5h152q-14 -145 -101.5 -268t-244.5 -274q112 -111 184 -193t124 -181t62 -210h-151q-12 131 -91 243.5t-220 250.5 q-141 -137 -220 -250t-92 -244h-151z" />
<glyph unicode="y" horiz-adv-x="993" d="M2 -311q0 41 35 65q20 -14 62 -24.5t83 -10.5q84 0 144.5 74t103.5 225l-401 1108h147l326 -907l321 907h148l-436 -1212q-57 -162 -144.5 -236.5t-220.5 -74.5q-78 0 -123 23.5t-45 62.5z" />
<glyph unicode="z" horiz-adv-x="1024" d="M61 0v98l697 910h-643v118h831v-96l-696 -911h713v-119h-902z" />
<glyph unicode="{" horiz-adv-x="745" d="M98 690v76q74 14 104.5 61t30.5 123v436q0 119 69 187.5t169 68.5h98v-102h-71q-131 0 -131 -147v-422q0 -111 -38 -165t-118 -75v-6q80 -18 118 -73.5t38 -164.5v-421q0 -147 131 -148h71v-104h-98q-100 0 -169 69.5t-69 188.5v436q0 76 -30.5 122t-104.5 60z" />
<glyph unicode="|" horiz-adv-x="497" d="M188 -25v1667h121v-1667h-121z" />
<glyph unicode="}" horiz-adv-x="745" d="M176 -82h72q131 0 131 148v421q0 109 38 164.5t118 73.5v6q-80 20 -118 74.5t-38 165.5v422q0 147 -131 147h-72v102h98q100 0 169 -68.5t69 -187.5v-436q0 -76 30.5 -123t104.5 -61v-76q-74 -14 -104.5 -60t-30.5 -122v-436q0 -119 -68.5 -188.5t-169.5 -69.5h-98v104z " />
<glyph unicode="~" horiz-adv-x="1228" d="M102 535q111 195 304 194q66 0 114.5 -21.5t112.5 -64.5q59 -41 104 -60.5t105 -19.5q78 0 120 41t74 125l90 -74q-23 -96 -97.5 -157.5t-192.5 -61.5q-66 0 -115 21.5t-119 66.5q-63 39 -105 58.5t-96 19.5q-68 0 -116.5 -44t-89.5 -122z" />
<glyph unicode="&#xa1;" horiz-adv-x="497" d="M152 1036v19q0 92 92 92h16q92 0 92 -92v-19q0 -92 -92 -92h-16q-92 0 -92 92zM164 -287l31 1012h114l31 -1012h-176z" />
<glyph unicode="&#xa2;" horiz-adv-x="1120" d="M82 569q0 176 62.5 306.5t179 201t274.5 70.5q49 0 92 -6l55 166h121l-63 -195q104 -41 168.5 -124t79.5 -195q-18 -8 -50 -16.5t-53 -8.5q-20 0 -29.5 11.5t-19.5 47.5q-27 117 -135 170l-291 -880q63 -23 133 -23q133 0 227.5 62.5t141.5 183.5q29 0 48 -24.5t19 -57.5 q0 -72 -60 -136.5t-161.5 -103t-214.5 -38.5q-90 0 -170 22l-55 -166h-123l70 211q-119 70 -182.5 203t-63.5 319zM225 569q0 -127 38 -228t108 -163l282 850q-37 4 -55 4q-111 0 -196 -57t-131 -162.5t-46 -243.5z" />
<glyph unicode="&#xa3;" horiz-adv-x="1247" d="M29 649v119h211q-12 70 -22.5 142.5t-10.5 127.5q0 125 53 219.5t148.5 145.5t216.5 51q172 0 286.5 -90t145.5 -258q-45 -35 -92 -35q-39 0 -58 55q-33 100 -98.5 154.5t-183.5 54.5q-141 0 -212 -78.5t-71 -224.5q0 -98 31 -264h352v-119h-330q23 -131 23 -203 q0 -150 -53 -245q66 -47 145.5 -75t153.5 -28q104 0 171.5 55.5t98.5 200.5l127 -24q-25 -164 -128.5 -257t-248.5 -93q-125 0 -212 30.5t-175 98.5q-94 -90 -264 -129v141q129 35 189.5 113.5t60.5 214.5q0 70 -23 200h-231z" />
<glyph unicode="&#xa4;" horiz-adv-x="1247" d="M68 250l120 121q-121 137 -120 352q0 201 120 348l-120 121l82 86l126 -125q74 61 162 93t185 32q195 0 348 -125l123 125l86 -86l-121 -121q121 -147 121 -348q0 -215 -121 -352l121 -121l-86 -84l-123 121q-158 -121 -348 -121q-197 0 -347 121l-126 -121zM211 723 q0 -123 53 -219t146.5 -150.5t212.5 -54.5q118 0 212.5 54.5t147.5 150.5t53 219t-53 219t-147.5 150.5t-212.5 54.5q-119 0 -212.5 -54.5t-146.5 -150.5t-53 -219z" />
<glyph unicode="&#xa5;" horiz-adv-x="1208" d="M41 1434h160l405 -695l404 695h157l-391 -664h273v-115h-340l-31 -53v-143h371v-115h-371v-344h-148v344h-370v115h370v143l-30 53h-340v115h272z" />
<glyph unicode="&#xa6;" horiz-adv-x="497" d="M188 -25v629h121v-629h-121zM188 1014v628h121v-628h-121z" />
<glyph unicode="&#xa7;" horiz-adv-x="983" d="M113 748h133q0 -84 38 -144.5t122 -99.5l272 -127q178 -84 178 -250q0 -92 -49 -162.5t-130 -107.5t-177 -37q-164 0 -264.5 81t-110.5 210l131 18q20 -190 244 -190q223 0 223 188q0 55 -27.5 92t-91.5 66l-291 135q-98 45 -149 133t-51 195zM125 1141q0 92 49 162.5 t130 107.5t177 37q164 0 264.5 -81t110.5 -210l-131 -18q-20 190 -244 190q-223 0 -223 -188q0 -55 27.5 -92t91.5 -66l291 -135q98 -45 149 -133t51 -195h-133q0 84 -38 144.5t-122 99.5l-272 127q-178 84 -178 250z" />
<glyph unicode="&#xa8;" horiz-adv-x="618" d="M0 1401v18q0 92 92 92h17q92 0 92 -92v-18q0 -92 -92 -92h-17q-92 0 -92 92zM418 1401v18q0 92 92 92h16q92 0 92 -92v-18q0 -92 -92 -92h-16q-92 0 -92 92z" />
<glyph unicode="&#xa9;" horiz-adv-x="1585" d="M55 717q0 213 94.5 381t262.5 262t381 94t380.5 -94t262 -262t94.5 -381t-94.5 -381t-262 -262t-380.5 -94t-381 94t-262.5 262t-94.5 381zM174 717q0 -184 79 -329.5t220 -226.5t320 -81q178 0 319 81t221 226t80 330q0 184 -80 329.5t-221 226.5t-319 81t-319.5 -81 t-220.5 -226.5t-79 -329.5zM412 719q0 201 108.5 321.5t288.5 120.5q274 0 352 -256l-102 -39q-27 94 -85.5 144.5t-162.5 50.5q-141 0 -212 -92t-71 -250q0 -150 77 -249t212 -99q170 0 236 161l102 -38q-96 -223 -338 -224q-119 0 -211 56.5t-143 158t-51 234.5z" />
<glyph unicode="&#xaa;" horiz-adv-x="778" d="M94 924q0 106 64.5 162.5t165 75t245.5 20.5v14q0 170 -166 170q-59 0 -95 -18.5t-77 -51.5q-20 -18 -31.5 -23t-27.5 -5q-25 0 -41 15t-20 40q49 68 122.5 101.5t182.5 33.5q106 0 186 -67.5t80 -196.5v-281q0 -55 3 -86.5t11 -68.5q-25 -20 -59 -21q-63 0 -68 115 q-43 -55 -101 -86t-151 -31q-98 0 -160.5 51.5t-62.5 137.5zM207 928q0 -55 31.5 -79t93.5 -24q71 0 139 41t98 99v131q-111 -2 -185.5 -11.5t-125.5 -46.5t-51 -110z" />
<glyph unicode="&#xab;" horiz-adv-x="1024" d="M143 590l263 336h126l-243 -336l243 -350h-126zM460 590l263 336h126l-243 -336l243 -350h-126z" />
<glyph unicode="&#xac;" horiz-adv-x="1228" d="M102 629v123h1004v-512h-127v389h-877z" />
<glyph unicode="&#xad;" horiz-adv-x="778" d="M82 567v123h614v-123h-614z" />
<glyph unicode="&#xae;" horiz-adv-x="1585" d="M55 717q0 199 99.5 367.5t268.5 269t370 100.5q202 0 371 -100.5t267.5 -269.5t98.5 -367q0 -199 -98.5 -368t-267.5 -269t-371 -100q-201 0 -370 100t-268.5 269t-99.5 368zM174 717q0 -174 82 -320.5t223.5 -231.5t313.5 -85q174 0 316 85t223 230.5t81 321.5 t-81 321.5t-223 230.5t-316 85q-172 0 -313.5 -85t-223.5 -231.5t-82 -320.5zM522 297v815h334q283 0 283 -252q0 -100 -54.5 -162.5t-144.5 -81.5l193 -319h-127l-179 311h-188v-311h-117zM639 705h182q103 0 150 39.5t47 117.5q0 154 -189 154h-190v-311z" />
<glyph unicode="&#xaf;" horiz-adv-x="497" d="M-86 1339v123h668v-123h-668z" />
<glyph unicode="&#xb0;" horiz-adv-x="897" d="M121 1315q0 88 43 163.5t117.5 119.5t167.5 44q92 0 166.5 -44t117.5 -119.5t43 -163.5q0 -90 -43 -165t-117.5 -120t-166.5 -45q-93 0 -167.5 45t-117.5 120t-43 165zM223 1315q0 -100 63.5 -167t162.5 -67q98 0 160.5 66.5t62.5 167.5q0 100 -62.5 165.5t-160.5 65.5 t-162 -66.5t-64 -164.5z" />
<glyph unicode="&#xb1;" horiz-adv-x="1228" d="M82 0v121h1065v-121h-1065zM82 713v121h471v454h125v-454h469v-121h-469v-457h-125v457h-471z" />
<glyph unicode="&#xb2;" horiz-adv-x="681" d="M45 578v86q156 104 252 177.5t160.5 162t64.5 184.5q0 80 -47 122t-133 42q-88 0 -140 -45t-61 -136q-41 0 -63.5 16.5t-22.5 41.5q0 59 36 111.5t101.5 83t145.5 30.5q137 0 216 -69.5t79 -206.5q0 -139 -108.5 -254t-293.5 -244h404v-102h-590z" />
<glyph unicode="&#xb3;" horiz-adv-x="718" d="M53 717q0 27 16.5 41t41.5 14q55 -55 107 -81.5t144 -26.5q98 0 149.5 44t51.5 123q0 72 -48 112t-130 40q-23 0 -46.5 -2t-41.5 -2q-23 0 -36 29.5t-13 56.5q0 14 12 14h109q88 0 127 41t39 105q0 137 -164 137q-82 0 -131.5 -31t-89.5 -100q-20 0 -41 17.5t-21 43.5 q0 43 36 80t99.5 59.5t143.5 22.5q127 0 202.5 -60.5t75.5 -168.5q0 -59 -27.5 -108.5t-89.5 -76.5q66 -22 107 -74.5t41 -134.5q0 -121 -85 -191.5t-235 -70.5q-82 0 -151.5 21.5t-110.5 56.5t-41 70z" />
<glyph unicode="&#xb4;" horiz-adv-x="497" d="M127 1294l229 310h174l-268 -310h-135z" />
<glyph unicode="&#xb6;" horiz-adv-x="1126" d="M41 1096q0 211 128 325.5t366 114.5h591v-100h-157v-1436h-123v1436h-225v-1436h-123v672q-127 0 -231.5 57t-165 154.5t-60.5 212.5z" />
<glyph unicode="&#xb7;" horiz-adv-x="630" d="M215 579v19q0 92 92 92h17q92 0 92 -92v-19q0 -92 -92 -92h-17q-92 0 -92 92z" />
<glyph unicode="&#xb8;" horiz-adv-x="497" d="M12 -383q0 12 6 29q84 -23 172 -23q61 0 96.5 25.5t35.5 68.5q0 31 -28 54.5t-77 23.5q-39 0 -82 -14l-35 65l117 154h119l-92 -113h14q86 0 139.5 -43t53.5 -123q0 -90 -72 -140t-176 -50q-92 0 -141.5 22.5t-49.5 63.5z" />
<glyph unicode="&#xb9;" horiz-adv-x="776" d="M121 1321q61 6 128.5 43t117.5 90h79v-778h172v-98h-462v98h184v639q-82 -74 -147 -74q-37 0 -54.5 21.5t-17.5 58.5z" />
<glyph unicode="&#xba;" horiz-adv-x="778" d="M74 1092q0 164 82 263t235 99q152 0 233 -99.5t81 -262.5q0 -162 -81 -261.5t-233 -99.5q-153 0 -235 99.5t-82 261.5zM188 1092q0 -268 203 -269q98 0 148.5 64.5t50.5 204.5q0 270 -199 270q-203 0 -203 -270z" />
<glyph unicode="&#xbb;" horiz-adv-x="1024" d="M174 240l244 350l-244 336h127l262 -336l-262 -350h-127zM492 240l243 350l-243 336h126l263 -336l-263 -350h-126z" />
<glyph unicode="&#xbc;" horiz-adv-x="2080" d="M121 1321q61 6 128.5 43t117.5 90h79v-778h172v-98h-462v98h184v639q-82 -74 -147 -74q-37 0 -54.5 21.5t-17.5 58.5zM663 0l631 1434h107l-631 -1434h-107zM1356 200v49q117 166 180 308.5t76 308.5q10 4 32 4q29 0 49.5 -16.5t20.5 -51.5q0 -109 -61.5 -250 t-145.5 -253h281v264h106v-264h123v-99h-123v-200h-106v200h-432z" />
<glyph unicode="&#xbd;" horiz-adv-x="1970" d="M121 1321q61 6 128.5 43t117.5 90h79v-778h172v-98h-462v98h184v639q-82 -74 -147 -74q-37 0 -54.5 21.5t-17.5 58.5zM663 0l631 1434h107l-631 -1434h-107zM1333 3v86q156 104 252 177.5t160.5 162t64.5 184.5q0 80 -47 122t-133 42q-88 0 -140 -45t-61 -136 q-41 0 -63.5 16.5t-22.5 41.5q0 59 36 111.5t101.5 83t145.5 30.5q137 0 216 -69.5t79 -206.5q0 -139 -108.5 -254t-293.5 -244h404v-102h-590z" />
<glyph unicode="&#xbe;" horiz-adv-x="2023" d="M53 717q0 27 16.5 41t41.5 14q55 -55 107 -81.5t144 -26.5q98 0 149.5 44t51.5 123q0 72 -48 112t-130 40q-23 0 -46.5 -2t-41.5 -2q-23 0 -36 29.5t-13 56.5q0 14 12 14h109q88 0 127 41t39 105q0 137 -164 137q-82 0 -131.5 -31t-89.5 -100q-20 0 -41 17.5t-21 43.5 q0 43 36 80t99.5 59.5t143.5 22.5q127 0 202.5 -60.5t75.5 -168.5q0 -59 -27.5 -108.5t-89.5 -76.5q66 -22 107 -74.5t41 -134.5q0 -121 -85 -191.5t-235 -70.5q-82 0 -151.5 21.5t-110.5 56.5t-41 70zM606 0l631 1434h107l-631 -1434h-107zM1299 200v49q117 166 180 308.5 t76 308.5q10 4 32 4q29 0 49.5 -16.5t20.5 -51.5q0 -109 -61.5 -250t-145.5 -253h281v264h106v-264h123v-99h-123v-200h-106v200h-432z" />
<glyph unicode="&#xbf;" horiz-adv-x="972" d="M70 47q0 84 29.5 149.5t72.5 112.5t113 109q88 80 131 136t43 136v53h135v-81q0 -86 -49 -154t-146 -158q-96 -90 -144 -155.5t-48 -149.5q0 -113 72.5 -176.5t201.5 -63.5q123 0 196 69t107 173l121 -59q-35 -137 -152.5 -223.5t-275.5 -86.5q-113 0 -205 44.5t-147 128 t-55 196.5zM422 1020v18q0 92 92 92h16q93 0 93 -92v-18q0 -92 -93 -92h-16q-92 0 -92 92z" />
<glyph unicode="&#xc0;" horiz-adv-x="1269" d="M31 0q106 438 231 779t297 655h154q170 -311 295 -652.5t231 -781.5h-152q-55 254 -104 416h-696q-49 -162 -105 -416h-151zM322 539h626q-125 397 -313 745q-188 -348 -313 -745zM394 1829h170l207 -310h-136z" />
<glyph unicode="&#xc1;" horiz-adv-x="1269" d="M31 0q106 438 231 779t297 655h154q170 -311 295 -652.5t231 -781.5h-152q-55 254 -104 416h-696q-49 -162 -105 -416h-151zM322 539h626q-125 397 -313 745q-188 -348 -313 -745zM501 1519l229 310h174l-268 -310h-135z" />
<glyph unicode="&#xc2;" horiz-adv-x="1269" d="M31 0q106 438 231 779t297 655h154q170 -311 295 -652.5t231 -781.5h-152q-55 254 -104 416h-696q-49 -162 -105 -416h-151zM322 539h626q-125 397 -313 745q-188 -348 -313 -745zM332 1519l229 273h150l227 -273h-131l-170 170l-174 -170h-131z" />
<glyph unicode="&#xc3;" horiz-adv-x="1269" d="M31 0q106 438 231 779t297 655h154q170 -311 295 -652.5t231 -781.5h-152q-55 254 -104 416h-696q-49 -162 -105 -416h-151zM322 539h626q-125 397 -313 745q-188 -348 -313 -745zM330 1581q0 74 50 114.5t128 40.5q45 0 78.5 -13t74.5 -38q31 -20 53.5 -29.5t49.5 -9.5 q84 0 98 97q39 0 60.5 -17.5t21.5 -44.5q0 -59 -47 -102t-127 -43q-47 0 -82 13t-78 38q-33 20 -57.5 29.5t-52.5 9.5q-80 0 -97 -94q-73 0 -73 49z" />
<glyph unicode="&#xc4;" horiz-adv-x="1269" d="M31 0q106 438 231 779t297 655h154q170 -311 295 -652.5t231 -781.5h-152q-55 254 -104 416h-696q-49 -162 -105 -416h-151zM322 539h626q-125 397 -313 745q-188 -348 -313 -745zM328 1626v18q0 92 92 92h17q92 0 92 -92v-18q0 -92 -92 -92h-17q-92 0 -92 92zM746 1626 v18q0 92 92 92h16q92 0 92 -92v-18q0 -92 -92 -92h-16q-92 0 -92 92z" />
<glyph unicode="&#xc5;" horiz-adv-x="1269" d="M31 0q106 438 231 779t297 655h154q170 -311 295 -652.5t231 -781.5h-152q-55 254 -104 416h-696q-49 -162 -105 -416h-151zM322 539h626q-125 397 -313 745q-188 -348 -313 -745zM410 1734q0 96 65.5 161t159.5 65t159.5 -64.5t65.5 -161.5q0 -96 -65.5 -159.5 t-159.5 -63.5t-159.5 63.5t-65.5 159.5zM506 1734q0 -53 37 -90t92 -37q53 0 90 37t37 90q0 57 -36 92t-91 35t-92 -34.5t-37 -92.5z" />
<glyph unicode="&#xc6;" horiz-adv-x="1904" d="M31 0q78 385 295 765t544 669h922v-123h-696v-486h608v-123h-608v-579h686q0 -74 -21.5 -98.5t-85.5 -24.5h-712v422h-652q-92 -225 -129 -422h-151zM369 545h594v766h-19q-168 -141 -317.5 -341t-257.5 -425z" />
<glyph unicode="&#xc7;" horiz-adv-x="1220" d="M106 717q0 354 160 545.5t455 191.5q119 0 221 -40t176 -118q-12 -39 -34.5 -59t-51.5 -20t-53 18q-111 86 -262 86q-225 0 -342 -153.5t-117 -450.5q0 -295 117 -448.5t342 -153.5q96 0 173 26.5t152 87.5q27 -2 45.5 -21.5t18.5 -47.5q0 -63 -97.5 -115.5t-232.5 -62.5 l-78 -95h15q86 0 139 -43t53 -123q0 -90 -71.5 -140t-176.5 -50q-92 0 -141 22.5t-49 63.5q0 12 6 29q84 -23 172 -23q61 0 96 25.5t35 68.5q0 31 -27.5 54.5t-76.5 23.5q-39 0 -82 -14l-35 65l102 136q-264 23 -407.5 213t-143.5 522z" />
<glyph unicode="&#xc8;" horiz-adv-x="1146" d="M176 0v1434h856v-123h-708v-516h610v-123h-610v-549h710q0 -74 -21.5 -98.5t-84.5 -24.5h-752zM332 1829h170l207 -310h-136z" />
<glyph unicode="&#xc9;" horiz-adv-x="1146" d="M176 0v1434h856v-123h-708v-516h610v-123h-610v-549h710q0 -74 -21.5 -98.5t-84.5 -24.5h-752zM440 1519l229 310h174l-268 -310h-135z" />
<glyph unicode="&#xca;" horiz-adv-x="1146" d="M176 0v1434h856v-123h-708v-516h610v-123h-610v-549h710q0 -74 -21.5 -98.5t-84.5 -24.5h-752zM270 1519l229 273h150l227 -273h-131l-170 170l-174 -170h-131z" />
<glyph unicode="&#xcb;" horiz-adv-x="1146" d="M176 0v1434h856v-123h-708v-516h610v-123h-610v-549h710q0 -74 -21.5 -98.5t-84.5 -24.5h-752zM266 1626v18q0 92 92 92h17q92 0 92 -92v-18q0 -92 -92 -92h-17q-92 0 -92 92zM684 1626v18q0 92 92 92h16q92 0 92 -92v-18q0 -92 -92 -92h-16q-92 0 -92 92z" />
<glyph unicode="&#xcc;" horiz-adv-x="716" d="M117 1829h170l207 -310h-136zM285 0v1434h147v-1434h-147z" />
<glyph unicode="&#xcd;" horiz-adv-x="716" d="M225 1519l229 310h174l-268 -310h-135zM285 0v1434h147v-1434h-147z" />
<glyph unicode="&#xce;" horiz-adv-x="716" d="M55 1519l229 273h150l227 -273h-131l-170 170l-174 -170h-131zM285 0v1434h147v-1434h-147z" />
<glyph unicode="&#xcf;" horiz-adv-x="716" d="M51 1626v18q0 92 92 92h17q92 0 92 -92v-18q0 -92 -92 -92h-17q-92 0 -92 92zM285 0v1434h147v-1434h-147zM469 1626v18q0 92 92 92h16q92 0 92 -92v-18q0 -92 -92 -92h-16q-92 0 -92 92z" />
<glyph unicode="&#xd0;" horiz-adv-x="1376" d="M2 670v116h174v648h424q318 0 489 -185.5t171 -531.5q0 -221 -79 -383t-227.5 -248t-353.5 -86h-424v670h-174zM324 123h276q250 0 379 150.5t129 441.5q0 301 -126 448.5t-382 147.5h-276v-525h385v-116h-385v-547z" />
<glyph unicode="&#xd1;" horiz-adv-x="1413" d="M176 0v1434h119q27 0 42 -7.5t36 -33.5l708 -932v973h148v-1153q0 -64 4 -150q4 -57 4 -76q0 -55 -53 -55h-103v111q0 119 -80 227l-677 893v-1231h-148zM400 1581q0 74 50 114.5t128 40.5q45 0 78.5 -13t74.5 -38q31 -20 53.5 -29.5t49.5 -9.5q84 0 98 97 q39 0 60.5 -17.5t21.5 -44.5q0 -59 -47 -102t-127 -43q-47 0 -82 13t-78 38q-33 20 -57.5 29.5t-52.5 9.5q-80 0 -97 -94q-73 0 -73 49z" />
<glyph unicode="&#xd2;" horiz-adv-x="1392" d="M98 725q0 352 155 540.5t443 188.5q289 0 443.5 -188.5t154.5 -540.5q0 -360 -154.5 -552.5t-443.5 -192.5q-288 0 -443 192.5t-155 552.5zM250 725q0 -305 112.5 -459.5t333.5 -154.5q222 0 334.5 154.5t112.5 459.5q0 598 -447 598q-446 0 -446 -598zM455 1829h170 l207 -310h-136z" />
<glyph unicode="&#xd3;" horiz-adv-x="1392" d="M98 725q0 352 155 540.5t443 188.5q289 0 443.5 -188.5t154.5 -540.5q0 -360 -154.5 -552.5t-443.5 -192.5q-288 0 -443 192.5t-155 552.5zM250 725q0 -305 112.5 -459.5t333.5 -154.5q222 0 334.5 154.5t112.5 459.5q0 598 -447 598q-446 0 -446 -598zM563 1519l229 310 h174l-268 -310h-135z" />
<glyph unicode="&#xd4;" horiz-adv-x="1392" d="M98 725q0 352 155 540.5t443 188.5q289 0 443.5 -188.5t154.5 -540.5q0 -360 -154.5 -552.5t-443.5 -192.5q-288 0 -443 192.5t-155 552.5zM250 725q0 -305 112.5 -459.5t333.5 -154.5q222 0 334.5 154.5t112.5 459.5q0 598 -447 598q-446 0 -446 -598zM393 1519l229 273 h150l227 -273h-131l-170 170l-174 -170h-131z" />
<glyph unicode="&#xd5;" horiz-adv-x="1392" d="M98 725q0 352 155 540.5t443 188.5q289 0 443.5 -188.5t154.5 -540.5q0 -360 -154.5 -552.5t-443.5 -192.5q-288 0 -443 192.5t-155 552.5zM250 725q0 -305 112.5 -459.5t333.5 -154.5q222 0 334.5 154.5t112.5 459.5q0 598 -447 598q-446 0 -446 -598zM391 1581 q0 74 50 114.5t128 40.5q45 0 78.5 -13t74.5 -38q31 -20 53.5 -29.5t49.5 -9.5q84 0 98 97q39 0 60.5 -17.5t21.5 -44.5q0 -59 -47 -102t-127 -43q-47 0 -82 13t-78 38q-33 20 -57.5 29.5t-52.5 9.5q-80 0 -97 -94q-73 0 -73 49z" />
<glyph unicode="&#xd6;" horiz-adv-x="1392" d="M98 725q0 352 155 540.5t443 188.5q289 0 443.5 -188.5t154.5 -540.5q0 -360 -154.5 -552.5t-443.5 -192.5q-288 0 -443 192.5t-155 552.5zM250 725q0 -305 112.5 -459.5t333.5 -154.5q222 0 334.5 154.5t112.5 459.5q0 598 -447 598q-446 0 -446 -598zM389 1626v18 q0 92 92 92h17q92 0 92 -92v-18q0 -92 -92 -92h-17q-92 0 -92 92zM807 1626v18q0 92 92 92h16q92 0 92 -92v-18q0 -92 -92 -92h-16q-92 0 -92 92z" />
<glyph unicode="&#xd7;" horiz-adv-x="1228" d="M209 344l319 320l-319 319l86 86l319 -319l320 319l86 -86l-320 -319l320 -320l-86 -86l-320 320l-319 -320z" />
<glyph unicode="&#xd8;" horiz-adv-x="1392" d="M98 725q0 352 155 540.5t443 188.5q221 0 363 -111l65 93h148l-125 -179q147 -188 147 -532q0 -360 -154.5 -552.5t-443.5 -192.5q-223 0 -370 118l-70 -98h-147l133 188q-143 190 -144 537zM250 725q0 -260 82 -410l647 914q-106 94 -283 94q-446 0 -446 -598zM408 215 q106 -104 288 -104q222 0 334.5 154.5t112.5 459.5q0 260 -86 408z" />
<glyph unicode="&#xd9;" horiz-adv-x="1449" d="M176 514v920h148v-940q0 -199 98 -293.5t307 -94.5q211 0 307.5 93.5t96.5 294.5v940h147v-920q0 -274 -133 -404t-418 -130q-280 0 -416.5 132t-136.5 402zM484 1829h170l207 -310h-136z" />
<glyph unicode="&#xda;" horiz-adv-x="1449" d="M176 514v920h148v-940q0 -199 98 -293.5t307 -94.5q211 0 307.5 93.5t96.5 294.5v940h147v-920q0 -274 -133 -404t-418 -130q-280 0 -416.5 132t-136.5 402zM592 1519l229 310h174l-268 -310h-135z" />
<glyph unicode="&#xdb;" horiz-adv-x="1449" d="M176 514v920h148v-940q0 -199 98 -293.5t307 -94.5q211 0 307.5 93.5t96.5 294.5v940h147v-920q0 -274 -133 -404t-418 -130q-280 0 -416.5 132t-136.5 402zM422 1519l229 273h150l227 -273h-131l-170 170l-174 -170h-131z" />
<glyph unicode="&#xdc;" horiz-adv-x="1449" d="M176 514v920h148v-940q0 -199 98 -293.5t307 -94.5q211 0 307.5 93.5t96.5 294.5v940h147v-920q0 -274 -133 -404t-418 -130q-280 0 -416.5 132t-136.5 402zM418 1626v18q0 92 92 92h17q92 0 92 -92v-18q0 -92 -92 -92h-17q-92 0 -92 92zM836 1626v18q0 92 92 92h16 q92 0 92 -92v-18q0 -92 -92 -92h-16q-92 0 -92 92z" />
<glyph unicode="&#xdd;" horiz-adv-x="1208" d="M41 1434h160l405 -695l404 695h157l-489 -832v-602h-148v602zM471 1519l229 310h174l-268 -310h-135z" />
<glyph unicode="&#xde;" horiz-adv-x="1312" d="M223 0v1434h148v-209h299q276 0 405 -131t129 -351q0 -219 -129 -350t-405 -131h-299v-262h-148zM371 385h299q383 0 383 358t-383 359h-299v-717z" />
<glyph unicode="&#xdf;" horiz-adv-x="1263" d="M172 0v1069q0 135 62.5 231.5t169 146.5t237.5 50q129 0 229.5 -56.5t154.5 -150.5t54 -205q0 -129 -56 -213t-153 -124q119 -29 191 -121t72 -219q0 -211 -120 -324t-313 -113q-119 0 -211 35t-92 103q0 23 10.5 39t30.5 22q63 -47 124 -65.5t147 -18.5q137 0 213.5 75 t76.5 230q0 129 -78.5 209t-224.5 80q-16 0 -57 -4l-49 -2q-29 0 -48.5 33.5t-19.5 64.5q0 18 15 19h141q70 0 130 36.5t97 105t37 159.5q0 135 -81 214.5t-224 79.5q-152 0 -239 -80.5t-87 -236.5v-1069h-139z" />
<glyph unicode="&#xe0;" horiz-adv-x="1142" d="M102 272q0 193 187.5 301.5t546.5 124.5v66q0 135 -69 201.5t-208 66.5q-90 0 -167 -38t-165 -126q-12 -12 -30 -12q-20 0 -45 17.5t-48 50.5q92 109 210 166t251 57q190 0 300 -102.5t110 -280.5v-483q0 -95 15.5 -149t53.5 -97q-20 -20 -47.5 -32.5t-52.5 -12.5 q-41 0 -68.5 47t-35.5 129q-63 -86 -170 -136t-224 -50q-156 0 -250 80.5t-94 211.5zM246 274q0 -180 211 -180q110 0 208.5 61.5t170.5 174.5v254q-590 -25 -590 -310zM326 1604h170l207 -310h-136z" />
<glyph unicode="&#xe1;" horiz-adv-x="1142" d="M102 272q0 193 187.5 301.5t546.5 124.5v66q0 135 -69 201.5t-208 66.5q-90 0 -167 -38t-165 -126q-12 -12 -30 -12q-20 0 -45 17.5t-48 50.5q92 109 210 166t251 57q190 0 300 -102.5t110 -280.5v-483q0 -95 15.5 -149t53.5 -97q-20 -20 -47.5 -32.5t-52.5 -12.5 q-41 0 -68.5 47t-35.5 129q-63 -86 -170 -136t-224 -50q-156 0 -250 80.5t-94 211.5zM246 274q0 -180 211 -180q110 0 208.5 61.5t170.5 174.5v254q-590 -25 -590 -310zM434 1294l229 310h174l-268 -310h-135z" />
<glyph unicode="&#xe2;" horiz-adv-x="1142" d="M102 272q0 193 187.5 301.5t546.5 124.5v66q0 135 -69 201.5t-208 66.5q-90 0 -167 -38t-165 -126q-12 -12 -30 -12q-20 0 -45 17.5t-48 50.5q92 109 210 166t251 57q190 0 300 -102.5t110 -280.5v-483q0 -95 15.5 -149t53.5 -97q-20 -20 -47.5 -32.5t-52.5 -12.5 q-41 0 -68.5 47t-35.5 129q-63 -86 -170 -136t-224 -50q-156 0 -250 80.5t-94 211.5zM246 274q0 -180 211 -180q110 0 208.5 61.5t170.5 174.5v254q-590 -25 -590 -310zM264 1294l229 273h150l227 -273h-131l-170 170l-174 -170h-131z" />
<glyph unicode="&#xe3;" horiz-adv-x="1142" d="M102 272q0 193 187.5 301.5t546.5 124.5v66q0 135 -69 201.5t-208 66.5q-90 0 -167 -38t-165 -126q-12 -12 -30 -12q-20 0 -45 17.5t-48 50.5q92 109 210 166t251 57q190 0 300 -102.5t110 -280.5v-483q0 -95 15.5 -149t53.5 -97q-20 -20 -47.5 -32.5t-52.5 -12.5 q-41 0 -68.5 47t-35.5 129q-63 -86 -170 -136t-224 -50q-156 0 -250 80.5t-94 211.5zM246 274q0 -180 211 -180q110 0 208.5 61.5t170.5 174.5v254q-590 -25 -590 -310zM262 1356q0 74 50 114.5t128 40.5q45 0 78.5 -13t74.5 -38q31 -20 53.5 -29.5t49.5 -9.5q84 0 98 97 q39 0 60.5 -17.5t21.5 -44.5q0 -59 -47 -102t-127 -43q-47 0 -82 13t-78 38q-33 20 -57.5 29.5t-52.5 9.5q-80 0 -97 -94q-73 0 -73 49z" />
<glyph unicode="&#xe4;" horiz-adv-x="1142" d="M102 272q0 193 187.5 301.5t546.5 124.5v66q0 135 -69 201.5t-208 66.5q-90 0 -167 -38t-165 -126q-12 -12 -30 -12q-20 0 -45 17.5t-48 50.5q92 109 210 166t251 57q190 0 300 -102.5t110 -280.5v-483q0 -95 15.5 -149t53.5 -97q-20 -20 -47.5 -32.5t-52.5 -12.5 q-41 0 -68.5 47t-35.5 129q-63 -86 -170 -136t-224 -50q-156 0 -250 80.5t-94 211.5zM246 274q0 -180 211 -180q110 0 208.5 61.5t170.5 174.5v254q-590 -25 -590 -310zM260 1401v18q0 92 92 92h17q92 0 92 -92v-18q0 -92 -92 -92h-17q-92 0 -92 92zM678 1401v18q0 92 92 92 h16q92 0 92 -92v-18q0 -92 -92 -92h-16q-92 0 -92 92z" />
<glyph unicode="&#xe5;" horiz-adv-x="1142" d="M102 272q0 193 187.5 301.5t546.5 124.5v66q0 135 -69 201.5t-208 66.5q-90 0 -167 -38t-165 -126q-12 -12 -30 -12q-20 0 -45 17.5t-48 50.5q92 109 210 166t251 57q190 0 300 -102.5t110 -280.5v-483q0 -95 15.5 -149t53.5 -97q-20 -20 -47.5 -32.5t-52.5 -12.5 q-41 0 -68.5 47t-35.5 129q-63 -86 -170 -136t-224 -50q-156 0 -250 80.5t-94 211.5zM246 274q0 -180 211 -180q110 0 208.5 61.5t170.5 174.5v254q-590 -25 -590 -310zM342 1509q0 96 65.5 161t159.5 65t159.5 -64.5t65.5 -161.5q0 -96 -65.5 -159.5t-159.5 -63.5 t-159.5 63.5t-65.5 159.5zM438 1509q0 -53 37 -90t92 -37q53 0 90 37t37 90q0 57 -36 92t-91 35t-92 -34.5t-37 -92.5z" />
<glyph unicode="&#xe6;" horiz-adv-x="1880" d="M102 270q0 203 188.5 304.5t545.5 105.5v84q0 133 -68 200.5t-209 67.5q-106 0 -179 -42t-153 -122q-12 -12 -30 -12q-20 0 -45 18.5t-48 49.5q86 102 202 162.5t259 60.5q133 0 228.5 -51.5t142.5 -147.5q66 98 170 148.5t231 50.5q225 0 343 -123t118 -367 q0 -65 -8 -108h-811q4 -227 92 -341t256 -114q129 0 200.5 44t114.5 136q12 29 41 29t93 -41q-39 -135 -154 -211t-295 -76q-143 0 -250.5 59.5t-167.5 176.5q-84 -115 -201.5 -175.5t-261.5 -60.5q-147 0 -245.5 79t-98.5 216zM246 272q0 -182 211 -182q125 0 236.5 74 t162.5 194q-20 88 -20 205q-309 -12 -449.5 -83.5t-140.5 -207.5zM983 659h672q0 172 -77 274.5t-247 102.5q-154 0 -243 -97t-105 -280z" />
<glyph unicode="&#xe7;" horiz-adv-x="1128" d="M82 569q0 176 62.5 306.5t179 201t274.5 70.5q188 0 310 -95.5t143 -258.5q-18 -8 -50 -16.5t-53 -8.5q-20 0 -29.5 11.5t-19.5 47.5q-23 96 -102.5 150.5t-198.5 54.5q-111 0 -196 -57t-131 -162.5t-46 -243.5q0 -217 103.5 -346t277.5 -129q133 0 227.5 62.5 t141.5 183.5q29 0 48 -24.5t19 -57.5q0 -68 -55 -129t-147 -102t-199 -47l-76 -93h15q86 0 139 -43t53 -123q0 -90 -71.5 -140t-176.5 -50q-92 0 -141 22.5t-49 63.5q0 12 6 29q84 -23 172 -23q61 0 96 25.5t35 68.5q0 31 -27.5 54.5t-76.5 23.5q-39 0 -82 -14l-35 65 l104 138q-211 25 -327.5 178t-116.5 407z" />
<glyph unicode="&#xe8;" horiz-adv-x="1146" d="M102 565q0 272 135.5 427t370.5 155q215 0 336 -133t121 -371q0 -47 -4 -94h-815q4 -213 95 -332t253 -119q111 0 187.5 43t127.5 138q14 27 43 26q33 0 90 -39q-45 -133 -165.5 -209.5t-282.5 -76.5q-150 0 -261.5 70.5t-171 202.5t-59.5 312zM250 659h672 q0 369 -320 369q-156 0 -246 -94t-106 -275zM345 1604h170l207 -310h-136z" />
<glyph unicode="&#xe9;" horiz-adv-x="1146" d="M102 565q0 272 135.5 427t370.5 155q215 0 336 -133t121 -371q0 -47 -4 -94h-815q4 -213 95 -332t253 -119q111 0 187.5 43t127.5 138q14 27 43 26q33 0 90 -39q-45 -133 -165.5 -209.5t-282.5 -76.5q-150 0 -261.5 70.5t-171 202.5t-59.5 312zM250 659h672 q0 369 -320 369q-156 0 -246 -94t-106 -275zM452 1294l229 310h174l-268 -310h-135z" />
<glyph unicode="&#xea;" horiz-adv-x="1146" d="M102 565q0 272 135.5 427t370.5 155q215 0 336 -133t121 -371q0 -47 -4 -94h-815q4 -213 95 -332t253 -119q111 0 187.5 43t127.5 138q14 27 43 26q33 0 90 -39q-45 -133 -165.5 -209.5t-282.5 -76.5q-150 0 -261.5 70.5t-171 202.5t-59.5 312zM250 659h672 q0 369 -320 369q-156 0 -246 -94t-106 -275zM283 1294l229 273h150l227 -273h-131l-170 170l-174 -170h-131z" />
<glyph unicode="&#xeb;" horiz-adv-x="1146" d="M102 565q0 272 135.5 427t370.5 155q215 0 336 -133t121 -371q0 -47 -4 -94h-815q4 -213 95 -332t253 -119q111 0 187.5 43t127.5 138q14 27 43 26q33 0 90 -39q-45 -133 -165.5 -209.5t-282.5 -76.5q-150 0 -261.5 70.5t-171 202.5t-59.5 312zM250 659h672 q0 369 -320 369q-156 0 -246 -94t-106 -275zM279 1401v18q0 92 92 92h17q92 0 92 -92v-18q0 -92 -92 -92h-17q-92 0 -92 92zM697 1401v18q0 92 92 92h16q92 0 92 -92v-18q0 -92 -92 -92h-16q-92 0 -92 92z" />
<glyph unicode="&#xec;" horiz-adv-x="589" d="M54 1604h170l207 -310h-136zM225 0v1126h140v-1126h-140z" />
<glyph unicode="&#xed;" horiz-adv-x="589" d="M161 1294l229 310h174l-268 -310h-135zM225 0v1126h140v-1126h-140z" />
<glyph unicode="&#xee;" horiz-adv-x="589" d="M-8 1294l229 273h150l227 -273h-131l-170 170l-174 -170h-131zM225 0v1126h140v-1126h-140z" />
<glyph unicode="&#xef;" horiz-adv-x="589" d="M-12 1401v18q0 92 92 92h17q92 0 92 -92v-18q0 -92 -92 -92h-17q-92 0 -92 92zM225 0v1126h140v-1126h-140zM406 1401v18q0 92 92 92h16q92 0 92 -92v-18q0 -92 -92 -92h-16q-92 0 -92 92z" />
<glyph unicode="&#xf0;" horiz-adv-x="1120" d="M82 563q0 152 46 283t153.5 216t279.5 85q127 0 207 -45q-66 123 -170 227l-182 -110l-70 104l156 94q-68 57 -150 113l94 96q98 -68 179 -135l227 137l68 -106l-199 -121q168 -172 242.5 -376t74.5 -462q0 -254 -112.5 -421t-364.5 -167q-254 0 -366.5 167t-112.5 421z M225 563q0 -233 79 -355t257 -122q176 0 255 122t79 355q0 221 -80 347t-254 126q-176 0 -256 -125t-80 -348z" />
<glyph unicode="&#xf1;" horiz-adv-x="1249" d="M160 1104q66 31 104 31q59 0 60 -119v-19q94 78 189 114t202 36q176 0 263 -95.5t87 -289.5v-500q0 -125 3 -169t15 -79q-49 -25 -106 -24q-31 0 -41 44t-10 175v555q0 143 -53.5 207.5t-172.5 64.5q-184 0 -376 -182v-854h-140v743q0 303 -24 361zM320 1356 q0 74 50 114.5t128 40.5q45 0 78.5 -13t74.5 -38q31 -20 53.5 -29.5t49.5 -9.5q84 0 98 97q39 0 60.5 -17.5t21.5 -44.5q0 -59 -47 -102t-127 -43q-47 0 -82 13t-78 38q-33 20 -57.5 29.5t-52.5 9.5q-80 0 -97 -94q-73 0 -73 49z" />
<glyph unicode="&#xf2;" horiz-adv-x="1122" d="M82 565q0 582 479 582t479 -582q0 -291 -120.5 -438t-358.5 -147q-237 0 -358 147t-121 438zM225 565q0 -244 81 -357.5t255 -113.5t255 114t81 357q0 242 -81 354.5t-255 112.5t-255 -112.5t-81 -354.5zM320 1604h170l207 -310h-136z" />
<glyph unicode="&#xf3;" horiz-adv-x="1122" d="M82 565q0 582 479 582t479 -582q0 -291 -120.5 -438t-358.5 -147q-237 0 -358 147t-121 438zM225 565q0 -244 81 -357.5t255 -113.5t255 114t81 357q0 242 -81 354.5t-255 112.5t-255 -112.5t-81 -354.5zM428 1294l229 310h174l-268 -310h-135z" />
<glyph unicode="&#xf4;" horiz-adv-x="1122" d="M82 565q0 582 479 582t479 -582q0 -291 -120.5 -438t-358.5 -147q-237 0 -358 147t-121 438zM225 565q0 -244 81 -357.5t255 -113.5t255 114t81 357q0 242 -81 354.5t-255 112.5t-255 -112.5t-81 -354.5zM258 1294l229 273h150l227 -273h-131l-170 170l-174 -170h-131z " />
<glyph unicode="&#xf5;" horiz-adv-x="1122" d="M82 565q0 582 479 582t479 -582q0 -291 -120.5 -438t-358.5 -147q-237 0 -358 147t-121 438zM225 565q0 -244 81 -357.5t255 -113.5t255 114t81 357q0 242 -81 354.5t-255 112.5t-255 -112.5t-81 -354.5zM256 1356q0 74 50 114.5t128 40.5q45 0 78.5 -13t74.5 -38 q31 -20 53.5 -29.5t49.5 -9.5q84 0 98 97q39 0 60.5 -17.5t21.5 -44.5q0 -59 -47 -102t-127 -43q-47 0 -82 13t-78 38q-33 20 -57.5 29.5t-52.5 9.5q-80 0 -97 -94q-73 0 -73 49z" />
<glyph unicode="&#xf6;" horiz-adv-x="1122" d="M82 565q0 582 479 582t479 -582q0 -291 -120.5 -438t-358.5 -147q-237 0 -358 147t-121 438zM225 565q0 -244 81 -357.5t255 -113.5t255 114t81 357q0 242 -81 354.5t-255 112.5t-255 -112.5t-81 -354.5zM254 1401v18q0 92 92 92h17q92 0 92 -92v-18q0 -92 -92 -92h-17 q-92 0 -92 92zM672 1401v18q0 92 92 92h16q92 0 92 -92v-18q0 -92 -92 -92h-16q-92 0 -92 92z" />
<glyph unicode="&#xf7;" horiz-adv-x="1228" d="M143 602v123h942v-123h-942zM483 256q0 45 33 78t76 33q45 0 77.5 -33t32.5 -78q0 -41 -32.5 -73.5t-77.5 -32.5q-43 0 -76 32.5t-33 73.5zM483 1079q0 41 33 74t76 33q45 0 77.5 -33t32.5 -74q0 -45 -32.5 -76.5t-77.5 -31.5q-43 0 -76 31.5t-33 76.5z" />
<glyph unicode="&#xf8;" horiz-adv-x="1122" d="M61 0l119 156q-98 145 -98 409q0 582 479 582q193 0 311 -96l58 75h131l-119 -153q98 -143 98 -408q0 -291 -120.5 -438t-358.5 -147q-190 0 -309 96l-59 -76h-132zM225 565q0 -184 45 -293l523 676q-82 84 -232 84q-174 0 -255 -112.5t-81 -354.5zM330 178 q82 -84 231 -84q174 0 255 114t81 357q0 185 -45 289z" />
<glyph unicode="&#xf9;" horiz-adv-x="1247" d="M184 358v768h140v-753q0 -150 55 -216.5t176 -66.5q109 0 204 55.5t159 155.5v825h141v-895q0 -119 31 -217q-43 -25 -89 -24q-43 0 -62 35.5t-21 130.5q-57 -80 -162 -128t-226 -48q-346 0 -346 378zM384 1604h170l207 -310h-136z" />
<glyph unicode="&#xfa;" horiz-adv-x="1247" d="M184 358v768h140v-753q0 -150 55 -216.5t176 -66.5q109 0 204 55.5t159 155.5v825h141v-895q0 -119 31 -217q-43 -25 -89 -24q-43 0 -62 35.5t-21 130.5q-57 -80 -162 -128t-226 -48q-346 0 -346 378zM491 1294l229 310h174l-268 -310h-135z" />
<glyph unicode="&#xfb;" horiz-adv-x="1247" d="M184 358v768h140v-753q0 -150 55 -216.5t176 -66.5q109 0 204 55.5t159 155.5v825h141v-895q0 -119 31 -217q-43 -25 -89 -24q-43 0 -62 35.5t-21 130.5q-57 -80 -162 -128t-226 -48q-346 0 -346 378zM322 1294l229 273h150l227 -273h-131l-170 170l-174 -170h-131z" />
<glyph unicode="&#xfc;" horiz-adv-x="1247" d="M184 358v768h140v-753q0 -150 55 -216.5t176 -66.5q109 0 204 55.5t159 155.5v825h141v-895q0 -119 31 -217q-43 -25 -89 -24q-43 0 -62 35.5t-21 130.5q-57 -80 -162 -128t-226 -48q-346 0 -346 378zM318 1401v18q0 92 92 92h17q92 0 92 -92v-18q0 -92 -92 -92h-17 q-92 0 -92 92zM736 1401v18q0 92 92 92h16q92 0 92 -92v-18q0 -92 -92 -92h-16q-92 0 -92 92z" />
<glyph unicode="&#xfd;" horiz-adv-x="993" d="M2 -311q0 41 35 65q20 -14 62 -24.5t83 -10.5q84 0 144.5 74t103.5 225l-401 1108h147l326 -907l321 907h148l-436 -1212q-57 -162 -144.5 -236.5t-220.5 -74.5q-78 0 -123 23.5t-45 62.5zM364 1294l229 310h174l-268 -310h-135z" />
<glyph unicode="&#xfe;" horiz-adv-x="1247" d="M188 -451v2071h144v-598q131 125 330 125q219 0 350 -134t131 -429q0 -190 -65.5 -327.5t-183.5 -209.5t-269 -72q-160 0 -293 54v-480h-144zM332 152q123 -61 293 -62q172 0 271 128t99 366q0 236 -84 342t-249 106q-188 0 -330 -151v-729z" />
<glyph unicode="&#xff;" horiz-adv-x="993" d="M2 -311q0 41 35 65q20 -14 62 -24.5t83 -10.5q84 0 144.5 74t103.5 225l-401 1108h147l326 -907l321 907h148l-436 -1212q-57 -162 -144.5 -236.5t-220.5 -74.5q-78 0 -123 23.5t-45 62.5zM191 1401v18q0 92 92 92h17q92 0 92 -92v-18q0 -92 -92 -92h-17q-92 0 -92 92z M609 1401v18q0 92 92 92h16q92 0 92 -92v-18q0 -92 -92 -92h-16q-92 0 -92 92z" />
<glyph unicode="&#x100;" horiz-adv-x="1269" d="M31 0q106 438 231 779t297 655h154q170 -311 295 -652.5t231 -781.5h-152q-55 254 -104 416h-696q-49 -162 -105 -416h-151zM301 1564v123h668v-123h-668zM322 539h626q-125 397 -313 745q-188 -348 -313 -745z" />
<glyph unicode="&#x101;" horiz-adv-x="1142" d="M102 272q0 193 187.5 301.5t546.5 124.5v66q0 135 -69 201.5t-208 66.5q-90 0 -167 -38t-165 -126q-12 -12 -30 -12q-20 0 -45 17.5t-48 50.5q92 109 210 166t251 57q190 0 300 -102.5t110 -280.5v-483q0 -95 15.5 -149t53.5 -97q-20 -20 -47.5 -32.5t-52.5 -12.5 q-41 0 -68.5 47t-35.5 129q-63 -86 -170 -136t-224 -50q-156 0 -250 80.5t-94 211.5zM233 1339v123h668v-123h-668zM246 274q0 -180 211 -180q110 0 208.5 61.5t170.5 174.5v254q-590 -25 -590 -310z" />
<glyph unicode="&#x102;" horiz-adv-x="1269" d="M31 0q106 438 231 779t297 655h154q170 -311 295 -652.5t231 -781.5h-152q-55 254 -104 416h-696q-49 -162 -105 -416h-151zM321 1734q0 33 25 54.5t70 21.5q12 -88 65 -139t154 -51q98 0 152.5 54t68.5 146q43 0 68.5 -22.5t25.5 -61.5q0 -59 -38 -108t-109.5 -80 t-167.5 -31q-101 0 -172.5 32t-106.5 82t-35 103zM322 539h626q-125 397 -313 745q-188 -348 -313 -745z" />
<glyph unicode="&#x103;" horiz-adv-x="1142" d="M102 272q0 193 187.5 301.5t546.5 124.5v66q0 135 -69 201.5t-208 66.5q-90 0 -167 -38t-165 -126q-12 -12 -30 -12q-20 0 -45 17.5t-48 50.5q92 109 210 166t251 57q190 0 300 -102.5t110 -280.5v-483q0 -95 15.5 -149t53.5 -97q-20 -20 -47.5 -32.5t-52.5 -12.5 q-41 0 -68.5 47t-35.5 129q-63 -86 -170 -136t-224 -50q-156 0 -250 80.5t-94 211.5zM246 274q0 -180 211 -180q110 0 208.5 61.5t170.5 174.5v254q-590 -25 -590 -310zM253 1509q0 33 25 54.5t70 21.5q12 -88 65 -139t154 -51q98 0 152.5 54t68.5 146q43 0 68.5 -22.5 t25.5 -61.5q0 -59 -38 -108t-109.5 -80t-167.5 -31q-101 0 -172.5 32t-106.5 82t-35 103z" />
<glyph unicode="&#x104;" horiz-adv-x="1269" d="M31 0q106 438 231 779t297 655h154q170 -311 295 -652.5t231 -781.5h-152q-55 254 -104 416h-696q-49 -162 -105 -416h-151zM322 539h626q-125 397 -313 745q-188 -348 -313 -745zM964 -250q0 88 50 146.5t140 103.5h84q-72 -47 -110.5 -107.5t-38.5 -125.5 q0 -51 28.5 -79t79.5 -28q61 0 109 21q12 -18 12 -41q0 -29 -37 -49.5t-104 -20.5q-96 0 -154.5 50t-58.5 130z" />
<glyph unicode="&#x105;" horiz-adv-x="1142" d="M102 272q0 193 187.5 301.5t546.5 124.5v66q0 135 -69 201.5t-208 66.5q-90 0 -167 -38t-165 -126q-12 -12 -30 -12q-20 0 -45 17.5t-48 50.5q92 109 210 166t251 57q190 0 300 -102.5t110 -280.5v-483q0 -94 15.5 -148.5t53.5 -97.5l-16 -15l-4 -4h-4 q-68 -47 -104.5 -106.5t-36.5 -122.5q0 -51 28.5 -78.5t79.5 -27.5q61 0 109 20q12 -18 12 -41q0 -29 -37 -49.5t-104 -20.5q-96 0 -154.5 50.5t-58.5 130.5t40 134t113 95q-55 37 -67 166q-63 -86 -170 -136t-224 -50q-156 0 -250 80.5t-94 211.5zM246 274q0 -180 211 -180 q110 0 208.5 61.5t170.5 174.5v254q-590 -25 -590 -310z" />
<glyph unicode="&#x106;" horiz-adv-x="1220" d="M106 717q0 354 160 545.5t455 191.5q119 0 221 -40t176 -118q-12 -39 -34.5 -59t-51.5 -20t-53 18q-111 86 -262 86q-225 0 -342 -153.5t-117 -450.5q0 -295 117 -448.5t342 -153.5q96 0 173 26.5t152 87.5q27 -2 45.5 -21.5t18.5 -47.5q0 -47 -54.5 -88t-143.5 -66.5 t-187 -25.5q-293 0 -454 192.5t-161 544.5zM587 1519l229 310h174l-268 -310h-135z" />
<glyph unicode="&#x107;" horiz-adv-x="1128" d="M82 569q0 176 62.5 306.5t179 201t274.5 70.5q188 0 310 -95.5t143 -258.5q-18 -8 -50 -16.5t-53 -8.5q-20 0 -29.5 11.5t-19.5 47.5q-23 96 -102.5 150.5t-198.5 54.5q-111 0 -196 -57t-131 -162.5t-46 -243.5q0 -217 103.5 -346t277.5 -129q133 0 227.5 62.5 t141.5 183.5q29 0 48 -24.5t19 -57.5q0 -72 -60 -136.5t-161.5 -103t-214.5 -38.5q-248 0 -386 155.5t-138 433.5zM454 1294l229 310h174l-268 -310h-135z" />
<glyph unicode="&#x108;" horiz-adv-x="1220" d="M106 717q0 354 160 545.5t455 191.5q119 0 221 -40t176 -118q-12 -39 -34.5 -59t-51.5 -20t-53 18q-111 86 -262 86q-225 0 -342 -153.5t-117 -450.5q0 -295 117 -448.5t342 -153.5q96 0 173 26.5t152 87.5q27 -2 45.5 -21.5t18.5 -47.5q0 -47 -54.5 -88t-143.5 -66.5 t-187 -25.5q-293 0 -454 192.5t-161 544.5zM418 1519l229 273h150l227 -273h-131l-170 170l-174 -170h-131z" />
<glyph unicode="&#x109;" horiz-adv-x="1128" d="M82 569q0 176 62.5 306.5t179 201t274.5 70.5q188 0 310 -95.5t143 -258.5q-18 -8 -50 -16.5t-53 -8.5q-20 0 -29.5 11.5t-19.5 47.5q-23 96 -102.5 150.5t-198.5 54.5q-111 0 -196 -57t-131 -162.5t-46 -243.5q0 -217 103.5 -346t277.5 -129q133 0 227.5 62.5 t141.5 183.5q29 0 48 -24.5t19 -57.5q0 -72 -60 -136.5t-161.5 -103t-214.5 -38.5q-248 0 -386 155.5t-138 433.5zM285 1294l229 273h150l227 -273h-131l-170 170l-174 -170h-131z" />
<glyph unicode="&#x10a;" horiz-adv-x="1220" d="M106 717q0 354 160 545.5t455 191.5q119 0 221 -40t176 -118q-12 -39 -34.5 -59t-51.5 -20t-53 18q-111 86 -262 86q-225 0 -342 -153.5t-117 -450.5q0 -295 117 -448.5t342 -153.5q96 0 173 26.5t152 87.5q27 -2 45.5 -21.5t18.5 -47.5q0 -47 -54.5 -88t-143.5 -66.5 t-187 -25.5q-293 0 -454 192.5t-161 544.5zM621 1650v19q0 92 92 92h16q92 0 92 -92v-19q0 -92 -92 -92h-16q-92 0 -92 92z" />
<glyph unicode="&#x10b;" horiz-adv-x="1128" d="M82 569q0 176 62.5 306.5t179 201t274.5 70.5q188 0 310 -95.5t143 -258.5q-18 -8 -50 -16.5t-53 -8.5q-20 0 -29.5 11.5t-19.5 47.5q-23 96 -102.5 150.5t-198.5 54.5q-111 0 -196 -57t-131 -162.5t-46 -243.5q0 -217 103.5 -346t277.5 -129q133 0 227.5 62.5 t141.5 183.5q29 0 48 -24.5t19 -57.5q0 -72 -60 -136.5t-161.5 -103t-214.5 -38.5q-248 0 -386 155.5t-138 433.5zM488 1425v19q0 92 92 92h16q92 0 92 -92v-19q0 -92 -92 -92h-16q-92 0 -92 92z" />
<glyph unicode="&#x10c;" horiz-adv-x="1220" d="M106 717q0 354 160 545.5t455 191.5q119 0 221 -40t176 -118q-12 -39 -34.5 -59t-51.5 -20t-53 18q-111 86 -262 86q-225 0 -342 -153.5t-117 -450.5q0 -295 117 -448.5t342 -153.5q96 0 173 26.5t152 87.5q27 -2 45.5 -21.5t18.5 -47.5q0 -47 -54.5 -88t-143.5 -66.5 t-187 -25.5q-293 0 -454 192.5t-161 544.5zM428 1812h111l184 -176l180 176h111l-217 -268h-150z" />
<glyph unicode="&#x10d;" horiz-adv-x="1128" d="M82 569q0 176 62.5 306.5t179 201t274.5 70.5q188 0 310 -95.5t143 -258.5q-18 -8 -50 -16.5t-53 -8.5q-20 0 -29.5 11.5t-19.5 47.5q-23 96 -102.5 150.5t-198.5 54.5q-111 0 -196 -57t-131 -162.5t-46 -243.5q0 -217 103.5 -346t277.5 -129q133 0 227.5 62.5 t141.5 183.5q29 0 48 -24.5t19 -57.5q0 -72 -60 -136.5t-161.5 -103t-214.5 -38.5q-248 0 -386 155.5t-138 433.5zM295 1587h111l184 -176l180 176h111l-217 -268h-150z" />
<glyph unicode="&#x10e;" horiz-adv-x="1376" d="M176 0v1434h424q318 0 489 -185.5t171 -531.5q0 -221 -79 -383t-227.5 -248t-353.5 -86h-424zM324 123h276q250 0 379 150.5t129 441.5q0 301 -126 448.5t-382 147.5h-276v-1188zM395 1812h111l184 -176l180 176h111l-217 -268h-150z" />
<glyph unicode="&#x10f;" horiz-adv-x="1404" d="M82 559q0 279 136 433.5t380 154.5q76 0 161 -27.5t140 -68.5v569h139v-1358q0 -65 8.5 -133t20.5 -113q-51 -25 -94 -24q-55 0 -70 139q-68 -82 -147.5 -116.5t-196.5 -34.5q-223 0 -350 154.5t-127 424.5zM225 559q0 -225 88 -345t256 -120q105 0 185 43t145 133v645 q-49 51 -134 86t-167 35q-180 0 -276.5 -122.5t-96.5 -354.5zM1141 1032q109 92 108 185q0 88 -71 147q0 39 25.5 64.5t68.5 25.5q49 0 79.5 -35t30.5 -104q0 -131 -90 -244q-23 -29 -50 -49.5t-52 -20.5q-22 0 -49 31z" />
<glyph unicode="&#x110;" horiz-adv-x="1376" d="M2 670v116h174v648h424q318 0 489 -185.5t171 -531.5q0 -221 -79 -383t-227.5 -248t-353.5 -86h-424v670h-174zM324 123h276q250 0 379 150.5t129 441.5q0 301 -126 448.5t-382 147.5h-276v-525h385v-116h-385v-547z" />
<glyph unicode="&#x111;" horiz-adv-x="1232" d="M82 559q0 279 136 433.5t380 154.5q76 0 161 -27.5t140 -68.5v280h-303v103h303v186h139v-186h195v-103h-195v-1069q0 -66 8.5 -133.5t20.5 -112.5q-51 -25 -94 -24q-55 0 -70 139q-68 -82 -147.5 -116.5t-196.5 -34.5q-223 0 -350 154.5t-127 424.5zM225 559 q0 -225 88 -345t256 -120q105 0 185 43t145 133v645q-49 51 -134 86t-167 35q-180 0 -276.5 -122.5t-96.5 -354.5z" />
<glyph unicode="&#x112;" horiz-adv-x="1146" d="M176 0v1434h856v-123h-708v-516h610v-123h-610v-549h710q0 -74 -21.5 -98.5t-84.5 -24.5h-752zM239 1564v123h668v-123h-668z" />
<glyph unicode="&#x113;" horiz-adv-x="1146" d="M102 565q0 272 135.5 427t370.5 155q215 0 336 -133t121 -371q0 -47 -4 -94h-815q4 -213 95 -332t253 -119q111 0 187.5 43t127.5 138q14 27 43 26q33 0 90 -39q-45 -133 -165.5 -209.5t-282.5 -76.5q-150 0 -261.5 70.5t-171 202.5t-59.5 312zM250 659h672 q0 369 -320 369q-156 0 -246 -94t-106 -275zM252 1339v123h668v-123h-668z" />
<glyph unicode="&#x114;" horiz-adv-x="1146" d="M176 0v1434h856v-123h-708v-516h610v-123h-610v-549h710q0 -74 -21.5 -98.5t-84.5 -24.5h-752zM259 1734q0 33 25 54.5t70 21.5q12 -88 65 -139t154 -51q98 0 152.5 54t68.5 146q43 0 68.5 -22.5t25.5 -61.5q0 -59 -38 -108t-109.5 -80t-167.5 -31q-101 0 -172.5 32 t-106.5 82t-35 103z" />
<glyph unicode="&#x115;" horiz-adv-x="1146" d="M102 565q0 272 135.5 427t370.5 155q215 0 336 -133t121 -371q0 -47 -4 -94h-815q4 -213 95 -332t253 -119q111 0 187.5 43t127.5 138q14 27 43 26q33 0 90 -39q-45 -133 -165.5 -209.5t-282.5 -76.5q-150 0 -261.5 70.5t-171 202.5t-59.5 312zM250 659h672 q0 369 -320 369q-156 0 -246 -94t-106 -275zM272 1509q0 33 25 54.5t70 21.5q12 -88 65 -139t154 -51q98 0 152.5 54t68.5 146q43 0 68.5 -22.5t25.5 -61.5q0 -59 -38 -108t-109.5 -80t-167.5 -31q-101 0 -172.5 32t-106.5 82t-35 103z" />
<glyph unicode="&#x116;" horiz-adv-x="1146" d="M176 0v1434h856v-123h-708v-516h610v-123h-610v-549h710q0 -74 -21.5 -98.5t-84.5 -24.5h-752zM473 1650v19q0 92 92 92h16q92 0 92 -92v-19q0 -92 -92 -92h-16q-92 0 -92 92z" />
<glyph unicode="&#x117;" horiz-adv-x="1146" d="M102 565q0 272 135.5 427t370.5 155q215 0 336 -133t121 -371q0 -47 -4 -94h-815q4 -213 95 -332t253 -119q111 0 187.5 43t127.5 138q14 27 43 26q33 0 90 -39q-45 -133 -165.5 -209.5t-282.5 -76.5q-150 0 -261.5 70.5t-171 202.5t-59.5 312zM250 659h672 q0 369 -320 369q-156 0 -246 -94t-106 -275zM486 1425v19q0 92 92 92h16q92 0 92 -92v-19q0 -92 -92 -92h-16q-92 0 -92 92z" />
<glyph unicode="&#x118;" horiz-adv-x="1146" d="M176 0v1434h856v-123h-708v-516h610v-123h-610v-549h710q0 -51 -9 -78t-34 -37q-63 -45 -98 -102.5t-35 -118.5q0 -51 28.5 -78.5t80.5 -27.5q61 0 108 20q12 -18 12 -41q0 -29 -36.5 -49.5t-104.5 -20.5q-96 0 -154.5 50.5t-58.5 130.5q0 78 40 132t112 97h-709z" />
<glyph unicode="&#x119;" horiz-adv-x="1146" d="M102 565q0 272 135.5 427t370.5 155q215 0 336 -133t121 -371q0 -47 -4 -94h-815q4 -213 95 -332t253 -119q111 0 187.5 43t127.5 138q14 27 43 26q33 0 90 -39q-29 -88 -94 -152.5t-157 -99.5q-66 -47 -103 -105.5t-37 -121.5q0 -51 29 -78.5t80 -27.5q61 0 108 20 q12 -18 13 -41q0 -29 -37 -49.5t-105 -20.5q-96 0 -154.5 50.5t-58.5 130.5q0 70 32 121t91 90q-18 -2 -55 -2q-150 0 -261.5 70.5t-171 202.5t-59.5 312zM250 659h672q0 369 -320 369q-156 0 -246 -94t-106 -275z" />
<glyph unicode="&#x11a;" horiz-adv-x="1146" d="M176 0v1434h856v-123h-708v-516h610v-123h-610v-549h710q0 -74 -21.5 -98.5t-84.5 -24.5h-752zM281 1812h111l184 -176l180 176h111l-217 -268h-150z" />
<glyph unicode="&#x11b;" horiz-adv-x="1146" d="M102 565q0 272 135.5 427t370.5 155q215 0 336 -133t121 -371q0 -47 -4 -94h-815q4 -213 95 -332t253 -119q111 0 187.5 43t127.5 138q14 27 43 26q33 0 90 -39q-45 -133 -165.5 -209.5t-282.5 -76.5q-150 0 -261.5 70.5t-171 202.5t-59.5 312zM250 659h672 q0 369 -320 369q-156 0 -246 -94t-106 -275zM293 1587h111l184 -176l180 176h111l-217 -268h-150z" />
<glyph unicode="&#x11c;" horiz-adv-x="1363" d="M127 717q0 354 167 545.5t478 191.5q145 0 270 -54t189 -145q-41 -72 -90 -71q-33 0 -68 28q-70 59 -141.5 86t-161.5 27q-242 0 -366.5 -154.5t-124.5 -453.5q0 -307 121.5 -457.5t369.5 -150.5q102 0 190.5 26.5t129.5 71.5v430h-289q-41 0 -58.5 28.5t-17.5 98.5h512 v-614q-76 -78 -202 -124t-263 -46q-317 0 -481 187t-164 550zM469 1519l229 273h150l227 -273h-131l-170 170l-174 -170h-131z" />
<glyph unicode="&#x11d;" horiz-adv-x="1198" d="M102 -123q0 82 56.5 145.5t156.5 94.5v6q-61 16 -98 60t-37 106q0 51 41 91t111 54q-88 49 -136.5 130t-48.5 181q0 401 463 402q145 0 248 -64q51 47 111.5 75t115.5 28q37 0 54.5 -19.5t17.5 -62.5q0 -12 -4 -49q-152 0 -211 -41q82 -98 82 -244q0 -393 -453 -393 q-139 0 -203.5 -19.5t-64.5 -60.5q0 -92 330 -92q231 0 358 -78t127 -221q0 -154 -136 -237t-390 -83q-240 0 -365 74t-125 217zM248 -106q0 -94 88 -143.5t256 -49.5q188 0 284.5 48t96.5 145q0 98 -87 141t-286 43q-174 0 -263 -47t-89 -137zM291 762q0 -270 293 -270 q157 0 226 62t69 208q0 143 -70 208.5t-225 65.5q-152 0 -222.5 -66.5t-70.5 -207.5zM297 1294l229 273h150l227 -273h-131l-170 170l-174 -170h-131z" />
<glyph unicode="&#x11e;" horiz-adv-x="1363" d="M127 717q0 354 167 545.5t478 191.5q145 0 270 -54t189 -145q-41 -72 -90 -71q-33 0 -68 28q-70 59 -141.5 86t-161.5 27q-242 0 -366.5 -154.5t-124.5 -453.5q0 -307 121.5 -457.5t369.5 -150.5q102 0 190.5 26.5t129.5 71.5v430h-289q-41 0 -58.5 28.5t-17.5 98.5h512 v-614q-76 -78 -202 -124t-263 -46q-317 0 -481 187t-164 550zM458 1734q0 33 25 54.5t70 21.5q12 -88 65 -139t154 -51q98 0 152.5 54t68.5 146q43 0 68.5 -22.5t25.5 -61.5q0 -59 -38 -108t-109.5 -80t-167.5 -31q-101 0 -172.5 32t-106.5 82t-35 103z" />
<glyph unicode="&#x11f;" horiz-adv-x="1198" d="M102 -123q0 82 56.5 145.5t156.5 94.5v6q-61 16 -98 60t-37 106q0 51 41 91t111 54q-88 49 -136.5 130t-48.5 181q0 401 463 402q145 0 248 -64q51 47 111.5 75t115.5 28q37 0 54.5 -19.5t17.5 -62.5q0 -12 -4 -49q-152 0 -211 -41q82 -98 82 -244q0 -393 -453 -393 q-139 0 -203.5 -19.5t-64.5 -60.5q0 -92 330 -92q231 0 358 -78t127 -221q0 -154 -136 -237t-390 -83q-240 0 -365 74t-125 217zM248 -106q0 -94 88 -143.5t256 -49.5q188 0 284.5 48t96.5 145q0 98 -87 141t-286 43q-174 0 -263 -47t-89 -137zM286 1509q0 33 25 54.5 t70 21.5q12 -88 65 -139t154 -51q98 0 152.5 54t68.5 146q43 0 68.5 -22.5t25.5 -61.5q0 -59 -38 -108t-109.5 -80t-167.5 -31q-101 0 -172.5 32t-106.5 82t-35 103zM291 762q0 -270 293 -270q157 0 226 62t69 208q0 143 -70 208.5t-225 65.5q-152 0 -222.5 -66.5 t-70.5 -207.5z" />
<glyph unicode="&#x120;" horiz-adv-x="1363" d="M127 717q0 354 167 545.5t478 191.5q145 0 270 -54t189 -145q-41 -72 -90 -71q-33 0 -68 28q-70 59 -141.5 86t-161.5 27q-242 0 -366.5 -154.5t-124.5 -453.5q0 -307 121.5 -457.5t369.5 -150.5q102 0 190.5 26.5t129.5 71.5v430h-289q-41 0 -58.5 28.5t-17.5 98.5h512 v-614q-76 -78 -202 -124t-263 -46q-317 0 -481 187t-164 550zM672 1650v19q0 92 92 92h16q92 0 92 -92v-19q0 -92 -92 -92h-16q-92 0 -92 92z" />
<glyph unicode="&#x121;" horiz-adv-x="1198" d="M102 -123q0 82 56.5 145.5t156.5 94.5v6q-61 16 -98 60t-37 106q0 51 41 91t111 54q-88 49 -136.5 130t-48.5 181q0 401 463 402q145 0 248 -64q51 47 111.5 75t115.5 28q37 0 54.5 -19.5t17.5 -62.5q0 -12 -4 -49q-152 0 -211 -41q82 -98 82 -244q0 -393 -453 -393 q-139 0 -203.5 -19.5t-64.5 -60.5q0 -92 330 -92q231 0 358 -78t127 -221q0 -154 -136 -237t-390 -83q-240 0 -365 74t-125 217zM248 -106q0 -94 88 -143.5t256 -49.5q188 0 284.5 48t96.5 145q0 98 -87 141t-286 43q-174 0 -263 -47t-89 -137zM291 762q0 -270 293 -270 q157 0 226 62t69 208q0 143 -70 208.5t-225 65.5q-152 0 -222.5 -66.5t-70.5 -207.5zM500 1425v19q0 92 92 92h16q92 0 92 -92v-19q0 -92 -92 -92h-16q-92 0 -92 92z" />
<glyph unicode="&#x122;" horiz-adv-x="1363" d="M127 717q0 354 167 545.5t478 191.5q145 0 270 -54t189 -145q-41 -72 -90 -71q-33 0 -68 28q-70 59 -141.5 86t-161.5 27q-242 0 -366.5 -154.5t-124.5 -453.5q0 -307 121.5 -457.5t369.5 -150.5q102 0 190.5 26.5t129.5 71.5v430h-289q-41 0 -58.5 28.5t-17.5 98.5h512 v-614q-76 -78 -202 -124t-263 -46q-317 0 -481 187t-164 550zM655 -592q55 68 86 126t41 126h-10q-39 0 -61.5 24.5t-22.5 65.5v23q0 41 23.5 65.5t62.5 24.5h25q41 0 65.5 -25.5t24.5 -71.5v-22q0 -72 -24.5 -144.5t-61.5 -129.5q-53 -82 -90 -82q-33 0 -58 20z" />
<glyph unicode="&#x123;" horiz-adv-x="1198" d="M102 -123q0 82 56.5 145.5t156.5 94.5v6q-61 16 -98 60t-37 106q0 51 41 91t111 54q-88 49 -136.5 130t-48.5 181q0 401 463 402q145 0 248 -64q51 47 111.5 75t115.5 28q37 0 54.5 -19.5t17.5 -62.5q0 -12 -4 -49q-152 0 -211 -41q82 -98 82 -244q0 -393 -453 -393 q-139 0 -203.5 -19.5t-64.5 -60.5q0 -92 330 -92q231 0 358 -78t127 -221q0 -154 -136 -237t-390 -83q-240 0 -365 74t-125 217zM248 -106q0 -94 88 -143.5t256 -49.5q188 0 284.5 48t96.5 145q0 98 -87 141t-286 43q-174 0 -263 -47t-89 -137zM291 762q0 -270 293 -270 q157 0 226 62t69 208q0 143 -70 208.5t-225 65.5q-152 0 -222.5 -66.5t-70.5 -207.5zM498 1442q0 123 90 244q23 29 50.5 49t51.5 20q25 0 50 -30q-109 -92 -109 -185q0 -88 72 -147q0 -39 -25.5 -64.5t-68.5 -25.5q-50 0 -80.5 34.5t-30.5 104.5z" />
<glyph unicode="&#x124;" horiz-adv-x="1392" d="M176 0v1434h148v-635h745v635h148v-1434h-148v676h-745v-676h-148zM393 1519l229 273h150l227 -273h-131l-170 170l-174 -170h-131z" />
<glyph unicode="&#x125;" horiz-adv-x="1290" d="M-47 1622l229 273h150l227 -273h-131l-170 170l-174 -170h-131zM186 0v1620h140v-608q90 66 192.5 100.5t204.5 34.5q176 0 278.5 -101.5t102.5 -275.5v-770h-139v756q0 133 -65.5 204.5t-188.5 71.5q-94 0 -198.5 -42t-186.5 -111v-879h-140z" />
<glyph unicode="&#x126;" horiz-adv-x="1392" d="M20 1073v123h156v238h148v-238h745v238h148v-238h155v-123h-155v-1073h-148v676h-745v-676h-148v1073h-156zM324 799h745v274h-745v-274z" />
<glyph unicode="&#x127;" horiz-adv-x="1310" d="M20 1329v113h187v178h139v-178h287v-113h-287v-317q90 66 192.5 100.5t204.5 34.5q177 0 279 -101.5t102 -275.5v-770h-139v756q0 133 -65.5 204.5t-188.5 71.5q-94 0 -198.5 -42t-186.5 -111v-879h-139v1329h-187z" />
<glyph unicode="&#x128;" horiz-adv-x="716" d="M53 1581q0 74 50 114.5t128 40.5q45 0 78.5 -13t74.5 -38q31 -20 53.5 -29.5t49.5 -9.5q84 0 98 97q39 0 60.5 -17.5t21.5 -44.5q0 -59 -47 -102t-127 -43q-47 0 -82 13t-78 38q-33 20 -57.5 29.5t-52.5 9.5q-80 0 -97 -94q-73 0 -73 49zM285 0v1434h147v-1434h-147z" />
<glyph unicode="&#x129;" horiz-adv-x="589" d="M-10 1356q0 74 50 114.5t128 40.5q45 0 78.5 -13t74.5 -38q31 -20 53.5 -29.5t49.5 -9.5q84 0 98 97q39 0 60.5 -17.5t21.5 -44.5q0 -59 -47 -102t-127 -43q-47 0 -82 13t-78 38q-33 20 -57.5 29.5t-52.5 9.5q-80 0 -97 -94q-73 0 -73 49zM225 0v1126h140v-1126h-140z " />
<glyph unicode="&#x12a;" horiz-adv-x="716" d="M24 1564v123h668v-123h-668zM285 0v1434h147v-1434h-147z" />
<glyph unicode="&#x12b;" horiz-adv-x="589" d="M-39 1339v123h668v-123h-668zM225 0v1126h140v-1126h-140z" />
<glyph unicode="&#x12c;" horiz-adv-x="716" d="M44 1734q0 33 25 54.5t70 21.5q12 -88 65 -139t154 -51q98 0 152.5 54t68.5 146q43 0 68.5 -22.5t25.5 -61.5q0 -59 -38 -108t-109.5 -80t-167.5 -31q-101 0 -172.5 32t-106.5 82t-35 103zM285 0v1434h147v-1434h-147z" />
<glyph unicode="&#x12d;" horiz-adv-x="589" d="M-19 1509q0 33 25 54.5t70 21.5q12 -88 65 -139t154 -51q98 0 152.5 54t68.5 146q43 0 68.5 -22.5t25.5 -61.5q0 -59 -38 -108t-109.5 -80t-167.5 -31q-101 0 -172.5 32t-106.5 82t-35 103zM225 0v1126h140v-1126h-140z" />
<glyph unicode="&#x12e;" horiz-adv-x="716" d="M157 -250q0 88 50 146.5t140 103.5h84q-72 -47 -110.5 -107.5t-38.5 -125.5q0 -51 28.5 -79t79.5 -28q61 0 109 21q12 -18 12 -41q0 -29 -37 -49.5t-104 -20.5q-96 0 -154.5 50t-58.5 130zM285 0v1434h147v-1434h-147z" />
<glyph unicode="&#x12f;" horiz-adv-x="589" d="M90 -250q0 88 50 146.5t140 103.5h84q-72 -47 -110.5 -107.5t-38.5 -125.5q0 -51 28.5 -79t79.5 -28q61 0 109 21q12 -18 12 -41q0 -29 -37 -49.5t-104 -20.5q-96 0 -154.5 50t-58.5 130zM195 1425v19q0 92 92 92h16q92 0 92 -92v-19q0 -92 -92 -92h-16q-92 0 -92 92z M225 0v1126h140v-1126h-140z" />
<glyph unicode="&#x130;" horiz-adv-x="716" d="M258 1650v19q0 92 92 92h16q92 0 92 -92v-19q0 -92 -92 -92h-16q-92 0 -92 92zM285 0v1434h147v-1434h-147z" />
<glyph unicode="&#x131;" horiz-adv-x="589" d="M225 0v1126h140v-1126h-140z" />
<glyph unicode="&#x132;" horiz-adv-x="1427" d="M285 0v1434h147v-1434h-147zM602 35q0 55 15.5 81.5t39.5 26.5q8 0 70 -18.5t131 -18.5q242 0 242 269v1059h147v-1059q0 -184 -105.5 -289.5t-287.5 -105.5q-70 0 -142.5 17t-109.5 38z" />
<glyph unicode="&#x133;" horiz-adv-x="1142" d="M195 1425v19q0 92 92 92h16q92 0 92 -92v-19q0 -92 -92 -92h-16q-92 0 -92 92zM225 0v1126h140v-1126h-140zM477 -301q0 25 10.5 43t22.5 18q66 -35 156 -34q61 0 95 36.5t34 110.5v1253h139v-1235q0 -139 -71.5 -211.5t-202.5 -72.5q-41 0 -91.5 12t-72.5 35 q-18 18 -19 45zM764 1425v19q0 92 92 92h16q92 0 92 -92v-19q0 -92 -92 -92h-16q-92 0 -92 92z" />
<glyph unicode="&#x134;" horiz-adv-x="874" d="M49 35q0 55 15.5 81.5t39.5 26.5q8 0 70 -18.5t131 -18.5q242 0 242 269v1059h147v-1059q0 -184 -105.5 -289.5t-287.5 -105.5q-70 0 -142.5 17t-109.5 38zM318 1519l229 273h150l227 -273h-131l-170 170l-174 -170h-131z" />
<glyph unicode="&#x135;" horiz-adv-x="552" d="M-113 -301q0 25 10.5 43t22.5 18q66 -35 156 -34q61 0 95 36.5t34 110.5v1253h139v-1235q0 -139 -71.5 -211.5t-202.5 -72.5q-41 0 -91.5 12t-72.5 35q-18 18 -19 45zM-29 1294l229 273h150l227 -273h-131l-170 170l-174 -170h-131z" />
<glyph unicode="&#x136;" horiz-adv-x="1249" d="M205 0v1434h147v-631h121q37 0 55 -2l484 633h170l-523 -674q86 -47 164 -168l375 -586q-41 -23 -88 -22q-37 0 -58.5 13t-43.5 48l-312 504q-47 76 -99 101.5t-165 25.5h-80v-676h-147zM548 -592q55 68 86 126t41 126h-10q-39 0 -61.5 24.5t-22.5 65.5v23 q0 41 23.5 65.5t62.5 24.5h25q41 0 65.5 -25.5t24.5 -71.5v-22q0 -72 -24.5 -144.5t-61.5 -129.5q-53 -82 -90 -82q-33 0 -58 20z" />
<glyph unicode="&#x137;" horiz-adv-x="1210" d="M186 0v1620h140v-956l80 2q43 2 73.5 17t55.5 48l307 395h172l-365 -446q-4 -4 -18.5 -21.5t-36.5 -29.5q100 -27 145 -99l344 -530q-35 0 -79 -4q-37 -4 -46 -4q-39 0 -59 33l-264 426q-59 96 -215 90l-94 -4v-537h-140zM489 -592q55 68 86 126t41 126h-10 q-39 0 -61.5 24.5t-22.5 65.5v23q0 41 23.5 65.5t62.5 24.5h25q41 0 65.5 -25.5t24.5 -71.5v-22q0 -72 -24.5 -144.5t-61.5 -129.5q-53 -82 -90 -82q-33 0 -58 20z" />
<glyph unicode="&#x138;" horiz-adv-x="1210" d="M186 0v1126h140v-503l80 2q45 2 75.5 17t53.5 48l307 436h172l-379 -503q-2 -2 -29 -35q84 -29 133 -99l328 -458q-68 -31 -111 -31q-39 0 -61 31l-262 379q-33 47 -84 69.5t-129 22.5l-94 -6v-496h-140z" />
<glyph unicode="&#x139;" horiz-adv-x="1050" d="M116 1519l229 310h174l-268 -310h-135zM176 0v1434h148v-1311h696v-123h-844z" />
<glyph unicode="&#x13a;" horiz-adv-x="548" d="M141 1704l229 310h174l-268 -310h-135zM205 0v1620h139v-1620h-139z" />
<glyph unicode="&#x13b;" horiz-adv-x="1050" d="M176 0v1434h148v-1311h696v-123h-844zM481 -592q55 68 86 126t41 126h-10q-39 0 -61.5 24.5t-22.5 65.5v23q0 41 23.5 65.5t62.5 24.5h25q41 0 65.5 -25.5t24.5 -71.5v-22q0 -72 -24.5 -144.5t-61.5 -129.5q-53 -82 -90 -82q-33 0 -58 20z" />
<glyph unicode="&#x13c;" horiz-adv-x="548" d="M157 -592q55 68 86 126t41 126h-10q-39 0 -61.5 24.5t-22.5 65.5v23q0 41 23.5 65.5t62.5 24.5h25q41 0 65.5 -25.5t24.5 -71.5v-22q0 -72 -24.5 -144.5t-61.5 -129.5q-53 -82 -90 -82q-33 0 -58 20zM205 0v1620h139v-1620h-139z" />
<glyph unicode="&#x13d;" horiz-adv-x="1222" d="M176 0v1434h148v-1311h696v-123h-844zM795 1032q109 92 108 185q0 88 -71 147q0 39 25.5 64.5t68.5 25.5q49 0 79.5 -35t30.5 -104q0 -131 -90 -244q-23 -29 -50 -49.5t-52 -20.5q-22 0 -49 31z" />
<glyph unicode="&#x13e;" horiz-adv-x="874" d="M205 0v1620h139v-1620h-139zM565 1032q109 92 108 185q0 88 -71 147q0 39 25.5 64.5t68.5 25.5q49 0 79.5 -35t30.5 -104q0 -131 -90 -244q-23 -29 -50 -49.5t-52 -20.5q-22 0 -49 31z" />
<glyph unicode="&#x13f;" horiz-adv-x="1050" d="M176 0v1434h148v-1311h696v-123h-844zM627 724v19q0 92 92 92h17q92 0 92 -92v-19q0 -92 -92 -92h-17q-92 0 -92 92z" />
<glyph unicode="&#x140;" horiz-adv-x="851" d="M205 0v1620h139v-1620h-139zM512 681v19q0 92 92 92h17q92 0 92 -92v-19q0 -92 -92 -92h-17q-92 0 -92 92z" />
<glyph unicode="&#x141;" horiz-adv-x="1120" d="M35 649v142l182 73v570h148v-512l391 157v-141l-391 -158v-657h696v-123h-844v723z" />
<glyph unicode="&#x142;" horiz-adv-x="548" d="M0 655v144l205 94v727h139v-662l205 95v-142l-205 -96v-815h-139v752z" />
<glyph unicode="&#x143;" horiz-adv-x="1413" d="M176 0v1434h119q27 0 42 -7.5t36 -33.5l708 -932v973h148v-1153q0 -64 4 -150q4 -57 4 -76q0 -55 -53 -55h-103v111q0 119 -80 227l-677 893v-1231h-148zM571 1519l229 310h174l-268 -310h-135z" />
<glyph unicode="&#x144;" horiz-adv-x="1249" d="M160 1104q66 31 104 31q59 0 60 -119v-19q94 78 189 114t202 36q176 0 263 -95.5t87 -289.5v-500q0 -125 3 -169t15 -79q-49 -25 -106 -24q-31 0 -41 44t-10 175v555q0 143 -53.5 207.5t-172.5 64.5q-184 0 -376 -182v-854h-140v743q0 303 -24 361zM491 1294l229 310h174 l-268 -310h-135z" />
<glyph unicode="&#x145;" horiz-adv-x="1413" d="M176 0v1434h119q27 0 42 -7.5t36 -33.5l708 -932v973h148v-1153q0 -64 4 -150q4 -57 4 -76q0 -55 -53 -55h-103v111q0 119 -80 227l-677 893v-1231h-148zM587 -592q55 68 86 126t41 126h-10q-39 0 -61.5 24.5t-22.5 65.5v23q0 41 23.5 65.5t62.5 24.5h25q41 0 65.5 -25.5 t24.5 -71.5v-22q0 -72 -24.5 -144.5t-61.5 -129.5q-53 -82 -90 -82q-33 0 -58 20z" />
<glyph unicode="&#x146;" horiz-adv-x="1249" d="M160 1104q66 31 104 31q59 0 60 -119v-19q94 78 189 114t202 36q176 0 263 -95.5t87 -289.5v-500q0 -125 3 -169t15 -79q-49 -25 -106 -24q-31 0 -41 44t-10 175v555q0 143 -53.5 207.5t-172.5 64.5q-184 0 -376 -182v-854h-140v743q0 303 -24 361zM507 -592 q55 68 86 126t41 126h-10q-39 0 -61.5 24.5t-22.5 65.5v23q0 41 23.5 65.5t62.5 24.5h25q41 0 65.5 -25.5t24.5 -71.5v-22q0 -72 -24.5 -144.5t-61.5 -129.5q-53 -82 -90 -82q-33 0 -58 20z" />
<glyph unicode="&#x147;" horiz-adv-x="1413" d="M176 0v1434h119q27 0 42 -7.5t36 -33.5l708 -932v973h148v-1153q0 -64 4 -150q4 -57 4 -76q0 -55 -53 -55h-103v111q0 119 -80 227l-677 893v-1231h-148zM412 1812h111l184 -176l180 176h111l-217 -268h-150z" />
<glyph unicode="&#x148;" horiz-adv-x="1249" d="M160 1104q66 31 104 31q59 0 60 -119v-19q94 78 189 114t202 36q176 0 263 -95.5t87 -289.5v-500q0 -125 3 -169t15 -79q-49 -25 -106 -24q-31 0 -41 44t-10 175v555q0 143 -53.5 207.5t-172.5 64.5q-184 0 -376 -182v-854h-140v743q0 303 -24 361zM332 1587h111 l184 -176l180 176h111l-217 -268h-150z" />
<glyph unicode="&#x149;" horiz-adv-x="1249" d="M-147 1222q109 92 108 185q0 88 -71 147q0 39 25.5 64.5t68.5 25.5q49 0 79.5 -35t30.5 -104q0 -131 -90 -244q-23 -29 -50 -49.5t-52 -20.5q-22 0 -49 31zM160 1104q66 31 104 31q59 0 60 -119v-19q94 78 189 114t202 36q176 0 263 -95.5t87 -289.5v-500q0 -125 3 -169 t15 -79q-49 -25 -106 -24q-31 0 -41 44t-10 175v555q0 143 -53.5 207.5t-172.5 64.5q-184 0 -376 -182v-854h-140v743q0 303 -24 361z" />
<glyph unicode="&#x14a;" horiz-adv-x="1402" d="M176 0v1434h119q27 0 42 -7.5t36 -33.5l706 -932v973h148v-1502q0 -154 -87 -239.5t-235 -85.5q-63 0 -122.5 23.5t-59.5 68.5q0 23 11 41t22 18q76 -33 166 -32q74 0 115.5 48t41.5 140v197q0 121 -80 227l-675 893v-1231h-148z" />
<glyph unicode="&#x14b;" horiz-adv-x="1247" d="M160 1094q66 31 104 30q59 0 60 -118v-9q84 72 179 111t212 39q176 0 263 -95.5t87 -289.5v-830q0 -156 -84 -240.5t-231 -84.5q-63 0 -123 23.5t-60 68.5q0 23 11.5 41t21.5 18q76 -33 166 -32q76 0 118 49t42 139v850q0 143 -53.5 207.5t-172.5 64.5q-190 0 -376 -182 v-854h-140v743q0 287 -24 351z" />
<glyph unicode="&#x14c;" horiz-adv-x="1392" d="M98 725q0 352 155 540.5t443 188.5q289 0 443.5 -188.5t154.5 -540.5q0 -360 -154.5 -552.5t-443.5 -192.5q-288 0 -443 192.5t-155 552.5zM250 725q0 -305 112.5 -459.5t333.5 -154.5q222 0 334.5 154.5t112.5 459.5q0 598 -447 598q-446 0 -446 -598zM362 1564v123h668 v-123h-668z" />
<glyph unicode="&#x14d;" horiz-adv-x="1122" d="M82 565q0 582 479 582t479 -582q0 -291 -120.5 -438t-358.5 -147q-237 0 -358 147t-121 438zM225 565q0 -244 81 -357.5t255 -113.5t255 114t81 357q0 242 -81 354.5t-255 112.5t-255 -112.5t-81 -354.5zM227 1339v123h668v-123h-668z" />
<glyph unicode="&#x14e;" horiz-adv-x="1392" d="M98 725q0 352 155 540.5t443 188.5q289 0 443.5 -188.5t154.5 -540.5q0 -360 -154.5 -552.5t-443.5 -192.5q-288 0 -443 192.5t-155 552.5zM250 725q0 -305 112.5 -459.5t333.5 -154.5q222 0 334.5 154.5t112.5 459.5q0 598 -447 598q-446 0 -446 -598zM382 1734 q0 33 25 54.5t70 21.5q12 -88 65 -139t154 -51q98 0 152.5 54t68.5 146q43 0 68.5 -22.5t25.5 -61.5q0 -59 -38 -108t-109.5 -80t-167.5 -31q-101 0 -172.5 32t-106.5 82t-35 103z" />
<glyph unicode="&#x14f;" horiz-adv-x="1122" d="M82 565q0 582 479 582t479 -582q0 -291 -120.5 -438t-358.5 -147q-237 0 -358 147t-121 438zM225 565q0 -244 81 -357.5t255 -113.5t255 114t81 357q0 242 -81 354.5t-255 112.5t-255 -112.5t-81 -354.5zM247 1509q0 33 25 54.5t70 21.5q12 -88 65 -139t154 -51 q98 0 152.5 54t68.5 146q43 0 68.5 -22.5t25.5 -61.5q0 -59 -38 -108t-109.5 -80t-167.5 -31q-101 0 -172.5 32t-106.5 82t-35 103z" />
<glyph unicode="&#x150;" horiz-adv-x="1392" d="M98 725q0 352 155 540.5t443 188.5q289 0 443.5 -188.5t154.5 -540.5q0 -360 -154.5 -552.5t-443.5 -192.5q-288 0 -443 192.5t-155 552.5zM250 725q0 -305 112.5 -459.5t333.5 -154.5q222 0 334.5 154.5t112.5 459.5q0 598 -447 598q-446 0 -446 -598zM469 1478l170 310 h174l-233 -310h-111zM741 1478l207 310h174l-268 -310h-113z" />
<glyph unicode="&#x151;" horiz-adv-x="1122" d="M82 565q0 582 479 582t479 -582q0 -291 -120.5 -438t-358.5 -147q-237 0 -358 147t-121 438zM225 565q0 -244 81 -357.5t255 -113.5t255 114t81 357q0 242 -81 354.5t-255 112.5t-255 -112.5t-81 -354.5zM334 1253l170 310h174l-233 -310h-111zM606 1253l207 310h174 l-268 -310h-113z" />
<glyph unicode="&#x152;" horiz-adv-x="2119" d="M98 725q0 352 155 540.5t443 188.5q295 0 453 -201v181h856v-123h-709v-516h611v-123h-611v-549h711q0 -74 -21.5 -98.5t-84.5 -24.5h-752v184q-158 -205 -453 -204q-289 0 -443.5 192.5t-154.5 552.5zM250 725q0 -305 112.5 -459.5t333.5 -154.5q222 0 334.5 154.5 t112.5 459.5q0 598 -447 598q-446 0 -446 -598z" />
<glyph unicode="&#x153;" horiz-adv-x="1945" d="M82 565q0 582 479 582q307 0 418 -238q61 115 171 176.5t257 61.5q215 0 336 -133t121 -371q0 -47 -4 -94h-816q4 -213 95.5 -332t253.5 -119q111 0 187.5 43t127.5 138q14 27 43 26q33 0 90 -39q-45 -133 -166 -209.5t-282 -76.5q-141 0 -248 61t-168 178 q-111 -240 -416 -239q-238 0 -358.5 147t-120.5 438zM225 565q0 -244 81 -357.5t255 -113.5t255 114t81 357q0 242 -81 354.5t-255 112.5t-255 -112.5t-81 -354.5zM1049 659h671q0 369 -319 369q-156 0 -246 -94t-106 -275z" />
<glyph unicode="&#x154;" horiz-adv-x="1288" d="M176 0v1434h465q248 0 389 -110t141 -304q0 -154 -102 -265.5t-266 -138.5q59 -49 106 -124l289 -486q-41 -23 -88 -22q-37 0 -60.5 14t-41.5 47l-234 401q-49 86 -119.5 122t-191.5 36h-139v-604h-148zM324 731h307q184 0 285.5 76t101.5 213q0 141 -95.5 214t-281.5 73 h-317v-576zM508 1519l229 310h174l-268 -310h-135z" />
<glyph unicode="&#x155;" horiz-adv-x="819" d="M174 0v1126h139v-202q47 94 133 155.5t181 61.5q71 0 109 -23.5t38 -70.5q0 -33 -22 -60q-49 27 -136 27q-137 0 -220 -108.5t-83 -284.5v-621h-139zM276 1294l229 310h174l-268 -310h-135z" />
<glyph unicode="&#x156;" horiz-adv-x="1288" d="M176 0v1434h465q248 0 389 -110t141 -304q0 -154 -102 -265.5t-266 -138.5q59 -49 106 -124l289 -486q-41 -23 -88 -22q-37 0 -60.5 14t-41.5 47l-234 401q-49 86 -119.5 122t-191.5 36h-139v-604h-148zM324 731h307q184 0 285.5 76t101.5 213q0 141 -95.5 214t-281.5 73 h-317v-576zM528 -592q55 68 86 126t41 126h-10q-39 0 -61.5 24.5t-22.5 65.5v23q0 41 23.5 65.5t62.5 24.5h25q41 0 65.5 -25.5t24.5 -71.5v-22q0 -72 -24.5 -144.5t-61.5 -129.5q-53 -82 -90 -82q-33 0 -58 20z" />
<glyph unicode="&#x157;" horiz-adv-x="819" d="M126 -592q55 68 86 126t41 126h-10q-39 0 -61.5 24.5t-22.5 65.5v23q0 41 23.5 65.5t62.5 24.5h25q41 0 65.5 -25.5t24.5 -71.5v-22q0 -72 -24.5 -144.5t-61.5 -129.5q-53 -82 -90 -82q-33 0 -58 20zM174 0v1126h139v-202q47 94 133 155.5t181 61.5q71 0 109 -23.5 t38 -70.5q0 -33 -22 -60q-49 27 -136 27q-137 0 -220 -108.5t-83 -284.5v-621h-139z" />
<glyph unicode="&#x158;" horiz-adv-x="1288" d="M176 0v1434h465q248 0 389 -110t141 -304q0 -154 -102 -265.5t-266 -138.5q59 -49 106 -124l289 -486q-41 -23 -88 -22q-37 0 -60.5 14t-41.5 47l-234 401q-49 86 -119.5 122t-191.5 36h-139v-604h-148zM324 731h307q184 0 285.5 76t101.5 213q0 141 -95.5 214t-281.5 73 h-317v-576zM348 1812h111l184 -176l180 176h111l-217 -268h-150z" />
<glyph unicode="&#x159;" horiz-adv-x="819" d="M117 1587h111l184 -176l180 176h111l-217 -268h-150zM174 0v1126h139v-202q47 94 133 155.5t181 61.5q71 0 109 -23.5t38 -70.5q0 -33 -22 -60q-49 27 -136 27q-137 0 -220 -108.5t-83 -284.5v-621h-139z" />
<glyph unicode="&#x15a;" horiz-adv-x="1314" d="M141 309q0 41 30 66.5t79 27.5q33 -145 139.5 -221t274.5 -76q172 0 277.5 80t105.5 209q0 76 -38 129.5t-124 95.5t-238 80q-176 47 -276.5 99.5t-144.5 119t-44 164.5q0 172 127 271.5t350 99.5q195 0 325 -91t175 -257q-27 -27 -82 -27q-57 0 -84 56q-45 90 -136 143 t-198 53q-162 0 -245.5 -63.5t-83.5 -184.5q0 -61 30.5 -103t102.5 -77t203 -72q219 -61 330.5 -116.5t156.5 -125t45 -181.5q0 -129 -65.5 -226.5t-187.5 -149.5t-286 -52q-141 0 -259.5 44t-188.5 119.5t-70 165.5zM524 1519l229 310h174l-268 -310h-135z" />
<glyph unicode="&#x15b;" horiz-adv-x="993" d="M82 201q0 27 17.5 48t43.5 30q74 -96 160 -140.5t207 -44.5q129 0 195.5 59.5t66.5 157.5q0 66 -40 107t-98.5 61.5t-160.5 46.5q-119 31 -191.5 59.5t-122.5 87t-50 156.5q0 104 55 176t141 107t176 35q129 0 234.5 -51.5t165.5 -149.5q-49 -51 -84 -51q-27 0 -52 29 q-49 57 -113.5 84.5t-156.5 27.5q-104 0 -165.5 -49t-61.5 -151q0 -59 37 -96.5t92 -56.5t151 -44q123 -29 200 -59.5t130 -95t53 -173.5q0 -152 -111.5 -241.5t-297.5 -89.5q-92 0 -190.5 30.5t-164 81.5t-65.5 109zM364 1294l229 310h174l-268 -310h-135z" />
<glyph unicode="&#x15c;" horiz-adv-x="1314" d="M141 309q0 41 30 66.5t79 27.5q33 -145 139.5 -221t274.5 -76q172 0 277.5 80t105.5 209q0 76 -38 129.5t-124 95.5t-238 80q-176 47 -276.5 99.5t-144.5 119t-44 164.5q0 172 127 271.5t350 99.5q195 0 325 -91t175 -257q-27 -27 -82 -27q-57 0 -84 56q-45 90 -136 143 t-198 53q-162 0 -245.5 -63.5t-83.5 -184.5q0 -61 30.5 -103t102.5 -77t203 -72q219 -61 330.5 -116.5t156.5 -125t45 -181.5q0 -129 -65.5 -226.5t-187.5 -149.5t-286 -52q-141 0 -259.5 44t-188.5 119.5t-70 165.5zM354 1519l229 273h150l227 -273h-131l-170 170 l-174 -170h-131z" />
<glyph unicode="&#x15d;" horiz-adv-x="993" d="M82 201q0 27 17.5 48t43.5 30q74 -96 160 -140.5t207 -44.5q129 0 195.5 59.5t66.5 157.5q0 66 -40 107t-98.5 61.5t-160.5 46.5q-119 31 -191.5 59.5t-122.5 87t-50 156.5q0 104 55 176t141 107t176 35q129 0 234.5 -51.5t165.5 -149.5q-49 -51 -84 -51q-27 0 -52 29 q-49 57 -113.5 84.5t-156.5 27.5q-104 0 -165.5 -49t-61.5 -151q0 -59 37 -96.5t92 -56.5t151 -44q123 -29 200 -59.5t130 -95t53 -173.5q0 -152 -111.5 -241.5t-297.5 -89.5q-92 0 -190.5 30.5t-164 81.5t-65.5 109zM195 1294l229 273h150l227 -273h-131l-170 170 l-174 -170h-131z" />
<glyph unicode="&#x15e;" horiz-adv-x="1314" d="M141 309q0 41 30 66.5t79 27.5q33 -145 139.5 -221t274.5 -76q172 0 277.5 80t105.5 209q0 76 -38 129.5t-124 95.5t-238 80q-176 47 -276.5 99.5t-144.5 119t-44 164.5q0 172 127 271.5t350 99.5q195 0 325 -91t175 -257q-27 -27 -82 -27q-57 0 -84 56q-45 90 -136 143 t-198 53q-162 0 -245.5 -63.5t-83.5 -184.5q0 -61 30.5 -103t102.5 -77t203 -72q219 -61 330.5 -116.5t156.5 -125t45 -181.5q0 -187 -131 -300.5t-356 -125.5l-76 -95h14q86 0 139.5 -43t53.5 -123q0 -90 -72 -140t-176 -50q-92 0 -141.5 22.5t-49.5 63.5q0 12 7 29 q84 -23 172 -23q61 0 96 25.5t35 68.5q0 31 -28 54.5t-77 23.5q-39 0 -82 -14l-34 65l102 136q-127 10 -230.5 56t-163 116.5t-59.5 154.5z" />
<glyph unicode="&#x15f;" horiz-adv-x="993" d="M82 201q0 27 17.5 48t43.5 30q74 -96 160 -140.5t207 -44.5q129 0 195.5 59.5t66.5 157.5q0 66 -40 107t-98.5 61.5t-160.5 46.5q-119 31 -191.5 59.5t-122.5 87t-50 156.5q0 104 55 176t141 107t176 35q129 0 234.5 -51.5t165.5 -149.5q-49 -51 -84 -51q-27 0 -52 29 q-49 57 -113.5 84.5t-156.5 27.5q-104 0 -165.5 -49t-61.5 -151q0 -59 37 -96.5t92 -56.5t151 -44q123 -29 200 -59.5t130 -95t53 -173.5q0 -139 -97 -228t-261 -101l-78 -95h14q86 0 139.5 -43t53.5 -123q0 -90 -71.5 -140t-176.5 -50q-92 0 -141 22.5t-49 63.5q0 12 6 29 q84 -23 172 -23q61 0 96 25.5t35 68.5q0 31 -27.5 54.5t-76.5 23.5q-39 0 -82 -14l-35 65l104 138q-135 16 -244.5 78.5t-109.5 138.5z" />
<glyph unicode="&#x160;" horiz-adv-x="1314" d="M141 309q0 41 30 66.5t79 27.5q33 -145 139.5 -221t274.5 -76q172 0 277.5 80t105.5 209q0 76 -38 129.5t-124 95.5t-238 80q-176 47 -276.5 99.5t-144.5 119t-44 164.5q0 172 127 271.5t350 99.5q195 0 325 -91t175 -257q-27 -27 -82 -27q-57 0 -84 56q-45 90 -136 143 t-198 53q-162 0 -245.5 -63.5t-83.5 -184.5q0 -61 30.5 -103t102.5 -77t203 -72q219 -61 330.5 -116.5t156.5 -125t45 -181.5q0 -129 -65.5 -226.5t-187.5 -149.5t-286 -52q-141 0 -259.5 44t-188.5 119.5t-70 165.5zM365 1812h111l184 -176l180 176h111l-217 -268h-150z " />
<glyph unicode="&#x161;" horiz-adv-x="993" d="M82 201q0 27 17.5 48t43.5 30q74 -96 160 -140.5t207 -44.5q129 0 195.5 59.5t66.5 157.5q0 66 -40 107t-98.5 61.5t-160.5 46.5q-119 31 -191.5 59.5t-122.5 87t-50 156.5q0 104 55 176t141 107t176 35q129 0 234.5 -51.5t165.5 -149.5q-49 -51 -84 -51q-27 0 -52 29 q-49 57 -113.5 84.5t-156.5 27.5q-104 0 -165.5 -49t-61.5 -151q0 -59 37 -96.5t92 -56.5t151 -44q123 -29 200 -59.5t130 -95t53 -173.5q0 -152 -111.5 -241.5t-297.5 -89.5q-92 0 -190.5 30.5t-164 81.5t-65.5 109zM205 1587h111l184 -176l180 176h111l-217 -268h-150z " />
<glyph unicode="&#x162;" horiz-adv-x="1093" d="M31 1311v123h1032q8 -38 8 -50q0 -35 -18.5 -54t-55.5 -19h-376v-1311h-148v1311h-442zM297 -383q0 12 6 29q84 -23 172 -23q61 0 96.5 25.5t35.5 68.5q0 31 -28 54.5t-77 23.5q-39 0 -82 -14l-35 65l117 154h119l-92 -113h14q86 0 139.5 -43t53.5 -123q0 -90 -72 -140 t-176 -50q-92 0 -141.5 22.5t-49.5 63.5z" />
<glyph unicode="&#x163;" horiz-adv-x="765" d="M25 1016v110h213v308h139v-308h295v-110h-295v-742q0 -172 147 -172q94 0 176 35q15 -10 24 -29.5t9 -39.5q0 -39 -33 -56q-59 -29 -137 -30l-76 -95h15q86 0 139 -43t53 -123q0 -90 -71.5 -140t-176.5 -50q-92 0 -141 22.5t-49 63.5q0 12 6 29q84 -23 172 -23 q61 0 96 25.5t35 68.5q0 31 -27.5 54.5t-76.5 23.5q-39 0 -82 -14l-35 65l107 142q-98 20 -155.5 88.5t-57.5 171.5v768h-213z" />
<glyph unicode="&#x164;" horiz-adv-x="1093" d="M31 1311v123h1032q8 -38 8 -50q0 -35 -18.5 -54t-55.5 -19h-376v-1311h-148v1311h-442zM256 1812h111l184 -176l180 176h111l-217 -268h-150z" />
<glyph unicode="&#x165;" horiz-adv-x="765" d="M14 1812h111l184 -176l180 176h111l-217 -268h-150zM25 1016v110h213v308h139v-308h295v-110h-295v-742q0 -172 147 -172q94 0 176 35q15 -10 24 -29.5t9 -39.5q0 -39 -33 -56q-66 -33 -170 -32q-133 0 -212.5 72.5t-79.5 195.5v768h-213z" />
<glyph unicode="&#x166;" horiz-adv-x="1091" d="M31 1311v123h1032q8 -38 8 -50q0 -35 -18.5 -54t-55.5 -19h-376v-568h268v-118h-268v-625h-148v625h-264v118h264v568h-442z" />
<glyph unicode="&#x167;" horiz-adv-x="813" d="M25 586v110h213v320h-213v110h213v308h139v-308h295v-110h-295v-320h295v-110h-295v-312q0 -172 147 -172q94 0 176 35q15 -10 24 -29.5t9 -39.5q0 -39 -33 -56q-66 -33 -170 -32q-133 0 -212.5 72.5t-79.5 195.5v338h-213z" />
<glyph unicode="&#x168;" horiz-adv-x="1449" d="M176 514v920h148v-940q0 -199 98 -293.5t307 -94.5q211 0 307.5 93.5t96.5 294.5v940h147v-920q0 -274 -133 -404t-418 -130q-280 0 -416.5 132t-136.5 402zM420 1581q0 74 50 114.5t128 40.5q45 0 78.5 -13t74.5 -38q31 -20 53.5 -29.5t49.5 -9.5q84 0 98 97 q39 0 60.5 -17.5t21.5 -44.5q0 -59 -47 -102t-127 -43q-47 0 -82 13t-78 38q-33 20 -57.5 29.5t-52.5 9.5q-80 0 -97 -94q-73 0 -73 49z" />
<glyph unicode="&#x169;" horiz-adv-x="1247" d="M184 358v768h140v-753q0 -150 55 -216.5t176 -66.5q109 0 204 55.5t159 155.5v825h141v-895q0 -119 31 -217q-43 -25 -89 -24q-43 0 -62 35.5t-21 130.5q-57 -80 -162 -128t-226 -48q-346 0 -346 378zM320 1356q0 74 50 114.5t128 40.5q45 0 78.5 -13t74.5 -38 q31 -20 53.5 -29.5t49.5 -9.5q84 0 98 97q39 0 60.5 -17.5t21.5 -44.5q0 -59 -47 -102t-127 -43q-47 0 -82 13t-78 38q-33 20 -57.5 29.5t-52.5 9.5q-80 0 -97 -94q-73 0 -73 49z" />
<glyph unicode="&#x16a;" horiz-adv-x="1449" d="M176 514v920h148v-940q0 -199 98 -293.5t307 -94.5q211 0 307.5 93.5t96.5 294.5v940h147v-920q0 -274 -133 -404t-418 -130q-280 0 -416.5 132t-136.5 402zM391 1564v123h668v-123h-668z" />
<glyph unicode="&#x16b;" horiz-adv-x="1247" d="M184 358v768h140v-753q0 -150 55 -216.5t176 -66.5q109 0 204 55.5t159 155.5v825h141v-895q0 -119 31 -217q-43 -25 -89 -24q-43 0 -62 35.5t-21 130.5q-57 -80 -162 -128t-226 -48q-346 0 -346 378zM291 1339v123h668v-123h-668z" />
<glyph unicode="&#x16c;" horiz-adv-x="1449" d="M176 514v920h148v-940q0 -199 98 -293.5t307 -94.5q211 0 307.5 93.5t96.5 294.5v940h147v-920q0 -274 -133 -404t-418 -130q-280 0 -416.5 132t-136.5 402zM411 1734q0 33 25 54.5t70 21.5q12 -88 65 -139t154 -51q98 0 152.5 54t68.5 146q43 0 68.5 -22.5t25.5 -61.5 q0 -59 -38 -108t-109.5 -80t-167.5 -31q-101 0 -172.5 32t-106.5 82t-35 103z" />
<glyph unicode="&#x16d;" horiz-adv-x="1247" d="M184 358v768h140v-753q0 -150 55 -216.5t176 -66.5q109 0 204 55.5t159 155.5v825h141v-895q0 -119 31 -217q-43 -25 -89 -24q-43 0 -62 35.5t-21 130.5q-57 -80 -162 -128t-226 -48q-346 0 -346 378zM311 1509q0 33 25 54.5t70 21.5q12 -88 65 -139t154 -51 q98 0 152.5 54t68.5 146q43 0 68.5 -22.5t25.5 -61.5q0 -59 -38 -108t-109.5 -80t-167.5 -31q-101 0 -172.5 32t-106.5 82t-35 103z" />
<glyph unicode="&#x16e;" horiz-adv-x="1449" d="M176 514v920h148v-940q0 -199 98 -293.5t307 -94.5q211 0 307.5 93.5t96.5 294.5v940h147v-920q0 -274 -133 -404t-418 -130q-280 0 -416.5 132t-136.5 402zM500 1734q0 96 65.5 161t159.5 65t159.5 -64.5t65.5 -161.5q0 -96 -65.5 -159.5t-159.5 -63.5t-159.5 63.5 t-65.5 159.5zM596 1734q0 -53 37 -90t92 -37q53 0 90 37t37 90q0 57 -36 92t-91 35t-92 -34.5t-37 -92.5z" />
<glyph unicode="&#x16f;" horiz-adv-x="1247" d="M184 358v768h140v-753q0 -150 55 -216.5t176 -66.5q109 0 204 55.5t159 155.5v825h141v-895q0 -119 31 -217q-43 -25 -89 -24q-43 0 -62 35.5t-21 130.5q-57 -80 -162 -128t-226 -48q-346 0 -346 378zM400 1509q0 96 65.5 161t159.5 65t159.5 -64.5t65.5 -161.5 q0 -96 -65.5 -159.5t-159.5 -63.5t-159.5 63.5t-65.5 159.5zM496 1509q0 -53 37 -90t92 -37q53 0 90 37t37 90q0 57 -36 92t-91 35t-92 -34.5t-37 -92.5z" />
<glyph unicode="&#x170;" horiz-adv-x="1449" d="M176 514v920h148v-940q0 -199 98 -293.5t307 -94.5q211 0 307.5 93.5t96.5 294.5v940h147v-920q0 -274 -133 -404t-418 -130q-280 0 -416.5 132t-136.5 402zM498 1478l170 310h174l-233 -310h-111zM770 1478l207 310h174l-268 -310h-113z" />
<glyph unicode="&#x171;" horiz-adv-x="1249" d="M184 358v768h140v-753q0 -150 55 -216.5t176 -66.5q109 0 204 55.5t159 155.5v825h141v-895q0 -119 31 -217q-43 -25 -89 -24q-43 0 -62 35.5t-21 130.5q-57 -80 -162 -128t-226 -48q-346 0 -346 378zM396 1253l170 310h174l-233 -310h-111zM668 1253l207 310h174 l-268 -310h-113z" />
<glyph unicode="&#x172;" horiz-adv-x="1449" d="M176 514v920h148v-940q0 -199 98 -293.5t307 -94.5q211 0 307.5 93.5t96.5 294.5v940h147v-920q0 -240 -100.5 -369t-311.5 -157q-106 -90 -106 -201q0 -51 28.5 -78.5t79.5 -27.5q61 0 109 20q12 -18 12 -41q0 -29 -36.5 -49.5t-104.5 -20.5q-96 0 -154.5 50.5 t-58.5 130.5q0 131 119 209h-27q-281 0 -417 132t-136 402z" />
<glyph unicode="&#x173;" horiz-adv-x="1247" d="M184 358v768h140v-753q0 -150 55 -216.5t176 -66.5q109 0 204 55.5t159 155.5v825h141v-895q0 -119 31 -217q-72 -47 -111 -107.5t-39 -125.5q0 -51 28.5 -79t80.5 -28q61 0 108 21q12 -18 12 -41q0 -29 -36.5 -49.5t-104.5 -20.5q-96 0 -154.5 50.5t-58.5 129.5 q0 80 40 135.5t114 96.5q-25 10 -37 47t-14 113q-57 -80 -162 -128t-226 -48q-346 0 -346 378z" />
<glyph unicode="&#x174;" horiz-adv-x="1753" d="M31 1434h147q39 -256 107.5 -527.5t208.5 -711.5q82 254 154.5 513t191.5 726h86q178 -647 236.5 -850t117.5 -387q133 434 199.5 706.5t103.5 530.5h139q-43 -289 -120.5 -598.5t-237.5 -835.5h-168q-141 475 -203.5 704.5t-105.5 423.5q-49 -221 -117 -469.5 t-192 -658.5h-168q-160 496 -245 816.5t-134 617.5zM584 1519l229 273h150l227 -273h-131l-170 170l-174 -170h-131z" />
<glyph unicode="&#x175;" horiz-adv-x="1556" d="M68 1126h143q35 -299 89 -523t142 -417q197 403 267 940h135q74 -555 264 -944q178 426 211 944h160q-82 -623 -312 -1126h-127q-106 233 -168.5 425.5t-97.5 401.5q-37 -213 -100.5 -406.5t-169.5 -420.5h-131q-109 231 -181.5 499.5t-123.5 626.5zM475 1294l229 273 h150l227 -273h-131l-170 170l-174 -170h-131z" />
<glyph unicode="&#x176;" horiz-adv-x="1208" d="M41 1434h160l405 -695l404 695h157l-489 -832v-602h-148v602zM301 1519l229 273h150l227 -273h-131l-170 170l-174 -170h-131z" />
<glyph unicode="&#x177;" horiz-adv-x="993" d="M2 -311q0 41 35 65q20 -14 62 -24.5t83 -10.5q84 0 144.5 74t103.5 225l-401 1108h147l326 -907l321 907h148l-436 -1212q-57 -162 -144.5 -236.5t-220.5 -74.5q-78 0 -123 23.5t-45 62.5zM195 1294l229 273h150l227 -273h-131l-170 170l-174 -170h-131z" />
<glyph unicode="&#x178;" horiz-adv-x="1208" d="M41 1434h160l405 -695l404 695h157l-489 -832v-602h-148v602zM297 1626v18q0 92 92 92h17q92 0 92 -92v-18q0 -92 -92 -92h-17q-92 0 -92 92zM715 1626v18q0 92 92 92h16q92 0 92 -92v-18q0 -92 -92 -92h-16q-92 0 -92 92z" />
<glyph unicode="&#x179;" horiz-adv-x="1187" d="M106 1311v123h959v-131l-782 -1180h798v-123h-970v123l792 1188h-797zM460 1519l229 310h174l-268 -310h-135z" />
<glyph unicode="&#x17a;" horiz-adv-x="1024" d="M61 0v98l697 910h-643v118h831v-96l-696 -911h713v-119h-902zM379 1294l229 310h174l-268 -310h-135z" />
<glyph unicode="&#x17b;" horiz-adv-x="1187" d="M106 1311v123h959v-131l-782 -1180h798v-123h-970v123l792 1188h-797zM494 1650v19q0 92 92 92h16q92 0 92 -92v-19q0 -92 -92 -92h-16q-92 0 -92 92z" />
<glyph unicode="&#x17c;" horiz-adv-x="1024" d="M61 0v98l697 910h-643v118h831v-96l-696 -911h713v-119h-902zM412 1425v19q0 92 92 92h16q92 0 92 -92v-19q0 -92 -92 -92h-16q-92 0 -92 92z" />
<glyph unicode="&#x17d;" horiz-adv-x="1187" d="M106 1311v123h959v-131l-782 -1180h798v-123h-970v123l792 1188h-797zM301 1812h111l184 -176l180 176h111l-217 -268h-150z" />
<glyph unicode="&#x17e;" horiz-adv-x="1024" d="M61 0v98l697 910h-643v118h831v-96l-696 -911h713v-119h-902zM219 1587h111l184 -176l180 176h111l-217 -268h-150z" />
<glyph unicode="&#x18f;" horiz-adv-x="1417" d="M86 645v98h1061q-6 283 -127 432.5t-344 149.5q-211 0 -344 -113q-35 -29 -68 -28q-49 0 -90 71q63 90 200.5 144.5t299.5 54.5q299 0 461.5 -193.5t162.5 -547.5q0 -358 -160.5 -545.5t-465.5 -187.5q-287 0 -436.5 169.5t-149.5 495.5zM233 616q0 -244 115 -375.5 t326 -131.5q434 -1 469 507h-910z" />
<glyph unicode="&#x192;" horiz-adv-x="1130" d="M41 -385l31 115q37 -12 86 -13q92 0 154.5 74t82.5 209l119 846h-293v104h307q31 227 73 363.5t116 210t196 73.5q82 0 127 -10l-20 -114l-90 4q-80 0 -127 -52.5t-75 -160t-56 -314.5h321v-104h-336l-122 -873q-25 -176 -119 -275t-271 -99q-55 0 -104 16z" />
<glyph unicode="&#x1a0;" horiz-adv-x="1392" d="M98 725q0 352 155 540.5t443 188.5q197 0 328 -86q45 10 71.5 46t26.5 87q0 61 -59 107q4 27 26.5 47t51.5 20q53 0 86 -40t33 -113q0 -82 -38 -140.5t-106 -89.5q178 -190 178 -567q0 -360 -154.5 -552.5t-443.5 -192.5t-443.5 192.5t-154.5 552.5zM250 725 q0 -305 112.5 -459.5t333.5 -154.5q222 0 334.5 154.5t112.5 459.5q0 598 -447 598q-446 0 -446 -598z" />
<glyph unicode="&#x1a1;" horiz-adv-x="1122" d="M82 565q0 582 479 582q211 0 330 -115q41 14 65.5 49t24.5 82q0 61 -59 107q4 27 26.5 47t50.5 20q53 0 86 -40t33 -113q0 -88 -42 -148.5t-118 -89.5q82 -139 82 -381q0 -291 -120.5 -438t-358.5 -147t-358.5 147t-120.5 438zM225 565q0 -244 81 -357.5t255 -113.5 t255 114t81 357q0 242 -81 354.5t-255 112.5t-255 -112.5t-81 -354.5z" />
<glyph unicode="&#x1af;" horiz-adv-x="1449" d="M176 514v920h148v-940q0 -199 98 -293.5t307 -94.5q211 0 307.5 93.5t96.5 294.5v940h147v-920q0 -274 -133 -404t-418 -130q-280 0 -416.5 132t-136.5 402zM1280 1331v102q57 0 96 38t39 100q0 61 -59 106q4 27 26.5 47.5t51.5 20.5q53 0 86 -40t33 -114 q0 -119 -74 -185.5t-199 -74.5z" />
<glyph unicode="&#x1b0;" horiz-adv-x="1247" d="M184 358v768h140v-753q0 -150 55 -216.5t176 -66.5q109 0 204 55.5t159 155.5v825h120q57 0 96.5 38t39.5 100q0 61 -60 106q4 27 26.5 47.5t51.5 20.5q53 0 86 -40t33 -114q0 -113 -67.5 -179.5t-184.5 -78.5v-795q0 -119 31 -217q-43 -25 -89 -24q-43 0 -62 35.5 t-21 130.5q-57 -80 -162 -128t-226 -48q-346 0 -346 378z" />
<glyph unicode="&#x1cd;" horiz-adv-x="1269" d="M31 0q106 438 231 779t297 655h154q170 -311 295 -652.5t231 -781.5h-152q-55 254 -104 416h-696q-49 -162 -105 -416h-151zM322 539h626q-125 397 -313 745q-188 -348 -313 -745zM342 1812h111l184 -176l180 176h111l-217 -268h-150z" />
<glyph unicode="&#x1ce;" horiz-adv-x="1142" d="M102 272q0 193 187.5 301.5t546.5 124.5v66q0 135 -69 201.5t-208 66.5q-90 0 -167 -38t-165 -126q-12 -12 -30 -12q-20 0 -45 17.5t-48 50.5q92 109 210 166t251 57q190 0 300 -102.5t110 -280.5v-483q0 -95 15.5 -149t53.5 -97q-20 -20 -47.5 -32.5t-52.5 -12.5 q-41 0 -68.5 47t-35.5 129q-63 -86 -170 -136t-224 -50q-156 0 -250 80.5t-94 211.5zM246 274q0 -180 211 -180q110 0 208.5 61.5t170.5 174.5v254q-590 -25 -590 -310zM274 1587h111l184 -176l180 176h111l-217 -268h-150z" />
<glyph unicode="&#x1cf;" horiz-adv-x="716" d="M65 1812h111l184 -176l180 176h111l-217 -268h-150zM285 0v1434h147v-1434h-147z" />
<glyph unicode="&#x1d0;" horiz-adv-x="589" d="M2 1587h111l184 -176l180 176h111l-217 -268h-150zM225 0v1126h140v-1126h-140z" />
<glyph unicode="&#x1d1;" horiz-adv-x="1392" d="M98 725q0 352 155 540.5t443 188.5q289 0 443.5 -188.5t154.5 -540.5q0 -360 -154.5 -552.5t-443.5 -192.5q-288 0 -443 192.5t-155 552.5zM250 725q0 -305 112.5 -459.5t333.5 -154.5q222 0 334.5 154.5t112.5 459.5q0 598 -447 598q-446 0 -446 -598zM403 1812h111 l184 -176l180 176h111l-217 -268h-150z" />
<glyph unicode="&#x1d2;" horiz-adv-x="1122" d="M82 565q0 582 479 582t479 -582q0 -291 -120.5 -438t-358.5 -147q-237 0 -358 147t-121 438zM225 565q0 -244 81 -357.5t255 -113.5t255 114t81 357q0 242 -81 354.5t-255 112.5t-255 -112.5t-81 -354.5zM268 1587h111l184 -176l180 176h111l-217 -268h-150z" />
<glyph unicode="&#x1d3;" horiz-adv-x="1449" d="M176 514v920h148v-940q0 -199 98 -293.5t307 -94.5q211 0 307.5 93.5t96.5 294.5v940h147v-920q0 -274 -133 -404t-418 -130q-280 0 -416.5 132t-136.5 402zM432 1812h111l184 -176l180 176h111l-217 -268h-150z" />
<glyph unicode="&#x1d4;" horiz-adv-x="1247" d="M184 358v768h140v-753q0 -150 55 -216.5t176 -66.5q109 0 204 55.5t159 155.5v825h141v-895q0 -119 31 -217q-43 -25 -89 -24q-43 0 -62 35.5t-21 130.5q-57 -80 -162 -128t-226 -48q-346 0 -346 378zM332 1587h111l184 -176l180 176h111l-217 -268h-150z" />
<glyph unicode="&#x1d5;" horiz-adv-x="1449" d="M176 514v920h148v-940q0 -199 98 -293.5t307 -94.5q211 0 307.5 93.5t96.5 294.5v940h147v-920q0 -274 -133 -404t-418 -130q-280 0 -416.5 132t-136.5 402zM391 1841v123h668v-123h-668zM418 1626v18q0 92 92 92h17q92 0 92 -92v-18q0 -92 -92 -92h-17q-92 0 -92 92z M836 1626v18q0 92 92 92h16q92 0 92 -92v-18q0 -92 -92 -92h-16q-92 0 -92 92z" />
<glyph unicode="&#x1d6;" horiz-adv-x="1247" d="M184 358v768h140v-753q0 -150 55 -216.5t176 -66.5q109 0 204 55.5t159 155.5v825h141v-895q0 -119 31 -217q-43 -25 -89 -24q-43 0 -62 35.5t-21 130.5q-57 -80 -162 -128t-226 -48q-346 0 -346 378zM291 1615v123h668v-123h-668zM318 1401v18q0 92 92 92h17 q92 0 92 -92v-18q0 -92 -92 -92h-17q-92 0 -92 92zM736 1401v18q0 92 92 92h16q92 0 92 -92v-18q0 -92 -92 -92h-16q-92 0 -92 92z" />
<glyph unicode="&#x1d7;" horiz-adv-x="1449" d="M176 514v920h148v-940q0 -199 98 -293.5t307 -94.5q211 0 307.5 93.5t96.5 294.5v940h147v-920q0 -274 -133 -404t-418 -130q-280 0 -416.5 132t-136.5 402zM420 1606v18q0 92 92 92h17q92 0 92 -92v-18q0 -92 -92 -92h-17q-92 0 -92 92zM593 1775l229 310h174l-268 -310 h-135zM838 1606v18q0 92 92 92h16q92 0 92 -92v-18q0 -92 -92 -92h-16q-92 0 -92 92z" />
<glyph unicode="&#x1d8;" horiz-adv-x="1247" d="M184 358v768h140v-753q0 -150 55 -216.5t176 -66.5q109 0 204 55.5t159 155.5v825h141v-895q0 -119 31 -217q-43 -25 -89 -24q-43 0 -62 35.5t-21 130.5q-57 -80 -162 -128t-226 -48q-346 0 -346 378zM318 1401v18q0 92 92 92h17q92 0 92 -92v-18q0 -92 -92 -92h-17 q-92 0 -92 92zM491 1570l229 310h174l-268 -310h-135zM736 1401v18q0 92 92 92h16q92 0 92 -92v-18q0 -92 -92 -92h-16q-92 0 -92 92z" />
<glyph unicode="&#x1d9;" horiz-adv-x="1449" d="M176 514v920h148v-940q0 -199 98 -293.5t307 -94.5q211 0 307.5 93.5t96.5 294.5v940h147v-920q0 -274 -133 -404t-418 -130q-280 0 -416.5 132t-136.5 402zM416 1606v18q0 92 92 92h17q92 0 92 -92v-18q0 -92 -92 -92h-17q-92 0 -92 92zM430 2068h111l184 -176l180 176 h111l-217 -268h-150zM834 1606v18q0 92 92 92h16q92 0 92 -92v-18q0 -92 -92 -92h-16q-92 0 -92 92z" />
<glyph unicode="&#x1da;" horiz-adv-x="1247" d="M184 358v768h140v-753q0 -150 55 -216.5t176 -66.5q109 0 204 55.5t159 155.5v825h141v-895q0 -119 31 -217q-43 -25 -89 -24q-43 0 -62 35.5t-21 130.5q-57 -80 -162 -128t-226 -48q-346 0 -346 378zM314 1401v18q0 92 92 92h17q92 0 92 -92v-18q0 -92 -92 -92h-17 q-92 0 -92 92zM328 1863h111l184 -176l180 176h111l-217 -268h-150zM732 1401v18q0 92 92 92h16q92 0 92 -92v-18q0 -92 -92 -92h-16q-92 0 -92 92z" />
<glyph unicode="&#x1db;" horiz-adv-x="1449" d="M176 514v920h148v-940q0 -199 98 -293.5t307 -94.5q211 0 307.5 93.5t96.5 294.5v940h147v-920q0 -274 -133 -404t-418 -130q-280 0 -416.5 132t-136.5 402zM420 1606v18q0 92 92 92h17q92 0 92 -92v-18q0 -92 -92 -92h-17q-92 0 -92 92zM486 2085h170l207 -310h-136z M838 1606v18q0 92 92 92h16q92 0 92 -92v-18q0 -92 -92 -92h-16q-92 0 -92 92z" />
<glyph unicode="&#x1dc;" horiz-adv-x="1247" d="M184 358v768h140v-753q0 -150 55 -216.5t176 -66.5q109 0 204 55.5t159 155.5v825h141v-895q0 -119 31 -217q-43 -25 -89 -24q-43 0 -62 35.5t-21 130.5q-57 -80 -162 -128t-226 -48q-346 0 -346 378zM318 1401v18q0 92 92 92h17q92 0 92 -92v-18q0 -92 -92 -92h-17 q-92 0 -92 92zM384 1880h170l207 -310h-136zM736 1401v18q0 92 92 92h16q92 0 92 -92v-18q0 -92 -92 -92h-16q-92 0 -92 92z" />
<glyph unicode="&#x1e6;" horiz-adv-x="1363" d="M127 717q0 354 167 545.5t478 191.5q145 0 270 -54t189 -145q-41 -72 -90 -71q-33 0 -68 28q-70 59 -141.5 86t-161.5 27q-242 0 -366.5 -154.5t-124.5 -453.5q0 -307 121.5 -457.5t369.5 -150.5q102 0 190.5 26.5t129.5 71.5v430h-289q-41 0 -58.5 28.5t-17.5 98.5h512 v-614q-76 -78 -202 -124t-263 -46q-317 0 -481 187t-164 550zM479 1812h111l184 -176l180 176h111l-217 -268h-150z" />
<glyph unicode="&#x1e7;" horiz-adv-x="1198" d="M102 -123q0 82 56.5 145.5t156.5 94.5v6q-61 16 -98 60t-37 106q0 51 41 91t111 54q-88 49 -136.5 130t-48.5 181q0 401 463 402q145 0 248 -64q51 47 111.5 75t115.5 28q37 0 54.5 -19.5t17.5 -62.5q0 -12 -4 -49q-152 0 -211 -41q82 -98 82 -244q0 -393 -453 -393 q-139 0 -203.5 -19.5t-64.5 -60.5q0 -92 330 -92q231 0 358 -78t127 -221q0 -154 -136 -237t-390 -83q-240 0 -365 74t-125 217zM248 -106q0 -94 88 -143.5t256 -49.5q188 0 284.5 48t96.5 145q0 98 -87 141t-286 43q-174 0 -263 -47t-89 -137zM291 762q0 -270 293 -270 q157 0 226 62t69 208q0 143 -70 208.5t-225 65.5q-152 0 -222.5 -66.5t-70.5 -207.5zM307 1587h111l184 -176l180 176h111l-217 -268h-150z" />
<glyph unicode="&#x1fa;" horiz-adv-x="1269" d="M31 0q106 438 231 779t297 655h154q170 -311 295 -652.5t231 -781.5h-152q-55 254 -104 416h-696q-49 -162 -105 -416h-151zM322 539h626q-125 397 -313 745q-188 -348 -313 -745zM410 1734q0 96 65.5 161t159.5 65t159.5 -64.5t65.5 -161.5q0 -96 -65.5 -159.5 t-159.5 -63.5t-159.5 63.5t-65.5 159.5zM501 2128l229 310h174l-268 -310h-135zM506 1734q0 -53 37 -90t92 -37q53 0 90 37t37 90q0 57 -36 92t-91 35t-92 -34.5t-37 -92.5z" />
<glyph unicode="&#x1fb;" horiz-adv-x="1142" d="M102 272q0 193 187.5 301.5t546.5 124.5v66q0 135 -69 201.5t-208 66.5q-90 0 -167 -38t-165 -126q-12 -12 -30 -12q-20 0 -45 17.5t-48 50.5q92 109 210 166t251 57q190 0 300 -102.5t110 -280.5v-483q0 -95 15.5 -149t53.5 -97q-20 -20 -47.5 -32.5t-52.5 -12.5 q-41 0 -68.5 47t-35.5 129q-63 -86 -170 -136t-224 -50q-156 0 -250 80.5t-94 211.5zM246 274q0 -180 211 -180q110 0 208.5 61.5t170.5 174.5v254q-590 -25 -590 -310zM342 1509q0 96 65.5 161t159.5 65t159.5 -64.5t65.5 -161.5q0 -96 -65.5 -159.5t-159.5 -63.5 t-159.5 63.5t-65.5 159.5zM434 1902l229 310h174l-268 -310h-135zM438 1509q0 -53 37 -90t92 -37q53 0 90 37t37 90q0 57 -36 92t-91 35t-92 -34.5t-37 -92.5z" />
<glyph unicode="&#x1fc;" horiz-adv-x="1904" d="M31 0q78 385 295 765t544 669h922v-123h-696v-486h608v-123h-608v-579h686q0 -74 -21.5 -98.5t-85.5 -24.5h-712v422h-652q-92 -225 -129 -422h-151zM369 545h594v766h-19q-168 -141 -317.5 -341t-257.5 -425zM942 1601l229 310h174l-268 -310h-135z" />
<glyph unicode="&#x1fd;" horiz-adv-x="1880" d="M102 270q0 203 188.5 304.5t545.5 105.5v84q0 133 -68 200.5t-209 67.5q-106 0 -179 -42t-153 -122q-12 -12 -30 -12q-20 0 -45 18.5t-48 49.5q86 102 202 162.5t259 60.5q133 0 228.5 -51.5t142.5 -147.5q66 98 170 148.5t231 50.5q225 0 343 -123t118 -367 q0 -65 -8 -108h-811q4 -227 92 -341t256 -114q129 0 200.5 44t114.5 136q12 29 41 29t93 -41q-39 -135 -154 -211t-295 -76q-143 0 -250.5 59.5t-167.5 176.5q-84 -115 -201.5 -175.5t-261.5 -60.5q-147 0 -245.5 79t-98.5 216zM246 272q0 -182 211 -182q125 0 236.5 74 t162.5 194q-20 88 -20 205q-309 -12 -449.5 -83.5t-140.5 -207.5zM786 1294l229 310h174l-268 -310h-135zM983 659h672q0 172 -77 274.5t-247 102.5q-154 0 -243 -97t-105 -280z" />
<glyph unicode="&#x1fe;" horiz-adv-x="1392" d="M98 725q0 352 155 540.5t443 188.5q221 0 363 -111l65 93h148l-125 -179q147 -188 147 -532q0 -360 -154.5 -552.5t-443.5 -192.5q-223 0 -370 118l-70 -98h-147l133 188q-143 190 -144 537zM250 725q0 -260 82 -410l647 914q-106 94 -283 94q-446 0 -446 -598zM408 215 q106 -104 288 -104q222 0 334.5 154.5t112.5 459.5q0 260 -86 408zM563 1519l229 310h174l-268 -310h-135z" />
<glyph unicode="&#x1ff;" horiz-adv-x="1122" d="M61 0l119 156q-98 145 -98 409q0 582 479 582q193 0 311 -96l58 75h131l-119 -153q98 -143 98 -408q0 -291 -120.5 -438t-358.5 -147q-190 0 -309 96l-59 -76h-132zM225 565q0 -184 45 -293l523 676q-82 84 -232 84q-174 0 -255 -112.5t-81 -354.5zM330 178 q82 -84 231 -84q174 0 255 114t81 357q0 185 -45 289zM428 1294l229 310h174l-268 -310h-135z" />
<glyph unicode="&#x218;" horiz-adv-x="1314" d="M141 309q0 41 30 66.5t79 27.5q33 -145 139.5 -221t274.5 -76q172 0 277.5 80t105.5 209q0 76 -38 129.5t-124 95.5t-238 80q-176 47 -276.5 99.5t-144.5 119t-44 164.5q0 172 127 271.5t350 99.5q195 0 325 -91t175 -257q-27 -27 -82 -27q-57 0 -84 56q-45 90 -136 143 t-198 53q-162 0 -245.5 -63.5t-83.5 -184.5q0 -61 30.5 -103t102.5 -77t203 -72q219 -61 330.5 -116.5t156.5 -125t45 -181.5q0 -129 -65.5 -226.5t-187.5 -149.5t-286 -52q-141 0 -259.5 44t-188.5 119.5t-70 165.5zM540 -592q55 68 86 126t41 126h-10q-39 0 -61.5 24.5 t-22.5 65.5v23q0 41 23.5 65.5t62.5 24.5h25q41 0 65.5 -25.5t24.5 -71.5v-22q0 -72 -24.5 -144.5t-61.5 -129.5q-53 -82 -90 -82q-33 0 -58 20z" />
<glyph unicode="&#x219;" horiz-adv-x="993" d="M82 201q0 27 17.5 48t43.5 30q74 -96 160 -140.5t207 -44.5q129 0 195.5 59.5t66.5 157.5q0 66 -40 107t-98.5 61.5t-160.5 46.5q-119 31 -191.5 59.5t-122.5 87t-50 156.5q0 104 55 176t141 107t176 35q129 0 234.5 -51.5t165.5 -149.5q-49 -51 -84 -51q-27 0 -52 29 q-49 57 -113.5 84.5t-156.5 27.5q-104 0 -165.5 -49t-61.5 -151q0 -59 37 -96.5t92 -56.5t151 -44q123 -29 200 -59.5t130 -95t53 -173.5q0 -152 -111.5 -241.5t-297.5 -89.5q-92 0 -190.5 30.5t-164 81.5t-65.5 109zM380 -592q55 68 86 126t41 126h-10q-39 0 -61.5 24.5 t-22.5 65.5v23q0 41 23.5 65.5t62.5 24.5h25q41 0 65.5 -25.5t24.5 -71.5v-22q0 -72 -24.5 -144.5t-61.5 -129.5q-53 -82 -90 -82q-33 0 -58 20z" />
<glyph unicode="&#x21a;" horiz-adv-x="1093" d="M31 1311v123h1032q8 -38 8 -50q0 -35 -18.5 -54t-55.5 -19h-376v-1311h-148v1311h-442zM434 -592q55 68 86 126t41 126h-10q-39 0 -61.5 24.5t-22.5 65.5v23q0 41 23.5 65.5t62.5 24.5h25q41 0 65.5 -25.5t24.5 -71.5v-22q0 -72 -24.5 -144.5t-61.5 -129.5 q-53 -82 -90 -82q-33 0 -58 20z" />
<glyph unicode="&#x21b;" horiz-adv-x="765" d="M25 1016v110h213v308h139v-308h295v-110h-295v-742q0 -172 147 -172q94 0 176 35q15 -10 24 -29.5t9 -39.5q0 -39 -33 -56q-66 -33 -170 -32q-133 0 -212.5 72.5t-79.5 195.5v768h-213zM393 -592q55 68 86 126t41 126h-10q-39 0 -61.5 24.5t-22.5 65.5v23q0 41 23.5 65.5 t62.5 24.5h25q41 0 65.5 -25.5t24.5 -71.5v-22q0 -72 -24.5 -144.5t-61.5 -129.5q-53 -82 -90 -82q-33 0 -58 20z" />
<glyph unicode="&#x237;" horiz-adv-x="552" d="M-113 -301q0 25 10.5 43t22.5 18q66 -35 156 -34q61 0 95 36.5t34 110.5v1253h139v-1235q0 -139 -71.5 -211.5t-202.5 -72.5q-41 0 -91.5 12t-72.5 35q-18 18 -19 45z" />
<glyph unicode="&#x251;" horiz-adv-x="1224" d="M82 557q0 182 62.5 315.5t179 204t274.5 70.5q86 0 167 -28.5t134 -67.5v75h139v-864q0 -146 29 -246q-51 -25 -94 -24q-55 0 -70 137q-66 -78 -144.5 -113.5t-199.5 -35.5q-131 0 -238.5 60t-173 190t-65.5 327zM225 557q0 -225 90.5 -344t253.5 -119q109 0 188 44 t142 130v647q-47 51 -132 86t-169 35q-178 0 -275.5 -126t-97.5 -353z" />
<glyph unicode="&#x259;" horiz-adv-x="1146" d="M82 483q0 47 4 95h815q-4 213 -95 331.5t-253 118.5q-111 0 -187.5 -43t-127.5 -137q-14 -27 -43 -27q-33 0 -91 39q45 133 166 210t283 77q149 0 261 -70.5t171 -203t59 -312.5q0 -272 -135 -426.5t-370 -154.5q-215 0 -336 133t-121 370zM225 467q0 -369 320 -369 q155 0 245.5 94.5t106.5 274.5h-672z" />
<glyph unicode="&#x2bb;" horiz-adv-x="493" d="M127 1278q0 123 90 244q23 29 50.5 49t51.5 20q25 0 50 -30q-109 -92 -109 -185q0 -88 72 -147q0 -39 -25.5 -64.5t-68.5 -25.5q-50 0 -80.5 34.5t-30.5 104.5z" />
<glyph unicode="&#x2bc;" horiz-adv-x="493" d="M119 1032q109 92 108 185q0 88 -71 147q0 39 25.5 64.5t68.5 25.5q49 0 79.5 -35t30.5 -104q0 -131 -90 -244q-23 -29 -50 -49.5t-52 -20.5q-22 0 -49 31z" />
<glyph unicode="&#x2be;" d="M-113 1286v96q55 0 92 37t37 90q0 57 -36.5 92t-92.5 35v99q94 0 160 -64.5t66 -161.5q0 -96 -65.5 -159.5t-160.5 -63.5z" />
<glyph unicode="&#x2bf;" d="M-113 1509q0 96 65.5 161t160.5 65v-99q-55 0 -92 -34.5t-37 -92.5q0 -53 36.5 -90t92.5 -37v-96q-95 0 -160.5 63.5t-65.5 159.5z" />
<glyph unicode="&#x2c6;" horiz-adv-x="497" d="M-55 1294l229 273h150l227 -273h-131l-170 170l-174 -170h-131z" />
<glyph unicode="&#x2c7;" horiz-adv-x="497" d="M-45 1587h111l184 -176l180 176h111l-217 -268h-150z" />
<glyph unicode="&#x2c8;" d="M-70 1184v301h140v-301h-140z" />
<glyph unicode="&#x2c9;" horiz-adv-x="901" d="M117 1339v123h667v-123h-667z" />
<glyph unicode="&#x2ca;" d="M-201 1294l230 310h174l-269 -310h-135z" />
<glyph unicode="&#x2cb;" d="M-188 1604h170l206 -310h-135z" />
<glyph unicode="&#x2cc;" d="M-70 -82h140v-301h-140v301z" />
<glyph unicode="&#x2d8;" horiz-adv-x="497" d="M-66 1509q0 33 25 54.5t70 21.5q12 -88 65 -139t154 -51q98 0 152.5 54t68.5 146q43 0 68.5 -22.5t25.5 -61.5q0 -59 -38 -108t-109.5 -80t-167.5 -31q-101 0 -172.5 32t-106.5 82t-35 103z" />
<glyph unicode="&#x2d9;" horiz-adv-x="507" d="M154 1425v19q0 92 92 92h16q92 0 92 -92v-19q0 -92 -92 -92h-16q-92 0 -92 92z" />
<glyph unicode="&#x2da;" horiz-adv-x="499" d="M25 1509q0 96 65.5 161t159.5 65t159.5 -64.5t65.5 -161.5q0 -96 -65.5 -159.5t-159.5 -63.5t-159.5 63.5t-65.5 159.5zM121 1509q0 -53 37 -90t92 -37q53 0 90 37t37 90q0 57 -36 92t-91 35t-92 -34.5t-37 -92.5z" />
<glyph unicode="&#x2db;" horiz-adv-x="497" d="M37 -242q0 88 50 146.5t140 103.5h84q-72 -47 -110.5 -107.5t-38.5 -125.5q0 -51 28.5 -79t79.5 -28q61 0 109 21q12 -18 12 -41q0 -29 -37 -49.5t-104 -20.5q-96 0 -154.5 50t-58.5 130z" />
<glyph unicode="&#x2dc;" horiz-adv-x="499" d="M-57 1356q0 74 50 114.5t128 40.5q45 0 78.5 -13t74.5 -38q31 -20 53.5 -29.5t49.5 -9.5q84 0 98 97q39 0 60.5 -17.5t21.5 -44.5q0 -59 -47 -102t-127 -43q-47 0 -82 13t-78 38q-33 20 -57.5 29.5t-52.5 9.5q-80 0 -97 -94q-73 0 -73 49z" />
<glyph unicode="&#x2dd;" horiz-adv-x="497" d="M2 1253l170 310h174l-233 -310h-111zM274 1253l207 310h174l-268 -310h-113z" />
<glyph unicode="&#x300;" d="M-241 1604h170l207 -310h-136z" />
<glyph unicode="&#x301;" d="M-498 1294l229 310h174l-268 -310h-135z" />
<glyph unicode="&#x302;" d="M-305 1294l229 273h150l227 -273h-131l-170 170l-174 -170h-131z" />
<glyph unicode="&#x303;" d="M-305 1356q0 74 50 114.5t128 40.5q45 0 78.5 -13t74.5 -38q31 -20 53.5 -29.5t49.5 -9.5q84 0 98 97q39 0 60.5 -17.5t21.5 -44.5q0 -59 -47 -102t-127 -43q-47 0 -82 13t-78 38q-33 20 -57.5 29.5t-52.5 9.5q-80 0 -97 -94q-73 0 -73 49z" />
<glyph unicode="&#x304;" d="M-334 1339v123h668v-123h-668z" />
<glyph unicode="&#x306;" d="M-314 1509q0 33 25 54.5t70 21.5q12 -88 65 -139t154 -51q98 0 152.5 54t68.5 146q43 0 68.5 -22.5t25.5 -61.5q0 -59 -38 -108t-109.5 -80t-167.5 -31q-101 0 -172.5 32t-106.5 82t-35 103z" />
<glyph unicode="&#x307;" d="M-100 1425v19q0 92 92 92h16q92 0 92 -92v-19q0 -92 -92 -92h-16q-92 0 -92 92z" />
<glyph unicode="&#x308;" d="M-309 1401v18q0 92 92 92h17q92 0 92 -92v-18q0 -92 -92 -92h-17q-92 0 -92 92zM109 1401v18q0 92 92 92h16q92 0 92 -92v-18q0 -92 -92 -92h-16q-92 0 -92 92z" />
<glyph unicode="&#x309;" d="M-530 1565q0 55 52 97t134 42q92 0 148.5 -50t56.5 -143q0 -164 -183 -251q-26 0 -50.5 16t-24.5 39q76 41 107.5 86t31.5 104q0 45 -23.5 71t-66.5 26t-68.5 -27t-42.5 -72q-31 0 -51 17.5t-20 44.5z" />
<glyph unicode="&#x30a;" d="M-225 1509q0 96 65.5 161t159.5 65t159.5 -64.5t65.5 -161.5q0 -96 -65.5 -159.5t-159.5 -63.5t-159.5 63.5t-65.5 159.5zM-129 1509q0 -53 37 -90t92 -37q53 0 90 37t37 90q0 57 -36 92t-91 35t-92 -34.5t-37 -92.5z" />
<glyph unicode="&#x30b;" d="M-227 1253l170 310h174l-233 -310h-111zM45 1253l207 310h174l-268 -310h-113z" />
<glyph unicode="&#x30c;" d="M-297 1587h111l184 -176l180 176h111l-217 -268h-150z" />
<glyph unicode="&#x31b;" d="M-164 639v102q57 0 96 38t39 100q0 61 -59 106q4 27 26.5 47.5t51.5 20.5q53 0 86 -40t33 -114q0 -119 -74 -185.5t-199 -74.5z" />
<glyph unicode="&#x323;" d="M-328 -256q0 92 92 92h17q92 0 92 -92v-18q0 -92 -92 -93h-17q-92 1 -92 93v18z" />
<glyph unicode="&#x324;" d="M-309 -256q0 92 92 92h16q92 0 92 -92v-18q0 -92 -92 -93h-16q-92 1 -92 93v18zM109 -256q0 92 92 92h16q92 0 92 -92v-18q0 -92 -92 -93h-16q-92 1 -92 93v18z" />
<glyph unicode="&#x326;" d="M-613 -592q55 68 86 126t41 126h-10q-39 0 -61.5 24.5t-22.5 65.5v23q0 41 23.5 65.5t62.5 24.5h25q41 0 65.5 -25.5t24.5 -71.5v-22q0 -72 -24.5 -144.5t-61.5 -129.5q-53 -82 -90 -82q-33 0 -58 20z" />
<glyph unicode="&#x327;" d="M-252 -383q0 12 6 29q84 -23 172 -23q61 0 96.5 25.5t35.5 68.5q0 31 -28 54.5t-77 23.5q-39 0 -82 -14l-35 65l117 154h119l-92 -113h14q86 0 139.5 -43t53.5 -123q0 -90 -72 -140t-176 -50q-92 0 -141.5 22.5t-49.5 63.5z" />
<glyph unicode="&#x328;" d="M-201 -242q0 88 50 146.5t140 103.5h84q-72 -47 -110.5 -107.5t-38.5 -125.5q0 -51 28.5 -79t79.5 -28q61 0 109 21q12 -18 12 -41q0 -29 -37 -49.5t-104 -20.5q-96 0 -154.5 50t-58.5 130z" />
<glyph unicode="&#x32e;" d="M-318 -197q0 33 25 54.5t70 21.5q12 -88 65 -139t154 -51q98 0 152.5 54t68.5 146q43 0 68.5 -22.5t25.5 -61.5q0 -59 -38 -108t-109.5 -80t-167.5 -31q-101 0 -172.5 32t-106.5 82t-35 103z" />
<glyph unicode="&#x331;" d="M-334 -144h668v-123h-668v123z" />
<glyph unicode="&#x394;" horiz-adv-x="1118" d="M0 0v61l492 1373h135l491 -1373v-61h-1118zM162 119h794l-397 1138z" />
<glyph unicode="&#x3a9;" horiz-adv-x="1384" d="M102 0v119h349v182q-100 33 -179 113t-124.5 191.5t-45.5 234.5q0 184 74 323.5t207 215t309 75.5t309.5 -75.5t207 -215t73.5 -323.5q0 -125 -45 -236.5t-124 -191.5t-179 -111v-182h348v-119h-471v383q98 20 176 87t121 163t43 207q0 150 -57.5 261t-161 171.5 t-240.5 60.5t-240.5 -60.5t-159.5 -172t-56 -260.5q0 -111 43 -207t120.5 -163t175.5 -87v-383h-473z" />
<glyph unicode="&#x3bc;" horiz-adv-x="1249" d="M184 -451v1577h138v-757q0 -139 72.5 -211t201.5 -72q100 0 185 59.5t137 161.5v819h141v-895q0 -81 8 -128.5t23 -88.5q-49 -25 -89 -24q-45 0 -62 36.5t-21 125.5q-55 -86 -133 -131.5t-193 -45.5q-184 0 -270 101v-527h-138z" />
<glyph unicode="&#x3c0;" horiz-adv-x="1310" d="M59 1004v122h1164v-122h-244v-779q0 -74 34 -102.5t95 -28.5q41 0 83 10.5t64 26.5v-104q-45 -27 -89 -37t-101 -10q-109 0 -164 66.5t-55 170.5v787h-434v-1004h-133v1004h-220z" />
<glyph unicode="&#xe01;" horiz-adv-x="1239" d="M113 901q0 66 65.5 135.5t179 116.5t252.5 47q127 0 232.5 -46t169 -140t63.5 -230v-784h-133v784q0 156 -88 233t-244 77q-98 0 -183 -31t-135 -75t-50 -81q0 -27 24.5 -52.5t56 -42.5t52.5 -17q18 0 39.5 8t27.5 10q41 16 56 16q14 0 38.5 -32.5t24.5 -53.5 q0 -14 -14 -14q-127 0 -176 -67.5t-49 -206.5v-455h-134v455q0 96 21.5 160.5t64.5 107.5q-59 25 -110 74t-51 104z" />
<glyph unicode="&#xe02;" horiz-adv-x="1167" d="M102 924q0 119 81 190.5t206 71.5q135 0 221 -69.5t86 -209.5q0 -94 -36.5 -164.5t-93 -120t-152.5 -116.5v-195q0 -121 53 -172t174 -51q88 0 137 20.5t70.5 71.5t21.5 146v854h134v-846q0 -188 -90.5 -270t-274.5 -82q-170 0 -264 82.5t-94 244.5v211q0 39 26 53 q98 59 152.5 100.5t88.5 96.5t34 131q0 100 -55.5 147.5t-139.5 47.5q-78 0 -134 -48.5t-56 -123.5q0 -57 28.5 -87t75.5 -30q43 0 67.5 25.5t24.5 68.5q0 41 -22.5 64.5t-61.5 23.5q-25 0 -41 -4q2 18 24.5 35.5t57.5 17.5q55 0 96 -36.5t41 -108.5q0 -76 -54 -126 t-130 -50q-82 0 -141.5 56t-59.5 151z" />
<glyph unicode="&#xe03;" horiz-adv-x="1220" d="M70 985q0 92 56 147.5t130 55.5q51 0 84 -19.5t57 -60.5q51 80 150 80q80 0 131 -52.5t51 -152.5q0 -90 -41 -154.5t-117 -138.5q-68 -70 -99.5 -118t-31.5 -111v-135q0 -233 244 -234q133 0 186.5 53.5t53.5 180.5v854h133v-854q0 -168 -95.5 -256t-279.5 -88 q-172 0 -273.5 81.5t-101.5 262.5v143q0 84 39 141.5t117 132.5q72 68 107.5 120t35.5 120q0 51 -22.5 76.5t-63.5 25.5q-74 0 -125 -88q-31 51 -57.5 74t-71.5 23t-73.5 -28t-28.5 -79q0 -53 29.5 -81.5t72.5 -28.5q80 0 111 77q31 -16 31 -47q0 -51 -43 -86t-101 -35 q-86 0 -140 54.5t-54 144.5z" />
<glyph unicode="&#xe04;" horiz-adv-x="1277" d="M147 727q0 150 63.5 256.5t176.5 161.5t256 55q236 0 353.5 -124t117.5 -339v-737h-133v727q0 367 -338 367q-170 0 -266 -89.5t-96 -277.5q0 -115 36 -209q53 123 137.5 194.5t200.5 71.5q84 0 143.5 -53t59.5 -141t-53 -138.5t-139 -50.5q-55 0 -96.5 29t-41.5 76 q0 39 27 53q23 -35 48.5 -51t62.5 -16q47 0 69.5 25.5t22.5 72.5q0 45 -28 70.5t-79 25.5q-88 0 -157.5 -87t-111.5 -242.5t-46 -356.5h-105q-31 0 -30 41q0 90 39 250q12 61 12 63q0 10 -23 60q-37 74 -59.5 143.5t-22.5 169.5z" />
<glyph unicode="&#xe05;" horiz-adv-x="1310" d="M147 727q0 184 87.5 297t254.5 176q104 -66 179 -135q66 63 172 135q164 -53 235.5 -156.5t71.5 -285.5v-758h-133v758q0 145 -40 214.5t-136 104.5q-49 -45 -170 -123q-121 74 -176 123q-102 -41 -156.5 -123t-54.5 -227q0 -115 36 -209q53 121 139.5 193.5t202.5 72.5 q84 0 143.5 -53t59.5 -141t-53 -138.5t-139 -50.5q-55 0 -96.5 29t-41.5 76q0 39 27 53q23 -35 48.5 -51t62.5 -16q47 0 69.5 25.5t22.5 72.5q0 45 -27.5 70.5t-79.5 25.5q-88 0 -158.5 -87t-113.5 -242.5t-47 -356.5h-105q-31 0 -30 41q0 90 39 250q12 61 12 63 q0 10 -23 60q-37 74 -59.5 143.5t-22.5 169.5z" />
<glyph unicode="&#xe06;" horiz-adv-x="1331" d="M90 985q0 94 56.5 148.5t129.5 54.5q106 0 142 -80q37 76 149 76q78 0 130.5 -50.5t52.5 -150.5q0 -94 -34 -156.5t-102 -148.5q-74 -88 -92 -158q156 -23 284 -102.5t191 -184.5v947h133v-953q1 -63 9 -137l4 -59q0 -31 -29 -31h-110q-57 174 -188.5 281.5t-301.5 132.5 q0 -55 2 -80l2 -90q0 -123 -40 -192.5t-152 -69.5q-88 0 -141.5 62t-53.5 185q0 127 71.5 206t184.5 89q14 61 44 108.5t83 110.5q57 70 85 121t28 119q0 49 -23.5 73.5t-62.5 24.5q-78 0 -125 -84q-23 47 -53.5 72t-75.5 25t-74 -29t-29 -78q0 -47 30 -74.5t73 -27.5 q45 0 71.5 24.5t32.5 59.5q18 -2 29.5 -15.5t11.5 -33.5q0 -51 -44 -88t-103 -37q-86 0 -140.5 52t-54.5 138zM246 236q0 -70 21.5 -109t58.5 -39q36 0 48.5 26.5t12.5 80.5l-2 75q0 41 -2 64l-2 84q-135 -20 -135 -182z" />
<glyph unicode="&#xe07;" horiz-adv-x="1064" d="M72 748q16 25 40.5 41t51.5 16q25 0 41 -11.5t33 -35.5q119 -195 206 -633q2 -14 38 -22.5t96 -8.5q57 0 95 9.5t40 27.5q37 227 56 443.5t19 361.5q0 82 -27.5 118t-82.5 36q-43 0 -68.5 -23t-25.5 -61q0 -41 22.5 -64.5t63.5 -23.5q37 0 69 12q8 -10 9 -27 q0 -27 -26 -48t-75 -21q-76 0 -123 46t-47 126q0 84 57.5 135t149.5 51q115 0 176.5 -65.5t61.5 -188.5q0 -166 -25 -396.5t-74 -494.5q-4 -25 -74.5 -40t-158.5 -15q-94 0 -174 16.5t-84 36.5q-51 250 -110.5 414t-149.5 289z" />
<glyph unicode="&#xe08;" horiz-adv-x="1204" d="M96 975q72 92 197 158.5t293 66.5q207 0 331.5 -108.5t124.5 -311.5q0 -72 -9 -137t-29 -176q-23 -125 -36.5 -217t-21.5 -213q-2 -23 -66.5 -39t-136.5 -16q-84 0 -144 16t-62 39q-8 145 -17.5 269t-23.5 200q-23 121 -117 121q-43 0 -67.5 -22.5t-24.5 -65.5 q0 -39 26.5 -63.5t69.5 -24.5q31 0 63 14q4 -8 5 -25q0 -31 -28 -53t-71 -22q-78 0 -125 46t-47 128q0 84 55.5 135t143.5 51q94 0 153.5 -52t77.5 -141q27 -125 52 -434q0 -10 23.5 -16t57.5 -6q37 0 59.5 7t22.5 17q8 143 47 365q18 100 27.5 172t9.5 143q0 152 -83 231 t-240 79q-113 0 -199 -43t-158 -125q-12 -12 -20 -17.5t-23 -5.5q-23 0 -47 22.5t-43 53.5z" />
<glyph unicode="&#xe09;" horiz-adv-x="1292" d="M92 543q0 82 61.5 140t151.5 58q98 0 162.5 -58t64.5 -155q0 -68 -8 -182l-4 -65q61 86 150.5 134t185.5 48q61 0 105 -8q41 41 40 86v235q0 150 -91 232t-261 82q-133 0 -227 -52.5t-189 -146.5q-8 -8 -20 -8q-23 0 -50.5 21.5t-47.5 60.5q90 104 231 169.5t303 65.5 q227 0 356.5 -108.5t129.5 -315.5v-256q0 -61 -50 -106q64 -35 100 -89.5t36 -127.5q0 -88 -63.5 -146.5t-153.5 -58.5t-153 58.5t-63 146.5q0 53 19.5 93t54.5 75h-12q-117 0 -210 -111t-136 -254h-80q-20 0 -28.5 7t-8.5 24v196q0 37 2 82t4 70q6 72 6 149q0 55 -28.5 85 t-77.5 30q-45 0 -74 -27.5t-29 -72.5q0 -43 29 -70t74 -27q43 0 67 21q8 -8 9 -27q0 -29 -27 -52t-78 -23q-70 0 -121 48t-51 130zM903 205q0 -47 25.5 -77t75.5 -30q49 0 75.5 29t26.5 78q0 100 -111 139q-45 -33 -68.5 -64.5t-23.5 -74.5z" />
<glyph unicode="&#xe0a;" horiz-adv-x="1259" d="M106 958q0 96 73 162t192 66q123 0 205.5 -69.5t82.5 -186.5q0 -145 -77.5 -254t-178.5 -178v-187q0 -117 69 -170t187 -53q141 0 202 51t61 187v368q0 82 -29 128t-59 46q-18 0 -36 -3t-38 -3q-14 0 -29.5 26.5t-15.5 43.5q0 16 12 18q113 29 173.5 97.5t105.5 203.5 q43 0 75.5 -22.5t32.5 -57.5q0 -57 -60.5 -133.5t-133.5 -113.5q135 -56 135 -230v-360q0 -188 -101.5 -270t-296.5 -82q-168 0 -277.5 84t-109.5 243v201q0 37 27 53q115 80 183.5 165t68.5 196q0 82 -52.5 125t-136.5 43q-74 0 -112.5 -37t-38.5 -97q0 -47 24.5 -74.5 t65.5 -27.5q43 0 67.5 25.5t24.5 68.5t-18 68q12 6 33 6q29 0 49 -25.5t20 -64.5q0 -72 -49 -122t-131 -50q-80 0 -134.5 53t-54.5 143z" />
<glyph unicode="&#xe0b;" horiz-adv-x="1259" d="M49 985q0 94 56.5 148.5t130.5 54.5q53 0 84.5 -19.5t56.5 -60.5q51 80 149 80q78 0 130.5 -50.5t52.5 -150.5q0 -90 -43 -154.5t-125 -142.5q-70 -66 -106 -115t-36 -114v-135q0 -119 72 -176.5t193 -57.5q139 0 209.5 55.5t70.5 178.5v383q0 88 -27.5 131t-60.5 43 q-12 0 -33.5 -5.5t-36.5 -5.5q-14 0 -29.5 27t-15.5 43t13 19q113 29 171 93t103 197q47 -4 78 -25.5t31 -54.5q0 -55 -58.5 -125.5t-132.5 -107.5q131 -47 131 -229v-383q0 -164 -112.5 -254t-302.5 -90q-176 0 -286 82.5t-110 261.5v143q0 84 43 143.5t125 132.5 q76 70 114 122.5t38 119.5q0 49 -23.5 73.5t-62.5 24.5q-74 0 -125 -88q-31 51 -57.5 74t-71.5 23t-74 -29t-29 -78q0 -47 30 -74.5t73 -27.5q74 0 110 73q31 -10 31 -49q0 -49 -41 -81.5t-102 -32.5q-86 0 -140.5 52t-54.5 138z" />
<glyph unicode="&#xe0c;" horiz-adv-x="1884" d="M113 901q0 66 65.5 135.5t179 116.5t252.5 47q211 0 348.5 -106.5t137.5 -309.5v-321q135 -14 251.5 -71.5t204.5 -155.5v944h134v-897q0 -107 8 -193l2 -49q0 -41 -31 -41h-109q-70 160 -188.5 250t-271.5 106q2 -37 2 -131q0 -117 -42 -180t-136 -63q-84 0 -139.5 59 t-55.5 160q0 121 67.5 185.5t170.5 78.5v319q0 156 -91.5 234t-261.5 78q-98 0 -183 -32t-135 -76t-50 -81q0 -27 25.5 -52.5t59 -42.5t54.5 -17q27 0 68 16q37 12 51 12q12 0 30.5 -25.5t25.5 -50t-7 -24.5q-127 0 -177 -66.5t-50 -203.5v-211q0 -78 32.5 -118t87.5 -40 q53 0 80 27.5t27 72.5t-26.5 71t-71.5 26q-31 0 -80 -13q-6 12 -6 27q0 31 25.5 51.5t74.5 20.5q78 0 130 -47.5t52 -135.5t-60.5 -143t-152.5 -55q-106 0 -176 66.5t-70 187.5v213q0 96 21.5 161.5t66.5 108.5q-59 25 -111 74t-52 104zM840 207q0 -55 20.5 -87t59.5 -32 q30 0 40.5 31t10.5 110q0 45 -4 131q-57 -8 -92 -41.5t-35 -111.5z" />
<glyph unicode="&#xe0d;" horiz-adv-x="1925" d="M113 901q0 66 61.5 135.5t173 116.5t252.5 47q215 0 345 -105.5t130 -310.5v-432q0 -102 26.5 -157.5t86 -78t164.5 -22.5q109 0 167 22.5t83.5 77t25.5 154.5v832h133v-832q0 -201 -100 -283.5t-309 -82.5t-309.5 85t-100.5 281v436q0 160 -85 236t-257 76 q-100 0 -182 -31t-129 -76t-47 -82q0 -27 29.5 -52.5t69.5 -42.5t60 -17q33 0 74 16q37 12 49 12q16 0 38 -31.5t22 -52.5q0 -16 -19 -16q-244 0 -243 -270v-211q0 -78 32.5 -118t87.5 -40q53 0 80 27.5t27 72.5t-26.5 71t-71.5 26q-31 0 -80 -13q-6 12 -6 27 q0 31 25.5 51.5t74.5 20.5q78 0 130 -47.5t52 -135.5t-60.5 -143t-152.5 -55q-106 0 -176 66.5t-70 187.5v213q0 178 107 270q-66 25 -124 74t-58 104zM987 -266q0 78 48 122t118 44q63 0 102 -40t39 -91q0 -37 -18.5 -60.5t-46.5 -23.5q-12 0 -29 6q10 16 10 49 q0 31 -15 50.5t-44 19.5q-31 0 -49.5 -16.5t-18.5 -47.5q0 -49 54.5 -82t152.5 -33q121 0 182.5 42t90.5 145q14 47 59 47q33 0 88 -25q-25 -152 -140.5 -229.5t-279.5 -77.5q-133 0 -218 53.5t-85 147.5z" />
<glyph unicode="&#xe0e;" horiz-adv-x="1290" d="M33 164q0 76 45 119t102 43q35 0 56.5 -19.5t21.5 -50.5h-39q-45 0 -68.5 -24.5t-23.5 -67.5q0 -35 24.5 -60.5t67.5 -25.5t66.5 28.5t23.5 73.5q0 61 -12 124t-14 73q-2 14 -12.5 67.5t-10.5 98.5q0 115 62 176q-70 23 -129.5 81t-59.5 111q0 57 67.5 126t184.5 116 t258 47q213 0 348 -105.5t135 -344.5v-1252h-135q-39 53 -97 106.5t-126 92.5q-51 -94 -143.5 -150.5t-198.5 -56.5t-177 53.5t-71 132.5q0 53 41 100.5t110.5 75t155.5 27.5q98 0 203 -33q14 61 17 127q57 0 84.5 -23.5t27.5 -58.5q0 -47 -10 -94q111 -59 186 -145v1098 q0 199 -91 272.5t-259 73.5q-102 0 -189 -29t-138.5 -71t-51.5 -78q0 -25 26.5 -53.5t59.5 -48t47 -19.5q12 0 34 8t28 10q45 20 63 21q14 0 32.5 -24t26 -47.5t-9.5 -23.5q-90 0 -134 -55t-44 -147q0 -49 6.5 -104.5t8.5 -72.5q16 -115 16 -180q0 -94 -53.5 -146 t-151.5 -52q-82 0 -134 51t-52 129zM299 -326q0 -37 35 -60.5t90 -23.5q76 0 136.5 41t96.5 121q-88 31 -159 31q-92 0 -145.5 -33t-53.5 -76z" />
<glyph unicode="&#xe0f;" horiz-adv-x="1290" d="M33 164q0 76 45 119t102 43q35 0 56.5 -19.5t21.5 -50.5h-39q-45 0 -68.5 -24.5t-23.5 -67.5q0 -35 24.5 -60.5t67.5 -25.5t66.5 28.5t23.5 73.5q0 61 -12 124t-14 73q-2 14 -12.5 67.5t-10.5 98.5q0 115 62 176q-70 23 -129.5 81t-59.5 111q0 57 67.5 126t184.5 116 t258 47q213 0 348 -105.5t135 -344.5v-1262h-139l-151 113l-160 -107l-109 103q-45 -53 -104.5 -84t-128.5 -31q-82 0 -139.5 47t-57.5 123q0 82 63.5 129t143.5 47q96 0 188 -72q27 86 27 170q47 0 77 -19.5t30 -60.5q0 -84 -45 -170l65 -59l152 98l159 -114l-4 1149 q0 199 -91 272.5t-259 73.5q-102 0 -189 -29t-138.5 -71t-51.5 -78q0 -25 26.5 -53.5t59.5 -48t47 -19.5q12 0 34 8t28 10q45 20 63 21q14 0 32.5 -24t26 -47.5t-9.5 -23.5q-90 0 -134 -55t-44 -147q0 -49 6.5 -104.5t8.5 -72.5q16 -115 16 -180q0 -94 -53.5 -146 t-151.5 -52q-82 0 -134 51t-52 129zM233 -344q0 -39 32 -61.5t79 -22.5q87 0 148 96q-41 35 -73 52.5t-69 17.5q-49 0 -83 -20.5t-34 -61.5z" />
<glyph unicode="&#xe10;" horiz-adv-x="1206" d="M141 -424q0 76 50.5 119t125.5 43q47 0 87 -23.5t79 -60.5q14 55 15 133q51 0 70.5 -10t19.5 -41q0 -84 -35 -154l57 -59l111 61l145 -76q0 45 35 111q16 33 24.5 55.5t8.5 49.5q0 35 -18.5 55t-51.5 20q-31 0 -50 -18.5t-19 -46.5q0 -29 18 -50.5t53 -27.5 q-2 -12 -16 -19.5t-37 -7.5q-39 0 -68.5 30t-29.5 75q0 68 44 107.5t109 39.5q78 0 121 -42t43 -111q0 -31 -9 -66t-19 -68q-37 -98 -37 -172h-131l-111 68l-127 -74l-90 95q-37 -43 -86 -69t-103 -26q-84 0 -131 49.5t-47 110.5zM156 922q0 125 87 197.5t214 72.5 q47 0 103 -7t106 -16q106 -16 139 -16q158 0 237 53q31 -43 31 -82q0 -47 -65.5 -68.5t-167.5 -21.5q-39 0 -158 21q-53 10 -113.5 18t-111.5 8q-168 0 -168 -155q0 -66 24 -97l54 5q158 18 290 14q170 -6 265.5 -92t95.5 -238q0 -55 -9.5 -124.5t-19.5 -139.5 q-25 -160 -28 -217q-2 -25 -60.5 -40t-140.5 -15q-84 0 -147.5 17t-63.5 40q-2 111 -6 183.5t-15 142.5q-12 74 -35.5 100.5t-68.5 26.5q-39 0 -63.5 -24t-24.5 -62q0 -39 22.5 -61.5t65.5 -22.5q39 0 70 22q10 -14 10 -27q0 -29 -30 -51t-85 -22q-70 0 -115 45t-45 117 q0 80 54.5 130t140.5 50q190 0 221 -197q20 -139 25 -289q0 -10 25.5 -17t60.5 -7q37 0 59.5 7t24.5 17l10 68q12 84 23.5 174t11.5 158q0 119 -66.5 178t-224.5 59q-94 0 -270 -18l-86 -8q-82 90 -82 211zM236 -420q0 -37 24.5 -55.5t63.5 -18.5q82 0 127 66 q-78 78 -132 78q-33 0 -58 -18.5t-25 -51.5z" />
<glyph unicode="&#xe11;" horiz-adv-x="1341" d="M53 985q0 94 54.5 148.5t128.5 54.5q53 0 82.5 -19.5t54.5 -60.5q23 37 59.5 58.5t81.5 21.5q59 0 98 -37t52 -102q49 61 116.5 100t139.5 39q122 0 190 -70.5t68 -206.5v-911h-134v899q0 100 -27.5 139t-90.5 39q-53 0 -97.5 -26.5t-102.5 -95t-157 -207.5 q-63 -90 -96 -154t-33 -139l-2 -455h-100q-41 0 -41 41q0 8 4 49q6 86 6 127v246q0 72 22.5 131t49.5 98t84 113q35 49 58.5 101t23.5 95q0 39 -16.5 61.5t-45.5 22.5q-61 0 -112 -88q-33 53 -57.5 75t-67.5 22q-45 0 -72 -29t-27 -78q0 -47 28 -74.5t71 -27.5 q37 0 64.5 21.5t41.5 51.5q31 -16 31 -47q0 -45 -42 -80.5t-97 -35.5q-86 0 -138.5 52t-52.5 138z" />
<glyph unicode="&#xe12;" horiz-adv-x="1914" d="M133 700q0 186 92 312.5t256 187.5q104 -66 178 -135q66 63 172 135q162 -51 232 -154.5t70 -287.5v-305q135 -14 251.5 -72.5t202.5 -157.5v957h133v-922q0 -108 3 -155.5t3 -61.5q0 -41 -43 -41h-92q-70 160 -186.5 245t-269.5 103v-123q0 -244 -185 -243 q-84 0 -139 59t-55 160q0 111 71.5 174t171.5 78v305q0 147 -36.5 215.5t-133.5 103.5q-49 -45 -170 -123q-121 74 -176 123q-98 -41 -154.5 -134t-56.5 -243q0 -242 136 -372q47 49 188 151l51 39q37 31 57.5 63.5t20.5 63.5q0 49 -26.5 74.5t-69.5 25.5q-45 0 -73 -23.5 t-28 -66.5q0 -35 14.5 -60.5t47.5 -51.5q-23 -25 -60 -25q-43 0 -71.5 42t-28.5 93q0 84 57.5 137.5t145.5 53.5q92 0 145 -55.5t53 -129.5q0 -76 -28.5 -120.5t-93.5 -96.5l-41 -32q-98 -76 -156.5 -129.5t-98.5 -124t-40 -156.5h-117q-10 0 -16.5 4t-6.5 19 q0 43 16.5 78.5t47.5 86.5q25 35 25 45q0 4 -25 33q-68 72 -116 169t-48 265zM870 207q0 -55 20.5 -87t59.5 -32q33 0 45.5 32t12.5 109q0 41 -4 119q-57 -8 -95.5 -42t-38.5 -99z" />
<glyph unicode="&#xe13;" horiz-adv-x="1918" d="M113 901q0 66 63.5 135.5t179 116.5t260.5 47q223 0 351.5 -104.5t128.5 -311.5v-485q70 94 169 146.5t216 52.5q59 0 114 -13q33 45 33 101v594h133v-594q0 -43 -11 -75t-40 -67q66 -34 104.5 -92.5t38.5 -136.5q0 -106 -64.5 -164.5t-158.5 -58.5t-155.5 57t-61.5 162 q0 57 24.5 101t69.5 87h-32q-96 0 -184.5 -57t-141.5 -150.5t-53 -191.5h-119q-10 0 -16.5 4t-6.5 19q0 10 2 18q8 39 9 211l-2 532q0 311 -347 312q-104 0 -190 -31t-135 -76t-49 -82q0 -27 29.5 -52.5t69.5 -42.5t60 -17q29 0 78 22q37 16 51 17q12 0 31 -26t26 -50.5 t-7 -24.5q-129 0 -193.5 -73.5t-64.5 -206.5v-211q0 -78 32.5 -118t87.5 -40q53 0 80 27.5t27 72.5t-26.5 71t-71.5 26q-31 0 -80 -13q-6 12 -6 27q0 31 25.5 51.5t74.5 20.5q78 0 130 -47.5t52 -135.5t-60.5 -143t-152.5 -55q-106 0 -176 66.5t-70 187.5v213q0 174 107 270 q-66 25 -124 74t-58 104zM1524 217q0 -53 28.5 -86t77.5 -33q51 0 80 33t29 90q0 51 -29 89t-80 61q-57 -47 -81.5 -76t-24.5 -78z" />
<glyph unicode="&#xe14;" horiz-adv-x="1273" d="M133 731q0 135 66.5 242.5t180.5 167t255 59.5q231 0 353 -127t122 -346v-727h-133v717q0 184 -85 280.5t-257 96.5t-270.5 -104.5t-98.5 -278.5q0 -221 133 -385q39 41 166 127q63 43 72 49q37 29 55.5 64.5t18.5 66.5q0 49 -26 75.5t-69 26.5q-45 0 -73.5 -24.5 t-28.5 -67.5q0 -35 17.5 -61.5t54.5 -53.5q-16 -14 -27.5 -19t-30.5 -5q-49 0 -80.5 42t-31.5 95q0 86 55 139.5t145 53.5q92 0 146.5 -57.5t54.5 -129.5q0 -76 -29.5 -126t-93.5 -95q-41 -29 -45 -33q-100 -72 -159.5 -122t-101.5 -118.5t-42 -152.5h-117q-10 0 -16 4 t-6 19q0 43 16.5 80.5t46.5 91.5q25 35 25 47q0 16 -35 75q-55 96 -91 191.5t-36 222.5z" />
<glyph unicode="&#xe15;" horiz-adv-x="1290" d="M133 700q0 188 92 317.5t260 182.5q92 -57 174 -135q76 74 168 135q160 -43 229.5 -149.5t69.5 -292.5v-758h-133v758q0 150 -36.5 221.5t-131.5 97.5q-59 -53 -166 -123q-111 66 -172 123q-96 -37 -155.5 -134t-59.5 -243q0 -223 156 -370q31 35 90.5 73.5t67.5 45.5 q55 33 71 47q76 61 76 131q0 45 -27.5 72.5t-68.5 27.5q-45 0 -72.5 -24.5t-27.5 -67.5q0 -35 17 -61.5t54 -53.5q-16 -14 -27.5 -19t-29.5 -5q-49 0 -81 42t-32 95q0 86 55.5 139t143.5 53q92 0 147.5 -56t55.5 -132q0 -78 -29 -124t-92 -91q-123 -84 -183.5 -134 t-105.5 -122t-45 -166h-117q-10 0 -16 4t-6 19q0 35 13 69.5t36 75.5q12 23 21.5 42t9.5 34q0 8 -31 45q-68 84 -115 178t-47 233z" />
<glyph unicode="&#xe16;" horiz-adv-x="1259" d="M113 901q0 66 65.5 135.5t179 116.5t252.5 47q211 0 348.5 -106.5t137.5 -309.5v-784h-133v784q0 156 -91.5 234t-261.5 78q-98 0 -183 -32t-135 -76t-50 -81q0 -27 25.5 -52.5t59 -42.5t54.5 -17q27 0 68 16q37 12 51 12q12 0 30.5 -25.5t25.5 -50t-7 -24.5 q-127 0 -177 -66.5t-50 -203.5v-211q0 -78 32.5 -118t87.5 -40q53 0 80 27.5t27 72.5t-26.5 71t-71.5 26q-31 0 -80 -13q-6 12 -6 27q0 31 25.5 51.5t74.5 20.5q80 0 131 -47.5t51 -135.5t-60.5 -143t-152.5 -55q-106 0 -176 66.5t-70 187.5v213q0 96 21.5 161.5t66.5 108.5 q-59 25 -111 74t-52 104z" />
<glyph unicode="&#xe17;" horiz-adv-x="1361" d="M61 1006q0 84 55.5 139t143.5 55q96 0 158.5 -56.5t62.5 -158.5l-2 -420q68 205 121 326q61 141 150.5 225t210.5 84q108 0 172.5 -66.5t64.5 -193.5v-940h-133v932q0 154 -121 153q-74 0 -132 -61t-118 -190q-113 -246 -162 -414t-53 -334l-2 -86h-110q-16 0 -23.5 8 t-7.5 29q0 14 5 68.5t5 123.5v764q0 47 -23.5 78t-70.5 31q-45 0 -68.5 -25.5t-23.5 -70.5q0 -47 27.5 -74t72.5 -27h49q0 -82 -84 -82q-63 0 -113.5 50.5t-50.5 132.5z" />
<glyph unicode="&#xe18;" horiz-adv-x="1208" d="M127 915q0 127 92 202t234 75q45 0 112.5 -6t89.5 -8q123 -12 162 -13q137 0 217 54q31 -39 31 -80q0 -47 -57.5 -69.5t-155.5 -22.5q-74 0 -199 18q-18 2 -83.5 10t-116.5 8q-98 0 -149.5 -44t-51.5 -121q0 -35 7 -70t22 -53h106q252 0 373 -29q127 -31 194.5 -98.5 t67.5 -210.5v-150q0 -127 -44 -197.5t-134 -99t-244 -28.5q-149 0 -234 29.5t-123 99t-38 196.5v234q33 8 69 8q33 0 48.5 -10.5t15.5 -34.5v-189q0 -88 17.5 -133t72.5 -67.5t172 -22.5q119 0 181.5 20.5t85 63.5t22.5 123v158q0 96 -38 139t-124 63q-104 27 -356 27 l-164 -2q-35 31 -57.5 99.5t-22.5 131.5z" />
<glyph unicode="&#xe19;" horiz-adv-x="1304" d="M20 1006q0 84 55.5 139t143.5 55q96 0 158.5 -56.5t62.5 -158.5l-2 -715q72 98 181.5 151.5t232.5 53.5q66 0 117 -8q20 25 29.5 46.5t9.5 49.5v617h133v-627q0 -68 -49 -121q141 -65 141 -229q0 -94 -64.5 -152.5t-158.5 -58.5q-96 0 -159 58.5t-63 152.5q0 57 21.5 98 t58.5 76h-22q-94 0 -189.5 -53.5t-157 -140.5t-61.5 -183h-98q-41 0 -41 41q0 23 2 41q6 104 6 149l-2 762q0 47 -23.5 78t-70.5 31q-45 0 -68.5 -25.5t-23.5 -70.5q0 -47 27.5 -74t72.5 -27h49q0 -82 -84 -82q-63 0 -113.5 50.5t-50.5 132.5zM899 211q0 -51 29.5 -82 t81.5 -31q51 0 79.5 30t28.5 83q0 102 -119 143q-49 -35 -74.5 -66.5t-25.5 -76.5z" />
<glyph unicode="&#xe1a;" horiz-adv-x="1361" d="M20 1006q0 84 55.5 139t143.5 55q96 0 158.5 -56.5t62.5 -158.5l-2 -610q0 -166 41 -209q76 -78 277 -78q205 0 274 78q23 25 29 63.5t6 110.5v840h133v-791q0 -119 -13.5 -180.5t-51.5 -106.5q-111 -121 -377 -120q-289 -1 -389 120q-35 41 -48.5 112t-13.5 175v604 q0 47 -23.5 78t-70.5 31q-45 0 -68.5 -25.5t-23.5 -70.5q0 -47 27.5 -74t72.5 -27h49q0 -82 -84 -82q-63 0 -113.5 50.5t-50.5 132.5z" />
<glyph unicode="&#xe1b;" horiz-adv-x="1361" d="M20 1006q0 84 55.5 139t143.5 55q96 0 158.5 -56.5t62.5 -158.5l-2 -610q0 -166 41 -209q76 -78 277 -78q205 0 274 78q23 25 29 63.5t6 110.5v1264h133v-1215q0 -119 -13.5 -180.5t-51.5 -106.5q-111 -121 -377 -120q-289 -1 -389 120q-35 41 -48.5 112t-13.5 175v604 q0 47 -23.5 78t-70.5 31q-45 0 -68.5 -25.5t-23.5 -70.5q0 -47 27.5 -74t72.5 -27h49q0 -82 -84 -82q-63 0 -113.5 50.5t-50.5 132.5z" />
<glyph unicode="&#xe1c;" horiz-adv-x="1277" d="M139 23q0 25 6 73q10 129 11 180v670q0 121 69.5 187.5t175.5 66.5q92 0 152.5 -55t60.5 -144q0 -88 -51 -135t-131 -47q-49 0 -74.5 20.5t-25.5 51.5q0 14 6 27q49 -12 80 -13q45 0 71.5 25.5t26.5 70.5q0 47 -26.5 74t-79.5 27q-55 0 -89 -40t-34 -118l2 -655 q49 80 143 171t199 165h16q100 -68 187.5 -158t138.5 -174v887h133v-910q0 -78 6 -170l2 -55q0 -27 -7 -36t-24 -9h-104v29q0 94 -97.5 220t-242.5 251q-152 -123 -255 -250t-103 -221v-29h-111q-31 0 -31 23z" />
<glyph unicode="&#xe1d;" horiz-adv-x="1277" d="M139 23q0 25 6 73q10 129 11 180v670q0 121 69.5 187.5t175.5 66.5q92 0 152.5 -55t60.5 -144q0 -88 -51 -135t-131 -47q-49 0 -74.5 20.5t-25.5 51.5q0 14 6 27q49 -12 80 -13q45 0 71.5 25.5t26.5 70.5q0 47 -26.5 74t-79.5 27q-55 0 -89 -40t-34 -118l2 -655 q49 80 143 171t199 165h16q100 -68 187.5 -158t138.5 -174v1311h133v-1334q0 -78 6 -170l2 -55q0 -27 -7 -36t-24 -9h-104v29q0 94 -97.5 220t-242.5 251q-152 -123 -255 -250t-103 -221v-29h-111q-31 0 -31 23z" />
<glyph unicode="&#xe1e;" horiz-adv-x="1472" d="M61 1006q0 84 55.5 139t143.5 55q96 0 158.5 -56.5t62.5 -158.5l-2 -565q88 252 332 665h29q92 -150 184 -337t141 -332v764h133v-791q0 -289 9 -348q2 -8 2 -18q0 -14 -6.5 -18.5t-16.5 -4.5h-117v29q0 117 -109.5 369.5t-236.5 484.5q-131 -238 -241.5 -489 t-110.5 -365v-29h-123q-10 0 -16 4t-6 19q0 10 2 18q10 55 14 111.5t4 236.5v604q0 47 -23.5 78t-70.5 31q-45 0 -68.5 -25.5t-23.5 -70.5q0 -47 27.5 -74t72.5 -27h49q0 -82 -84 -82q-63 0 -113.5 50.5t-50.5 132.5z" />
<glyph unicode="&#xe1f;" horiz-adv-x="1472" d="M61 1006q0 84 55.5 139t143.5 55q96 0 158.5 -56.5t62.5 -158.5l-2 -565q88 252 332 665h29q92 -150 184 -337t141 -332v1188h133v-1215q0 -289 9 -348q2 -8 2 -18q0 -14 -6.5 -18.5t-16.5 -4.5h-117v29q0 117 -109.5 369.5t-236.5 484.5q-131 -238 -241.5 -489 t-110.5 -365v-29h-123q-10 0 -16 4t-6 19q0 10 2 18q10 55 14 111.5t4 236.5v604q0 47 -23.5 78t-70.5 31q-45 0 -68.5 -25.5t-23.5 -70.5q0 -47 27.5 -74t72.5 -27h49q0 -82 -84 -82q-63 0 -113.5 50.5t-50.5 132.5z" />
<glyph unicode="&#xe20;" horiz-adv-x="1290" d="M33 164q0 76 45 119t102 43q35 0 56.5 -19.5t21.5 -50.5h-39q-45 0 -68.5 -24.5t-23.5 -67.5q0 -35 24.5 -60.5t67.5 -25.5t66.5 28.5t23.5 73.5q0 61 -12 124t-14 73q-2 14 -12.5 67.5t-10.5 98.5q0 115 62 176q-70 23 -129.5 81t-59.5 111q0 57 67.5 126t184.5 116 t258 47q213 0 348 -105.5t135 -344.5v-750h-133v750q0 199 -91 272.5t-259 73.5q-102 0 -189 -29t-138.5 -71t-51.5 -78q0 -25 26.5 -53.5t59.5 -48t47 -19.5q12 0 34 8t28 10q45 20 63 21q14 0 32.5 -24t26 -47.5t-9.5 -23.5q-90 0 -134 -55t-44 -147q0 -49 6.5 -104.5 t8.5 -72.5q16 -115 16 -180q0 -94 -53.5 -146t-151.5 -52q-82 0 -134 51t-52 129z" />
<glyph unicode="&#xe21;" horiz-adv-x="1345" d="M102 1006q0 84 55.5 139t143.5 55q96 0 158.5 -56.5t62.5 -158.5l-2 -453q158 0 288 -69.5t206 -190.5v908h133v-897q0 -107 8 -193l2 -49q0 -41 -31 -41h-108q-45 190 -178 304t-318 126l2 -61q4 -82 4 -123q0 -133 -46 -198.5t-144 -65.5q-84 0 -139.5 65.5 t-55.5 173.5q0 125 73 207t175 100q-4 41 -4 86v379q0 47 -23.5 78t-70.5 31q-45 0 -68.5 -25.5t-23.5 -70.5q0 -47 27.5 -74t72.5 -27h49q0 -82 -84 -82q-63 0 -113.5 50.5t-50.5 132.5zM258 227q0 -66 20.5 -102.5t59.5 -36.5q35 0 49 34t14 128q0 63 -6 131l-2 43 q-57 -18 -96 -66.5t-39 -130.5z" />
<glyph unicode="&#xe22;" horiz-adv-x="1249" d="M143 913q0 82 38 147.5t101.5 102.5t137.5 37q96 0 151.5 -50t55.5 -132q0 -80 -46 -127t-126 -47q-51 0 -84 23.5t-33 58.5q0 14 2 20q41 -20 94 -20q45 0 67.5 24.5t22.5 63.5q0 41 -25.5 64.5t-70.5 23.5q-70 0 -111 -48t-41 -147q0 -135 83 -197.5t284 -62.5 q12 0 12 -18q0 -23 -19.5 -55.5t-37.5 -32.5q-33 0 -90 16q-47 14 -76 14q-59 0 -98 -54t-39 -140v-27q0 -70 12 -108.5t43 -71.5q37 -39 113 -58.5t170 -19.5q197 0 272 78q29 31 38 82t9 139l-2 191v598h133v-598l2 -205q0 -102 -13 -166t-54 -109q-63 -70 -169 -95 t-216 -25q-111 0 -218.5 25.5t-168.5 94.5q-43 51 -63.5 107.5t-20.5 142.5v19q0 98 44 158.5t105 91.5q-70 31 -119 102.5t-49 189.5z" />
<glyph unicode="&#xe23;" horiz-adv-x="1040" d="M88 903q0 133 87 211t214 78q43 0 172 -14q98 -12 135 -13q125 0 217 41q12 -6 21.5 -26.5t9.5 -42.5q0 -47 -62.5 -68.5t-150.5 -21.5q-43 0 -153 16q-123 20 -189 20q-84 0 -126 -46t-42 -132q0 -70 29 -110h74q170 0 280 -27q256 -59 256 -340v-135 q0 -154 -71.5 -232.5t-196.5 -78.5q-86 0 -147.5 59t-61.5 145t53 140.5t142 54.5q88 0 88 -94q-27 4 -78 4q-47 0 -73 -29t-26 -76q0 -45 29 -72.5t74 -27.5q66 0 100.5 47t34.5 160v123q0 109 -37 165t-121 78q-92 27 -252 27l-149 -2q-35 31 -57.5 94.5t-22.5 124.5z" />
<glyph unicode="&#xe24;" horiz-adv-x="1259" d="M113 901q0 66 65.5 135.5t179 116.5t252.5 47q211 0 348.5 -106.5t137.5 -309.5v-1235h-133v1235q0 156 -91.5 234t-261.5 78q-98 0 -183 -32t-135 -76t-50 -81q0 -27 25.5 -52.5t59 -42.5t54.5 -17q27 0 68 16q37 12 51 12q12 0 30.5 -25.5t25.5 -50t-7 -24.5 q-127 0 -177 -66.5t-50 -203.5v-211q0 -78 32.5 -118t87.5 -40q53 0 80 27.5t27 72.5t-26.5 71t-71.5 26q-31 0 -80 -13q-6 12 -6 27q0 31 25.5 51.5t74.5 20.5q80 0 131 -47.5t51 -135.5t-60.5 -143t-152.5 -55q-106 0 -176 66.5t-70 187.5v213q0 96 21.5 161.5t66.5 108.5 q-59 25 -111 74t-52 104z" />
<glyph unicode="&#xe25;" horiz-adv-x="1265" d="M137 975q66 92 201 158.5t307 66.5q207 0 329 -102.5t122 -282.5q-1 -82 -13 -213q-12 -127 -12 -199q0 -43 14 -225q8 -119 9 -139q0 -39 -25 -39h-121q0 328 -102.5 486.5t-286.5 158.5q-117 0 -189.5 -81t-72.5 -224q0 -131 41 -195.5t108 -64.5q45 0 69 24.5t24 67.5 q0 39 -23.5 62.5t-66.5 23.5q-25 0 -45.5 -7t-45.5 -24q-6 12 -6 33q0 31 31 55.5t84 24.5q74 0 122 -48t48 -118q0 -86 -52.5 -139t-140.5 -53q-117 0 -194.5 87t-77.5 271q0 129 52 223t140.5 143.5t194.5 49.5q127 0 228.5 -59.5t158.5 -157.5q14 133 12 262 q-2 135 -86 212t-229 77q-125 0 -214 -45.5t-173 -129.5q-12 -12 -31 -12q-23 0 -47 18.5t-41 53.5z" />
<glyph unicode="&#xe26;" horiz-adv-x="1290" d="M33 164q0 76 45 119t102 43q35 0 56.5 -19.5t21.5 -50.5h-39q-45 0 -68.5 -24.5t-23.5 -67.5q0 -35 24.5 -60.5t67.5 -25.5t66.5 28.5t23.5 73.5q0 61 -12 124t-14 73q-2 14 -12.5 67.5t-10.5 98.5q0 115 62 176q-70 23 -129.5 81t-59.5 111q0 57 67.5 126t184.5 116 t258 47q213 0 348 -105.5t135 -344.5v-1201h-133v1201q0 199 -91 272.5t-259 73.5q-102 0 -189 -29t-138.5 -71t-51.5 -78q0 -25 26.5 -53.5t59.5 -48t47 -19.5q12 0 34 8t28 10q45 20 63 21q14 0 32.5 -24t26 -47.5t-9.5 -23.5q-90 0 -134 -55t-44 -147q0 -49 6.5 -104.5 t8.5 -72.5q16 -115 16 -180q0 -94 -53.5 -146t-151.5 -52q-82 0 -134 51t-52 129z" />
<glyph unicode="&#xe27;" horiz-adv-x="1081" d="M59 952q49 100 170 174t281 74q193 0 300.5 -109.5t107.5 -312.5v-520q0 -125 -72 -201.5t-187 -76.5q-90 0 -152.5 56t-62.5 142q0 82 55.5 134.5t133.5 52.5q49 0 76.5 -23t27.5 -55q0 -12 -2 -19q-29 10 -80 11q-45 0 -72.5 -28t-27.5 -71t28.5 -70.5t75.5 -27.5 q66 0 100 47t34 129v533q0 139 -71 221t-212 82q-117 0 -192.5 -49.5t-139.5 -145.5q-6 -8 -20 -8q-20 0 -50 17.5t-49 43.5z" />
<glyph unicode="&#xe28;" horiz-adv-x="1247" d="M147 727q0 150 63.5 256.5t176.5 161.5t256 55q170 0 279 -65q55 14 100 51t74 86q43 -8 70.5 -34t27.5 -48q0 -39 -55.5 -79t-120.5 -60q96 -117 96 -314v-737h-133v727q0 367 -338 367q-170 0 -266 -89.5t-96 -277.5q0 -115 36 -209q53 123 137.5 194.5t200.5 71.5 q84 0 143.5 -53t59.5 -141t-53 -138.5t-139 -50.5q-55 0 -96.5 29t-41.5 76q0 39 27 53q23 -35 48.5 -51t62.5 -16q47 0 69.5 25.5t22.5 72.5q0 45 -28 70.5t-79 25.5q-88 0 -157.5 -87t-111.5 -242.5t-46 -356.5h-105q-31 0 -30 41q0 90 39 250q12 61 12 63q0 10 -23 60 q-37 74 -59.5 143.5t-22.5 169.5z" />
<glyph unicode="&#xe29;" horiz-adv-x="1361" d="M20 1006q0 84 55.5 139t143.5 55q96 0 158.5 -56.5t62.5 -158.5l-2 -610q0 -166 41 -209q76 -78 277 -78q205 0 274 78q23 25 29 63.5t6 110.5v145q-31 -43 -90.5 -73.5t-134.5 -30.5q-109 0 -182.5 57.5t-73.5 155.5q0 70 49 116t115 46q63 0 106 -38t43 -104 q0 -43 -22.5 -66.5t-59.5 -23.5q-12 0 -29 8q29 29 29 68q0 31 -17.5 50.5t-45.5 19.5q-33 0 -53.5 -18.5t-20.5 -49.5q0 -61 46 -94t126 -33q215 0 215 242v463h133v-791q0 -119 -13.5 -180.5t-51.5 -106.5q-111 -121 -377 -120q-289 0 -389 120q-35 41 -48.5 112 t-13.5 175v604q0 47 -23.5 78t-70.5 31q-45 0 -68.5 -25.5t-23.5 -70.5q0 -47 27.5 -74t72.5 -27h49q0 -82 -84 -82q-63 0 -113.5 50.5t-50.5 132.5z" />
<glyph unicode="&#xe2a;" horiz-adv-x="1261" d="M137 975q66 92 201 158.5t307 66.5q164 0 277 -65q55 16 100 53t74 84q43 -8 70.5 -34t27.5 -48q0 -39 -56.5 -79t-119.5 -58q78 -96 78 -238q0 -82 -13 -213q-12 -127 -12 -199q0 -43 14 -225q8 -119 9 -139q0 -39 -25 -39h-121q0 328 -102.5 486.5t-286.5 158.5 q-117 0 -189.5 -81t-72.5 -224q0 -131 41 -195.5t108 -64.5q45 0 69 24.5t24 67.5q0 39 -23.5 62.5t-66.5 23.5q-25 0 -45.5 -7t-45.5 -24q-6 12 -6 33q0 31 31 55.5t84 24.5q74 0 122 -48t48 -118q0 -86 -52.5 -139t-140.5 -53q-117 0 -194.5 87t-77.5 271q0 129 52 223 t140.5 143.5t194.5 49.5q127 0 228.5 -59.5t158.5 -157.5q14 133 12 262q-2 135 -86 212t-229 77q-125 0 -214 -45.5t-173 -129.5q-12 -12 -31 -12q-23 0 -47 18.5t-41 53.5z" />
<glyph unicode="&#xe2b;" horiz-adv-x="1347" d="M20 1006q0 84 55.5 139t143.5 55q96 0 158.5 -56.5t62.5 -158.5l-2 -518q55 78 154.5 137.5t316.5 165.5q-115 96 -114 211q0 98 62.5 158.5t162.5 60.5q96 0 160.5 -56.5t64.5 -162.5q0 -145 -123 -231q63 -66 64 -160v-590h-133v565q0 51 -8.5 79t-30.5 48 q-203 -92 -321 -162.5t-186.5 -159.5t-68.5 -208v-162h-110q-31 0 -31 31l2 55q6 129 6 152v755q0 47 -23.5 78t-70.5 31q-45 0 -68.5 -25.5t-23.5 -70.5q0 -47 27.5 -74t72.5 -27h49q0 -82 -84 -82q-63 0 -113.5 50.5t-50.5 132.5zM909 981q0 -45 27 -81t86 -75 q57 33 82.5 69t25.5 87q0 49 -26.5 81t-83.5 32q-49 0 -80 -32t-31 -81z" />
<glyph unicode="&#xe2c;" horiz-adv-x="1449" d="M61 1006q0 84 55.5 139t143.5 55q96 0 158.5 -56.5t62.5 -158.5l-2 -604q37 74 92.5 147.5t147.5 184.5q74 88 104 127h17q35 -49 108 -148q80 -104 132.5 -179t84.5 -148v530q-55 -10 -106 -10q-125 0 -201 54t-76 138q0 76 72 127t168 51q86 0 156.5 -47t101.5 -123 q47 53 88 132q35 -7 58.5 -26.5t23.5 -47.5q0 -33 -23 -72q-47 -78 -129 -125v-557q0 -289 9 -348q2 -8 2 -18q0 -14 -6.5 -18.5t-16.5 -4.5h-117v29q0 129 -92 282.5t-246 354.5q-109 -135 -178 -231.5t-125.5 -207t-56.5 -198.5v-29h-123q-10 0 -16 4t-6 19q0 10 2 18 q10 55 14 111.5t4 236.5v604q0 47 -23.5 78t-70.5 31q-45 0 -68.5 -25.5t-23.5 -70.5q0 -47 27.5 -74t72.5 -27h49q0 -82 -84 -82q-63 0 -113.5 50.5t-50.5 132.5zM903 1071q0 -39 41 -61.5t113 -22.5q59 1 108 19q-4 70 -42 108.5t-101 38.5q-47 0 -83 -21.5t-36 -60.5z " />
<glyph unicode="&#xe2d;" horiz-adv-x="1259" d="M127 975q68 88 197 156.5t284 68.5q164 0 269.5 -51t162 -177t56.5 -343v-82q0 -203 -46 -327t-146.5 -181t-266.5 -57q-238 0 -348.5 108.5t-110.5 339.5q0 100 40 172t102.5 109t130.5 37q88 0 135 -50.5t47 -138.5q0 -80 -47 -127t-119 -47q-49 0 -81 27.5t-32 79.5 q45 -16 84 -17q43 0 67.5 22.5t24.5 65.5q0 82 -81 82q-63 0 -100.5 -56.5t-37.5 -158.5q0 -180 75 -258t251 -78q123 0 193.5 43t101.5 140.5t31 269.5v82q0 184 -42 285.5t-118 138.5t-195 37q-96 0 -185 -47.5t-159 -116.5q-14 -14 -25.5 -20.5t-27.5 -6.5q-35 0 -84 76z " />
<glyph unicode="&#xe2e;" horiz-adv-x="1259" d="M160 995q0 88 106.5 146.5t294.5 58.5q262 0 400 -145q66 66 118 172q94 -6 95 -66q0 -37 -37 -96t-103 -113q63 -127 64 -313v-102q0 -279 -108.5 -417t-350.5 -138q-236 0 -347.5 102t-111.5 305q0 100 38 171t99.5 106.5t128.5 35.5q92 0 142.5 -48t50.5 -136 q0 -80 -47 -125t-123 -45q-51 0 -80 22.5t-29 55.5q0 14 7 27q35 -14 77 -15q41 0 64.5 21.5t23.5 62.5q0 37 -22.5 57.5t-65.5 20.5q-61 0 -96 -54t-35 -157q0 -154 77 -225.5t249 -71.5q176 0 251 107.5t75 337.5v102q0 150 -37 242q-154 -84 -350 -84q-197 0 -307.5 53 t-110.5 145zM287 1001q0 -98 291 -98q175 0 294 76q-53 63 -131.5 89t-179.5 26q-123 0 -198.5 -25t-75.5 -68z" />
<glyph unicode="&#xe2f;" horiz-adv-x="929" d="M72 1001q0 84 54 137.5t132 53.5q80 0 123 -42t43 -122q0 -51 -29.5 -82t-70.5 -31q-12 0 -25.5 5.5t-17.5 11.5q57 35 57 94q0 35 -20.5 55.5t-59.5 20.5q-37 0 -60.5 -26.5t-23.5 -69.5q0 -61 47 -102.5t133 -41.5q121 0 188.5 72t75.5 211l3 35h96q28 0 28 -31 q0 -12 -2 -45t-2 -70v-1034h-125l2 905q-90 -141 -274 -141q-121 0 -196.5 65.5t-75.5 171.5z" />
<glyph unicode="&#xe30;" horiz-adv-x="897" d="M82 299q0 80 52 124t124 44q70 0 113 -40t43 -110q0 -47 -24.5 -72.5t-61.5 -25.5q-20 0 -37 10q31 31 31 72q0 31 -16.5 49.5t-47.5 18.5q-33 0 -51.5 -18.5t-18.5 -51.5q0 -49 48.5 -81t134.5 -32q115 0 180 47.5t104 147.5q10 25 20.5 36t26.5 11q33 0 82 -27 q-31 -150 -141.5 -233.5t-263.5 -83.5q-139 0 -218 62.5t-79 152.5zM82 956q0 80 52 124t124 44q70 0 113 -40t43 -109q0 -47 -24.5 -72.5t-61.5 -25.5q-23 0 -37 10q31 31 31 71q0 31 -16.5 49.5t-47.5 18.5q-33 0 -51.5 -18.5t-18.5 -51.5q0 -49 48.5 -80.5t134.5 -31.5 q113 0 179 47t105 147q10 25 20.5 36t26.5 11q33 0 82 -26q-31 -150 -141.5 -234t-263.5 -84q-139 0 -218 62.5t-79 152.5z" />
<glyph unicode="&#xe31;" d="M-735 1507q0 82 55 130.5t127 48.5q76 0 123 -42t47 -112q0 -51 -24.5 -79t-63.5 -28q-16 0 -31 7q27 37 27 79q0 37 -19.5 58.5t-56.5 21.5q-39 0 -60.5 -21.5t-21.5 -64.5q0 -55 56.5 -85.5t156.5 -30.5q188 0 297 77.5t139 216.5q119 0 119 -90q0 -84 -70.5 -153.5 t-194.5 -109.5t-276 -40q-159 0 -244 61.5t-85 155.5z" />
<glyph unicode="&#xe32;" horiz-adv-x="954" d="M20 1008q86 84 181.5 138t218.5 54q168 0 269.5 -93t101.5 -253v-854h-86q-31 0 -39.5 10t-8.5 41v801q0 117 -62.5 177.5t-170.5 60.5q-76 0 -125 -25t-109 -76q-12 -12 -31.5 -29.5t-29.5 -21.5t-27 -4q-20 0 -37.5 17.5t-44.5 56.5z" />
<glyph unicode="&#xe33;" horiz-adv-x="954" d="M-469 1548q0 94 61.5 155.5t157.5 61.5t157.5 -61.5t61.5 -155.5q0 -96 -61.5 -157.5t-157.5 -61.5t-157.5 61.5t-61.5 157.5zM-358 1548q0 -53 29.5 -84.5t78.5 -31.5t79 31.5t30 84.5t-30 84t-79 31t-78.5 -30.5t-29.5 -84.5zM20 1008q86 84 181.5 138t218.5 54 q168 0 269.5 -93t101.5 -253v-854h-86q-31 0 -39.5 10t-8.5 41v801q0 117 -62.5 177.5t-170.5 60.5q-76 0 -125 -25t-109 -76q-12 -12 -31.5 -29.5t-29.5 -21.5t-27 -4q-20 0 -37.5 17.5t-44.5 56.5z" />
<glyph unicode="&#xe34;" d="M-1122 1364q0 88 53 175t156.5 144.5t248.5 57.5t260 -58.5t178.5 -154.5t63.5 -201v-27q-252 29 -464 37.5t-476 8.5q-12 0 -16 4t-4 14zM-999 1434q383 0 714 -39q-18 106 -122.5 179t-256.5 73q-143 0 -229 -63.5t-106 -149.5z" />
<glyph unicode="&#xe35;" d="M-1124 1362q0 88 53 175t156.5 144.5t248.5 57.5q115 0 211.5 -37t163.5 -103v187h127v-488q-252 29 -464 37t-476 8q-12 0 -16 4.5t-4 14.5zM-1001 1432q382 0 714 -39q-18 106 -122.5 179t-256.5 73q-143 0 -229 -63.5t-106 -149.5z" />
<glyph unicode="&#xe36;" d="M-1128 1364q0 88 53 175t156.5 144.5t248.5 57.5q129 0 234 -47q14 57 60 96t108 39q74 0 121 -47t47 -125q0 -53 -33 -96t-82 -58q47 -84 47 -176v-27q-252 29 -464 37.5t-476 8.5q-12 0 -16 4t-4 14zM-1006 1434q383 0 715 -39q-18 106 -122.5 179t-256.5 73 q-143 0 -229 -63.5t-107 -149.5zM-356 1657q0 -37 22.5 -62.5t65.5 -25.5q41 0 63.5 25.5t22.5 62.5t-22.5 63.5t-63.5 26.5q-43 0 -65.5 -25.5t-22.5 -64.5z" />
<glyph unicode="&#xe37;" d="M-1126 1362q0 88 53 175t156.5 144.5t248.5 57.5q86 0 164 -25v92h127v-149q51 -31 84 -64v213h127v-508q-252 29 -464 37t-476 8q-12 0 -16 4.5t-4 14.5zM-1004 1432q383 0 715 -39q-12 68 -67.5 126t-137 92t-174.5 34q-143 0 -229 -63.5t-107 -149.5z" />
<glyph unicode="&#xe38;" d="M-496 -309q0 68 47.5 111.5t120.5 43.5q76 0 120 -43t44 -116l-2 -80q-4 -66 -4 -121v-70q0 -39 -11.5 -53t-43.5 -14h-56v139q0 45 11 127q8 49 8 72q0 35 -18.5 54t-53.5 19q-33 0 -54.5 -19.5t-21.5 -49.5q0 -35 18.5 -51.5t49.5 -16.5q35 0 53 10q0 -35 -20.5 -57 t-61.5 -22q-53 0 -89 35.5t-36 101.5z" />
<glyph unicode="&#xe39;" d="M-788 -293q0 61 45 100t110 39q72 0 116 -41t44 -104q0 -29 -8 -78q-8 -57 -8 -106q0 -37 22.5 -55.5t77.5 -18.5t80.5 18.5t25.5 59.5v315h119v-315q0 -82 -54 -122t-173 -40q-101 0 -161 38t-60 103q0 53 18 123q14 43 14 76q0 31 -15 49.5t-44 18.5q-31 0 -47 -17.5 t-16 -46.5q0 -31 21.5 -46t57.5 -17q-4 -14 -21.5 -27.5t-41.5 -13.5q-43 0 -72.5 28.5t-29.5 79.5z" />
<glyph unicode="&#xe3a;" d="M-356 -262q0 51 35.5 85t89.5 34q51 0 86.5 -34t35.5 -85t-35.5 -85t-86.5 -34q-54 0 -89.5 34t-35.5 85z" />
<glyph unicode="&#xe3f;" horiz-adv-x="1259" d="M176 0v1434h395v223h127v-225q190 -12 299 -111.5t109 -263.5q0 -109 -52.5 -195t-138.5 -123q113 -31 184.5 -125t71.5 -217q0 -184 -122.5 -286.5t-350.5 -110.5v-246h-127v246h-395zM324 123h247v549h-247v-549zM324 788h247v523h-247v-523zM698 125q172 6 249 70.5 t77 201.5q0 133 -79 199t-247 74v-545zM698 791q260 25 260 266q0 108 -68.5 173.5t-191.5 78.5v-518z" />
<glyph unicode="&#xe40;" horiz-adv-x="634" d="M172 236v894q0 49 39 50h94v-959q0 -63 26.5 -96t74.5 -33q43 0 68.5 26.5t25.5 67.5q0 43 -24.5 68t-65.5 25q-37 0 -74 -13v15q0 39 23.5 61.5t68.5 22.5q76 0 125 -45.5t49 -133.5t-53 -142t-148 -54q-102 0 -165.5 64.5t-63.5 181.5z" />
<glyph unicode="&#xe41;" horiz-adv-x="1187" d="M172 236v894q0 49 39 50h94v-959q0 -63 26.5 -96t74.5 -33q43 0 68.5 26.5t25.5 67.5q0 43 -24.5 68t-65.5 25q-37 0 -74 -13v15q0 39 23.5 61.5t68.5 22.5q76 0 125 -45.5t49 -133.5t-53 -142t-148 -54q-102 0 -165.5 64.5t-63.5 181.5zM725 236v894q0 49 39 50h94v-959 q0 -63 26.5 -96t74.5 -33q43 0 68.5 26.5t25.5 67.5q0 43 -24.5 68t-65.5 25q-37 0 -74 -13v15q0 39 23.5 61.5t68.5 22.5q76 0 125 -45.5t49 -133.5t-53 -142t-148 -54q-102 0 -165.5 64.5t-63.5 181.5z" />
<glyph unicode="&#xe42;" horiz-adv-x="690" d="M-82 1751q0 113 79 175.5t183 62.5q29 0 74 -4.5t68 -6.5q102 -12 149 -12q104 0 172 39q29 -41 29 -90q0 -31 -52.5 -48.5t-136.5 -17.5q-59 0 -170 17q-98 12 -127 12q-68 0 -108.5 -30.5t-40.5 -96.5q0 -51 18 -76q117 -12 214.5 -74.5t97.5 -228.5v-1151 q0 -63 26.5 -96t73.5 -33q43 0 68.5 26.5t25.5 67.5q0 43 -24.5 68t-65.5 25q-37 0 -74 -13v15q0 37 23.5 60.5t68.5 23.5q76 0 125.5 -45.5t49.5 -133.5t-53.5 -142t-147.5 -54q-103 0 -166.5 64.5t-63.5 181.5v1136q0 94 -37.5 138t-78.5 52.5t-133 18.5q-29 23 -47.5 68 t-18.5 102z" />
<glyph unicode="&#xe43;" horiz-adv-x="704" d="M-66 1704q0 72 41 137.5t117 106.5t178 41q168 0 265.5 -88.5t97.5 -223.5q0 -90 -32 -157.5t-95 -163.5q-70 -102 -104.5 -180t-34.5 -187v-768q0 -63 26.5 -96t73.5 -33q43 0 68.5 26.5t25.5 67.5q0 43 -24.5 68t-65.5 25q-37 0 -74 -13v15q0 37 23.5 60.5t68.5 23.5 q76 0 125.5 -45.5t49.5 -133.5t-53.5 -142t-147.5 -54q-103 0 -166.5 64.5t-63.5 181.5v759q0 90 21.5 160t51.5 118t79 116q61 82 91 141t30 139q0 96 -60.5 156.5t-179.5 60.5q-96 0 -158.5 -49t-62.5 -129q0 -63 29.5 -94t83.5 -31q51 0 77.5 31t26.5 82q0 74 -59 114 q25 10 43 11q49 0 84 -41t35 -101q0 -84 -60.5 -141t-146.5 -57q-94 0 -159 58t-65 165z" />
<glyph unicode="&#xe44;" horiz-adv-x="690" d="M-49 1929q0 27 18.5 46.5t40.5 19.5q43 -43 106.5 -68.5t168.5 -25.5q96 0 151.5 17t104.5 44q4 2 18 10t25 8q23 0 45 -28l30 -43l-49 -51q-78 -78 -127 -143.5t-82.5 -173t-33.5 -263.5v-1057q0 -63 26.5 -96t73.5 -33q43 0 68.5 26.5t25.5 67.5q0 43 -24.5 68 t-65.5 25q-37 0 -74 -13v15q0 37 23.5 60.5t68.5 23.5q76 0 125.5 -45.5t49.5 -133.5t-53.5 -142t-147.5 -54q-102 0 -166 64.5t-64 181.5v1028q0 199 54.5 321.5t152.5 226.5q-74 -23 -186 -22q-119 0 -211 38t-92 101z" />
<glyph unicode="&#xe45;" horiz-adv-x="954" d="M20 985q63 90 170 152.5t236 62.5q166 0 265.5 -90t99.5 -246v-1315h-134v1293q0 123 -57 185.5t-168 62.5q-80 0 -133 -20.5t-109 -76.5q-12 -12 -30.5 -32.5t-30.5 -32.5q-8 -8 -25 -8q-18 0 -40.5 16t-43.5 49z" />
<glyph unicode="&#xe46;" horiz-adv-x="1024" d="M61 868q0 137 63.5 224.5t182.5 87.5q55 0 94 -22.5t72 -65.5q31 45 70 66.5t106 21.5q84 0 147.5 -63.5t63.5 -176.5v-1350h-123v1334q0 76 -30.5 108.5t-75.5 32.5q-47 0 -83 -24.5t-75 -73.5h-8q-37 53 -71 78.5t-85 25.5q-59 0 -94 -50t-35 -147q0 -100 37 -155 t100 -55q41 0 67 25.5t26 64.5q0 41 -22.5 64.5t-61.5 23.5q-49 0 -80 -13v15q0 33 28.5 58.5t77.5 25.5q68 0 116 -47t48 -125q0 -84 -55 -137.5t-160 -53.5q-104 0 -172 80t-68 223z" />
<glyph unicode="&#xe47;" d="M-1034 1552q0 141 83 206t220 65q35 0 113 -4l102 -2q82 0 123 24.5t55 100.5q61 0 89 -22t28 -56q0 -61 -67.5 -103.5t-178.5 -42.5l-131 4l-129 2q-102 0 -149.5 -42t-47.5 -123q0 -78 28 -114t83 -36q49 0 82 24.5t67 79.5q41 -63 87.5 -90.5t111.5 -27.5 q59 0 92 28.5t33 77.5q0 37 -18.5 57.5t-51.5 20.5q-35 0 -53 -16.5t-18 -46.5q0 -43 35 -68q-16 -23 -43 -23q-29 0 -49.5 29t-20.5 64q0 59 41 98t104 39q72 0 117 -44t45 -108q0 -84 -60.5 -139t-154.5 -55q-66 0 -116 20.5t-81 56.5q-53 -78 -163 -77q-91 0 -149 66.5 t-58 176.5z" />
<glyph unicode="&#xe48;" d="M-307 1645v118h143v-118q0 -53 -6 -136.5t-12 -146.5h-107q-8 49 -13 134t-5 149z" />
<glyph unicode="&#xe49;" d="M-754 1384q0 14 6 52q25 -6 58 -6q82 0 130 52t48 138q0 39 -19.5 59.5t-54.5 20.5q-33 0 -51 -17.5t-18 -50.5q0 -70 88 -69q0 -25 -14.5 -39.5t-41.5 -14.5q-53 0 -83.5 34t-30.5 91q0 63 45 104.5t108 41.5q72 0 121 -42t49 -116q0 -66 -28.5 -120t-77.5 -87 q145 8 245.5 95t100.5 268q59 0 91 -21.5t32 -77.5q0 -104 -71 -184t-182.5 -123t-230.5 -43q-219 0 -219 55z" />
<glyph unicode="&#xe4a;" d="M-948 1536q0 78 31.5 132t81 80t100.5 26q88 0 139 -70q45 68 125 68q84 0 136 -54.5t52 -148.5q0 -76 -14 -127q72 29 105.5 105.5t33.5 217.5h56q55 0 55 -49q0 -160 -80 -265t-223 -105q-51 0 -78 10q20 35 33.5 88t13.5 106q0 68 -24.5 97.5t-77.5 29.5 q-37 0 -61.5 -19.5t-51.5 -55.5q-31 41 -56.5 59t-68.5 18q-57 0 -93 -35.5t-36 -107.5q0 -55 25.5 -86t64.5 -31q74 0 74 66q0 72 -64 71q-18 0 -38 -6q-6 10 -7 19q0 16 18.5 29.5t51.5 13.5q53 0 87 -36t34 -97t-43 -103.5t-115 -42.5q-76 0 -131 57.5t-55 145.5z" />
<glyph unicode="&#xe4b;" d="M-489 1526v106h194v164h131v-164h195v-106h-195v-164h-131v164h-194z" />
<glyph unicode="&#xe4c;" d="M-520 1483q0 70 43 116t115 80q74 35 107.5 53.5t60 50.5t26.5 77h49q23 0 41.5 -12.5t18.5 -32.5q0 -61 -47.5 -99.5t-161.5 -93.5l-47 -23q-51 -25 -77 -51t-26 -59q0 -41 21.5 -63.5t60.5 -22.5t59.5 23.5t20.5 60.5q0 23 -10 38t-35 29q23 23 47 23q37 0 62.5 -27.5 t25.5 -72.5q0 -70 -47 -115t-131 -45q-78 0 -127 47t-49 119z" />
<glyph unicode="&#xe4d;" d="M-469 1548q0 94 61.5 155.5t157.5 61.5t157.5 -61.5t61.5 -155.5q0 -96 -61.5 -157.5t-157.5 -61.5t-157.5 61.5t-61.5 157.5zM-358 1548q0 -53 29.5 -84.5t78.5 -31.5t79 31.5t30 84.5t-30 84t-79 31t-78.5 -30.5t-29.5 -84.5z" />
<glyph unicode="&#xe4e;" d="M-545 1470q0 78 46 130.5t112 70.5q-25 14 -39 38t-14 48q0 84 74.5 128t185.5 44q66 0 105.5 -16.5t39.5 -38.5q0 -37 -24 -62q-68 25 -131 25q-68 0 -111 -18.5t-43 -55.5q0 -31 34 -45t122 -14q8 0 8 -16q0 -20 -12.5 -43t-32.5 -23l-64 2q-61 0 -111.5 -38 t-50.5 -111q0 -37 21.5 -57.5t58.5 -20.5q33 0 53.5 20.5t20.5 52.5q0 51 -59 70q6 29 47 29q35 0 62.5 -30t27.5 -75q0 -66 -45 -105.5t-115 -39.5t-118 39t-48 112z" />
<glyph unicode="&#xe4f;" horiz-adv-x="1433" d="M168 623q0 150 72.5 273.5t198.5 196t278 72.5t277.5 -72.5t198.5 -196.5t73 -273q0 -147 -73 -270.5t-199 -195t-277 -71.5q-152 0 -278 71.5t-198.5 194.5t-72.5 271zM295 623q0 -117 55.5 -213.5t152.5 -152.5t214 -56t214 56t152.5 152.5t55.5 213.5q0 119 -55.5 216 t-151.5 154.5t-215 57.5t-215 -57.5t-151.5 -155t-55.5 -215.5zM461 631q0 70 34.5 130t94 95t129.5 35t130 -35t95 -95.5t35 -129.5q0 -70 -35 -130.5t-95.5 -95t-129.5 -34.5q-70 0 -129.5 34.5t-94 95t-34.5 130.5zM569 631q0 -63 44 -108.5t106 -45.5q63 0 107 45 t44 109q0 63 -44 108t-107 45q-61 0 -105.5 -45t-44.5 -108z" />
<glyph unicode="&#xe50;" horiz-adv-x="1241" d="M102 471q0 236 141.5 366t377.5 130t377 -130t141 -366q0 -233 -141.5 -364.5t-376.5 -131.5q-236 0 -377.5 131.5t-141.5 364.5zM246 471q0 -209 107.5 -297t267.5 -88q159 0 266.5 88t107.5 297q0 211 -106.5 298t-267.5 87q-162 0 -268.5 -87t-106.5 -298z" />
<glyph unicode="&#xe51;" horiz-adv-x="1241" d="M102 508q0 123 63.5 227.5t179.5 166t265 61.5q160 0 280 -61.5t184.5 -175.5t64.5 -263q0 -162 -81 -296t-217 -212t-290 -78q-94 1 -100 103q240 8 394 127.5t154 355.5q0 193 -104 292t-287 99q-170 0 -272.5 -99.5t-102.5 -254.5q0 -143 73 -217t177 -74 q78 0 127 33.5t49 103.5q0 39 -21.5 61.5t-59.5 22.5q-37 0 -61.5 -21.5t-24.5 -60.5q0 -27 10 -50.5t24 -37.5q-10 -8 -37 -8q-39 0 -63.5 30.5t-24.5 82.5q0 70 49.5 114.5t127.5 44.5q86 0 137 -50t51 -130q0 -100 -77 -167.5t-202 -67.5q-166 0 -275.5 101t-109.5 298z " />
<glyph unicode="&#xe52;" horiz-adv-x="1318" d="M16 1135q18 27 42 40t48 13q74 0 112 -83t38 -222v-525q0 -102 33 -159.5t116.5 -84t243.5 -26.5q227 0 327.5 54.5t100.5 174.5v392q0 80 -28.5 120.5t-79.5 40.5q-96 0 -164 -90h-8q-39 49 -78 74t-94 25q-70 0 -110 -52.5t-40 -150.5t37 -147.5t100 -49.5 q47 0 73 25.5t26 66.5q0 39 -21.5 61.5t-60.5 22.5q-29 0 -48.5 -10t-41.5 -31q-18 14 -19 41q0 39 35 62.5t96 23.5q68 0 117 -46t49 -126q0 -84 -57.5 -136t-163.5 -52q-61 0 -116.5 34t-89.5 99.5t-34 155.5q0 137 70 227t197 90q106 0 180 -88q33 43 74 64.5t110 21.5 q86 0 149.5 -66.5t63.5 -179.5v-413q0 -182 -129 -263t-422 -81q-272 0 -394 91t-122 267v551q0 98 -22.5 148.5t-94.5 95.5z" />
<glyph unicode="&#xe53;" horiz-adv-x="1323" d="M98 360v172q0 219 89 336t235 117q94 0 156.5 -45t93.5 -109q27 63 87 108.5t161 45.5q133 0 206.5 -98.5t73.5 -290.5v-596h-127v596q0 150 -38 216.5t-124 66.5q-84 0 -131 -63.5t-47 -180.5v-635h-123v635q0 127 -41 185.5t-147 58.5q-92 0 -149.5 -82t-57.5 -265 v-167q0 -139 36 -213t103 -74q41 0 65.5 24.5t24.5 61.5t-21.5 60.5t-60.5 23.5q-47 0 -92 -23q-8 14 -8 33q0 33 28.5 54.5t84.5 21.5q72 0 120 -46t48 -124t-50.5 -131t-138.5 -53q-70 0 -128 43t-93 129t-35 208z" />
<glyph unicode="&#xe54;" horiz-adv-x="1255" d="M102 471q0 287 133.5 397.5t362.5 110.5q57 0 125 -6l100 -4q80 0 127 11t75 45t40 101q43 0 69.5 -17t26.5 -52q0 -100 -84 -151.5t-231 -51.5q-31 0 -70 2t-74 4q-57 6 -98 6q-182 6 -276.5 -76.5t-94.5 -297.5q0 -397 308 -398q31 0 84 9.5t90 21.5 q-63 35 -111.5 109.5t-48.5 177.5q0 96 63.5 157.5t157.5 61.5q84 0 140.5 -49.5t56.5 -126.5q0 -78 -44 -121t-102 -43q-35 0 -57 17.5t-29 43.5q68 0 100.5 21.5t32.5 72.5q0 41 -26.5 63.5t-71.5 22.5q-47 0 -78.5 -32.5t-31.5 -89.5q0 -133 104 -205t264 -72 q82 0 117 -16.5t35 -53.5q0 -29 -19 -71q-74 23 -131 33t-149 10q-70 0 -168 -23q-119 -25 -203 -24q-176 0 -295 111.5t-119 371.5z" />
<glyph unicode="&#xe55;" horiz-adv-x="1255" d="M102 471q0 147 53.5 236.5t144.5 134.5t228 71q-33 49 -32 105q0 76 52 125t130 49q76 0 128 -44t52 -116q0 -94 -72 -145h37q111 0 176.5 74.5t67.5 205.5q61 0 85 -22.5t24 -65.5q0 -66 -39 -131t-119 -110t-199 -45q-115 0 -201 43q-188 -29 -286.5 -104t-98.5 -240 q0 -397 308 -398q31 0 84 9.5t90 21.5q-66 35 -113 108.5t-47 176.5q0 96 63.5 157.5t157.5 61.5q84 0 140.5 -49.5t56.5 -126.5q0 -78 -44 -121t-102 -43q-35 0 -57 17.5t-29 43.5q68 0 100.5 21.5t32.5 72.5q0 41 -26.5 63.5t-71.5 22.5q-47 0 -78.5 -32.5t-31.5 -89.5 q0 -133 103 -204t265 -71q82 0 117 -16.5t35 -53.5q0 -29 -19 -71q-74 23 -131 33t-149 10q-70 0 -168 -23q-119 -25 -203 -24q-176 0 -295 111.5t-119 371.5zM594 1022q0 -57 41 -90q66 10 92.5 32.5t26.5 65.5q0 33 -21.5 54.5t-54.5 21.5q-37 0 -60.5 -22.5t-23.5 -61.5z " />
<glyph unicode="&#xe56;" horiz-adv-x="1204" d="M27 1122q37 61 96 62q57 0 105 -55.5t79 -137.5t39 -157q104 113 311 112q222 0 332.5 -127t110.5 -358q0 -141 -56.5 -249t-161 -167t-245.5 -59q-117 0 -202 36.5t-130 99t-45 138.5q0 92 59.5 148.5t143.5 56.5t137 -51.5t53 -126.5q0 -61 -26.5 -95t-63.5 -34 q-39 0 -51 16q47 47 47 98q0 47 -26.5 73t-69.5 26q-41 0 -68.5 -26t-27.5 -73q0 -84 72.5 -130t199.5 -46q145 0 236.5 88t91.5 277q0 193 -81 284t-241 91q-113 0 -184.5 -36t-114.5 -104h-92q-4 143 -58.5 234.5t-168.5 191.5z" />
<glyph unicode="&#xe57;" horiz-adv-x="1462" d="M102 481q0 152 40 256.5t107.5 156.5t151.5 52q61 0 108.5 -29.5t68.5 -80.5q25 51 76 79.5t120 28.5q137 0 198.5 -117.5t61.5 -369.5q0 -190 -33 -316q98 61 158 181t60 305q0 143 -55.5 266t-141.5 180q25 53 96 53q56 0 108 -56t86 -170t34 -273q0 -465 -408 -637 l-72 39q16 66 28.5 183.5t12.5 244.5q0 197 -36.5 289t-110.5 92q-61 0 -107.5 -41t-70.5 -113h-13q-55 154 -178 154q-170 0 -170 -357q0 -211 52.5 -306t136.5 -95q43 0 68.5 24.5t25.5 67.5q0 37 -23.5 59.5t-66.5 22.5q-51 0 -95 -31q-8 14 -8 33q0 33 30 58.5t85 25.5 q78 0 129 -43t51 -125q0 -86 -54 -138t-142 -52q-307 0 -308 499z" />
<glyph unicode="&#xe58;" horiz-adv-x="1245" d="M102 451q0 266 127 376.5t299 110.5l324 -2q98 0 153.5 57.5t63.5 190.5q49 0 75.5 -25.5t26.5 -64.5q0 -123 -87 -199t-230 -76l-147 2q-106 4 -164 4q-129 0 -219.5 -83t-90.5 -271q0 -203 49.5 -288t151.5 -85q72 0 133 41q-55 55 -55 152q0 20 35 43.5t57 23.5 q12 0 12 -10q0 -119 73 -187.5t175 -68.5q203 0 203 217q0 141 -100 142q-41 0 -63.5 -20.5t-22.5 -57.5q0 -39 22.5 -61.5t63.5 -22.5q33 0 57 8q0 -35 -24.5 -55.5t-71.5 -20.5q-59 0 -102.5 40t-43.5 112q0 80 51.5 124t131.5 44q98 0 155.5 -59.5t57.5 -170.5 q0 -147 -85 -235t-210 -88q-59 0 -101.5 14t-89.5 41q-41 23 -57 23q-8 0 -37 -19q-41 -27 -83 -43t-101 -16q-160 0 -236 120.5t-76 342.5z" />
<glyph unicode="&#xe59;" horiz-adv-x="1208" d="M102 420q0 520 347 520q109 0 192 -94q27 45 70 72.5t96 27.5t96 -18.5t68 -50.5q25 63 24 149q0 86 -37 141q33 16 74 17q94 0 94 -142q0 -92 -23.5 -168.5t-57 -120.5t-60.5 -44q-35 0 -46 6t-17 28q-14 49 -42 75t-75 26q-59 0 -105 -82q32 -49 95 -184l266 -578h-127 l-248 549q-72 156 -120 222.5t-117 66.5q-119 0 -170.5 -100.5t-51.5 -313.5q0 -166 43 -250t125 -84q45 0 71 24.5t26 65.5q0 39 -25 65.5t-64 26.5q-25 0 -53 -8t-47 -18q-4 16 -4 22q0 41 40 65.5t87 24.5q72 0 122 -47t50 -131q0 -86 -59.5 -141t-149.5 -55 q-129 0 -208 114.5t-79 321.5z" />
<glyph unicode="&#xe5a;" horiz-adv-x="1212" d="M72 1001q0 84 54 137.5t132 53.5q80 0 123 -42t43 -122q0 -51 -29.5 -82t-70.5 -31q-12 0 -25.5 5.5t-17.5 11.5q57 35 57 94q0 35 -20.5 55.5t-59.5 20.5q-37 0 -60.5 -26.5t-23.5 -69.5q0 -61 47 -102.5t133 -41.5q121 0 188.5 72t75.5 211l3 35h96q28 0 28 -31 q0 -12 -2 -45t-2 -70v-1034h-125l2 905q-90 -141 -274 -141q-121 0 -196.5 65.5t-75.5 171.5zM899 1180h86q33 0 39 -16.5t6 -69.5v-1094h-125z" />
<glyph unicode="&#xe5b;" horiz-adv-x="2318" d="M205 584q0 260 105.5 401t299.5 141q156 0 251 -104t95 -328q0 -150 -74.5 -226.5t-179.5 -76.5q-84 0 -144 54.5t-60 136.5q0 88 49 135t127 47q59 0 90 -28.5t31 -73.5q-45 20 -93 20q-45 0 -70.5 -25.5t-25.5 -66.5q0 -39 24.5 -65.5t67.5 -26.5q137 0 138 196 q0 324 -213 324q-141 0 -218 -120t-77 -331q0 -125 43 -219t120.5 -146t176.5 -52q133 0 233 77.5t155.5 218t55.5 320.5q0 111 -12 162h41q217 -162 252 -391q63 197 63 348h37q82 -72 126 -149t87 -193q29 51 50.5 143t21.5 158h34q20 -22 43 -53q78 -94 120 -133.5 t97.5 -57.5t155.5 -18v-13q-49 -57 -133 -57q-70 0 -136.5 40t-119.5 120q-12 -76 -51 -164t-82 -139h-29q-66 205 -151 336q-10 -88 -49 -198t-88 -194h-33q-23 121 -66 236t-80 168q-2 -213 -70.5 -366.5t-190.5 -233.5t-281 -80q-215 0 -339 147.5t-124 399.5z" />
<glyph unicode="&#x1e0c;" horiz-adv-x="1376" d="M176 0v1434h424q318 0 489 -185.5t171 -531.5q0 -221 -79 -383t-227.5 -248t-353.5 -86h-424zM324 123h276q250 0 379 150.5t129 441.5q0 301 -126 448.5t-382 147.5h-276v-1188zM587 -256q0 92 92 92h17q92 0 92 -92v-18q0 -92 -92 -93h-17q-92 1 -92 93v18z" />
<glyph unicode="&#x1e0d;" horiz-adv-x="1224" d="M82 559q0 279 136 433.5t380 154.5q76 0 161 -27.5t140 -68.5v569h139v-1358q0 -65 8.5 -133t20.5 -113q-51 -25 -94 -24q-55 0 -70 139q-68 -82 -147.5 -116.5t-196.5 -34.5q-223 0 -350 154.5t-127 424.5zM225 559q0 -225 88 -345t256 -120q105 0 185 43t145 133v645 q-49 51 -134 86t-167 35q-180 0 -276.5 -122.5t-96.5 -354.5zM512 -256q0 92 92 92h17q92 0 92 -92v-18q0 -92 -92 -93h-17q-92 1 -92 93v18z" />
<glyph unicode="&#x1e0e;" horiz-adv-x="1376" d="M176 0v1434h424q318 0 489 -185.5t171 -531.5q0 -221 -79 -383t-227.5 -248t-353.5 -86h-424zM324 123h276q250 0 379 150.5t129 441.5q0 301 -126 448.5t-382 147.5h-276v-1188zM354 -144h668v-123h-668v123z" />
<glyph unicode="&#x1e0f;" horiz-adv-x="1224" d="M82 559q0 279 136 433.5t380 154.5q76 0 161 -27.5t140 -68.5v569h139v-1358q0 -65 8.5 -133t20.5 -113q-51 -25 -94 -24q-55 0 -70 139q-68 -82 -147.5 -116.5t-196.5 -34.5q-223 0 -350 154.5t-127 424.5zM225 559q0 -225 88 -345t256 -120q105 0 185 43t145 133v645 q-49 51 -134 86t-167 35q-180 0 -276.5 -122.5t-96.5 -354.5zM278 -144h668v-123h-668v123z" />
<glyph unicode="&#x1e20;" horiz-adv-x="1363" d="M127 717q0 354 167 545.5t478 191.5q145 0 270 -54t189 -145q-41 -72 -90 -71q-33 0 -68 28q-70 59 -141.5 86t-161.5 27q-242 0 -366.5 -154.5t-124.5 -453.5q0 -307 121.5 -457.5t369.5 -150.5q102 0 190.5 26.5t129.5 71.5v430h-289q-41 0 -58.5 28.5t-17.5 98.5h512 v-614q-76 -78 -202 -124t-263 -46q-317 0 -481 187t-164 550zM438 1564v123h668v-123h-668z" />
<glyph unicode="&#x1e21;" horiz-adv-x="1198" d="M102 -123q0 82 56.5 145.5t156.5 94.5v6q-61 16 -98 60t-37 106q0 51 41 91t111 54q-88 49 -136.5 130t-48.5 181q0 401 463 402q145 0 248 -64q51 47 111.5 75t115.5 28q37 0 54.5 -19.5t17.5 -62.5q0 -12 -4 -49q-152 0 -211 -41q82 -98 82 -244q0 -393 -453 -393 q-139 0 -203.5 -19.5t-64.5 -60.5q0 -92 330 -92q231 0 358 -78t127 -221q0 -154 -136 -237t-390 -83q-240 0 -365 74t-125 217zM248 -106q0 -94 88 -143.5t256 -49.5q188 0 284.5 48t96.5 145q0 98 -87 141t-286 43q-174 0 -263 -47t-89 -137zM266 1339v123h668v-123h-668z M291 762q0 -270 293 -270q157 0 226 62t69 208q0 143 -70 208.5t-225 65.5q-152 0 -222.5 -66.5t-70.5 -207.5z" />
<glyph unicode="&#x1e24;" horiz-adv-x="1392" d="M176 0v1434h148v-635h745v635h148v-1434h-148v676h-745v-676h-148zM596 -256q0 92 92 92h17q92 0 92 -92v-18q0 -92 -92 -93h-17q-92 1 -92 93v18z" />
<glyph unicode="&#x1e25;" horiz-adv-x="1290" d="M186 0v1620h140v-608q90 66 192.5 100.5t204.5 34.5q176 0 278.5 -101.5t102.5 -275.5v-770h-139v756q0 133 -65.5 204.5t-188.5 71.5q-94 0 -198.5 -42t-186.5 -111v-879h-140zM544 -256q0 92 92 92h17q92 0 92 -92v-18q0 -92 -92 -93h-17q-92 1 -92 93v18z" />
<glyph unicode="&#x1e2a;" horiz-adv-x="1392" d="M176 0v1434h148v-635h745v635h148v-1434h-148v676h-745v-676h-148zM380 -197q0 33 25 54.5t70 21.5q12 -88 65 -139t154 -51q98 0 152.5 54t68.5 146q43 0 68.5 -22.5t25.5 -61.5q0 -59 -38 -108t-109.5 -80t-167.5 -31q-101 0 -172.5 32t-106.5 82t-35 103z" />
<glyph unicode="&#x1e2b;" horiz-adv-x="1290" d="M186 0v1620h140v-608q90 66 192.5 100.5t204.5 34.5q176 0 278.5 -101.5t102.5 -275.5v-770h-139v756q0 133 -65.5 204.5t-188.5 71.5q-94 0 -198.5 -42t-186.5 -111v-879h-140zM329 -197q0 33 25 54.5t70 21.5q12 -88 65 -139t154 -51q98 0 152.5 54t68.5 146 q43 0 68.5 -22.5t25.5 -61.5q0 -59 -38 -108t-109.5 -80t-167.5 -31q-101 0 -172.5 32t-106.5 82t-35 103z" />
<glyph unicode="&#x1e36;" horiz-adv-x="1050" d="M176 0v1434h148v-1311h696v-123h-844zM497 -256q0 92 92 92h17q92 0 92 -92v-18q0 -92 -92 -93h-17q-92 1 -92 93v18z" />
<glyph unicode="&#x1e37;" horiz-adv-x="548" d="M174 -256q0 92 92 92h17q92 0 92 -92v-18q0 -92 -92 -93h-17q-92 1 -92 93v18zM205 0v1620h139v-1620h-139z" />
<glyph unicode="&#x1e38;" horiz-adv-x="1050" d="M-84 1564v123h668v-123h-668zM176 0v1434h148v-1311h696v-123h-844zM497 -256q0 92 92 92h17q92 0 92 -92v-18q0 -92 -92 -93h-17q-92 1 -92 93v18z" />
<glyph unicode="&#x1e39;" horiz-adv-x="548" d="M-60 1749v123h668v-123h-668zM174 -256q0 92 92 92h17q92 0 92 -92v-18q0 -92 -92 -93h-17q-92 1 -92 93v18zM205 0v1620h139v-1620h-139z" />
<glyph unicode="&#x1e3a;" horiz-adv-x="1050" d="M176 0v1434h148v-1311h696v-123h-844zM264 -144h668v-123h-668v123z" />
<glyph unicode="&#x1e3b;" horiz-adv-x="548" d="M-60 -144h668v-123h-668v123zM205 0v1620h139v-1620h-139z" />
<glyph unicode="&#x1e42;" horiz-adv-x="1697" d="M156 0q10 385 50 757.5t103 676.5h164q123 -264 207 -483.5t170 -501.5q86 283 170 500.5t205 484.5h164q63 -303 103 -676t50 -758h-147q-18 643 -117 1227q-74 -168 -145.5 -374t-229.5 -710h-106q-139 442 -218 666.5t-159 411.5q-98 -559 -117 -1221h-147zM749 -256 q0 92 92 92h17q92 0 92 -92v-18q0 -92 -92 -93h-17q-92 1 -92 93v18z" />
<glyph unicode="&#x1e43;" horiz-adv-x="1867" d="M164 1104q66 31 104 31q59 0 60 -119v-8q78 74 160.5 106.5t189.5 32.5q96 0 172 -44t117 -120q88 86 179 125t208 39q145 0 236 -94.5t91 -243.5v-809h-141v803q0 119 -53 176t-162 57q-174 0 -324 -159q4 -33 5 -50v-827h-140v823q0 96 -58 154.5t-155 58.5 q-88 0 -166.5 -39t-158.5 -125v-872h-140v743q0 303 -24 361zM833 -256q0 92 92 92h17q92 0 92 -92v-18q0 -92 -92 -93h-17q-92 1 -92 93v18z" />
<glyph unicode="&#x1e44;" horiz-adv-x="1413" d="M176 0v1434h119q27 0 42 -7.5t36 -33.5l708 -932v973h148v-1153q0 -64 4 -150q4 -57 4 -76q0 -55 -53 -55h-103v111q0 119 -80 227l-677 893v-1231h-148zM605 1650v19q0 92 92 92h16q92 0 92 -92v-19q0 -92 -92 -92h-16q-92 0 -92 92z" />
<glyph unicode="&#x1e45;" horiz-adv-x="1249" d="M160 1104q66 31 104 31q59 0 60 -119v-19q94 78 189 114t202 36q176 0 263 -95.5t87 -289.5v-500q0 -125 3 -169t15 -79q-49 -25 -106 -24q-31 0 -41 44t-10 175v555q0 143 -53.5 207.5t-172.5 64.5q-184 0 -376 -182v-854h-140v743q0 303 -24 361zM525 1425v19 q0 92 92 92h16q92 0 92 -92v-19q0 -92 -92 -92h-16q-92 0 -92 92z" />
<glyph unicode="&#x1e46;" horiz-adv-x="1413" d="M176 0v1434h119q27 0 42 -7.5t36 -33.5l708 -932v973h148v-1153q0 -64 4 -150q4 -57 4 -76q0 -55 -53 -55h-103v111q0 119 -80 227l-677 893v-1231h-148zM604 -256q0 92 92 92h17q92 0 92 -92v-18q0 -92 -92 -93h-17q-92 1 -92 93v18z" />
<glyph unicode="&#x1e47;" horiz-adv-x="1249" d="M160 1104q66 31 104 31q59 0 60 -119v-19q94 78 189 114t202 36q176 0 263 -95.5t87 -289.5v-500q0 -125 3 -169t15 -79q-49 -25 -106 -24q-31 0 -41 44t-10 175v555q0 143 -53.5 207.5t-172.5 64.5q-184 0 -376 -182v-854h-140v743q0 303 -24 361zM524 -256q0 92 92 92 h17q92 0 92 -92v-18q0 -92 -92 -93h-17q-92 1 -92 93v18z" />
<glyph unicode="&#x1e48;" horiz-adv-x="1413" d="M176 0v1434h119q27 0 42 -7.5t36 -33.5l708 -932v973h148v-1153q0 -64 4 -150q4 -57 4 -76q0 -55 -53 -55h-103v111q0 119 -80 227l-677 893v-1231h-148zM371 -144h668v-123h-668v123z" />
<glyph unicode="&#x1e49;" horiz-adv-x="1249" d="M160 1104q66 31 104 31q59 0 60 -119v-19q94 78 189 114t202 36q176 0 263 -95.5t87 -289.5v-500q0 -125 3 -169t15 -79q-49 -25 -106 -24q-31 0 -41 44t-10 175v555q0 143 -53.5 207.5t-172.5 64.5q-184 0 -376 -182v-854h-140v743q0 303 -24 361zM291 -144h668v-123 h-668v123z" />
<glyph unicode="&#x1e5a;" horiz-adv-x="1288" d="M176 0v1434h465q248 0 389 -110t141 -304q0 -154 -102 -265.5t-266 -138.5q59 -49 106 -124l289 -486q-41 -23 -88 -22q-37 0 -60.5 14t-41.5 47l-234 401q-49 86 -119.5 122t-191.5 36h-139v-604h-148zM324 731h307q184 0 285.5 76t101.5 213q0 141 -95.5 214t-281.5 73 h-317v-576zM544 -256q0 92 92 92h17q92 0 92 -92v-18q0 -92 -92 -93h-17q-92 1 -92 93v18z" />
<glyph unicode="&#x1e5b;" horiz-adv-x="819" d="M143 -256q0 92 92 92h17q92 0 92 -92v-18q0 -92 -92 -93h-17q-92 1 -92 93v18zM174 0v1126h139v-202q47 94 133 155.5t181 61.5q71 0 109 -23.5t38 -70.5q0 -33 -22 -60q-49 27 -136 27q-137 0 -220 -108.5t-83 -284.5v-621h-139z" />
<glyph unicode="&#x1e5c;" horiz-adv-x="1288" d="M176 0v1434h465q248 0 389 -110t141 -304q0 -154 -102 -265.5t-266 -138.5q59 -49 106 -124l289 -486q-41 -23 -88 -22q-37 0 -60.5 14t-41.5 47l-234 401q-49 86 -119.5 122t-191.5 36h-139v-604h-148zM307 1564v123h668v-123h-668zM324 731h307q184 0 285.5 76 t101.5 213q0 141 -95.5 214t-281.5 73h-317v-576zM544 -256q0 92 92 92h17q92 0 92 -92v-18q0 -92 -92 -93h-17q-92 1 -92 93v18z" />
<glyph unicode="&#x1e5d;" horiz-adv-x="819" d="M76 1339v123h668v-123h-668zM143 -256q0 92 92 92h17q92 0 92 -92v-18q0 -92 -92 -93h-17q-92 1 -92 93v18zM174 0v1126h139v-202q47 94 133 155.5t181 61.5q71 0 109 -23.5t38 -70.5q0 -33 -22 -60q-49 27 -136 27q-137 0 -220 -108.5t-83 -284.5v-621h-139z" />
<glyph unicode="&#x1e5e;" horiz-adv-x="1288" d="M176 0v1434h465q248 0 389 -110t141 -304q0 -154 -102 -265.5t-266 -138.5q59 -49 106 -124l289 -486q-41 -23 -88 -22q-37 0 -60.5 14t-41.5 47l-234 401q-49 86 -119.5 122t-191.5 36h-139v-604h-148zM311 -144h668v-123h-668v123zM324 731h307q184 0 285.5 76 t101.5 213q0 141 -95.5 214t-281.5 73h-317v-576z" />
<glyph unicode="&#x1e5f;" horiz-adv-x="819" d="M-90 -144h668v-123h-668v123zM174 0v1126h139v-202q47 94 133 155.5t181 61.5q71 0 109 -23.5t38 -70.5q0 -33 -22 -60q-49 27 -136 27q-137 0 -220 -108.5t-83 -284.5v-621h-139z" />
<glyph unicode="&#x1e60;" horiz-adv-x="1314" d="M141 309q0 41 30 66.5t79 27.5q33 -145 139.5 -221t274.5 -76q172 0 277.5 80t105.5 209q0 76 -38 129.5t-124 95.5t-238 80q-176 47 -276.5 99.5t-144.5 119t-44 164.5q0 172 127 271.5t350 99.5q195 0 325 -91t175 -257q-27 -27 -82 -27q-57 0 -84 56q-45 90 -136 143 t-198 53q-162 0 -245.5 -63.5t-83.5 -184.5q0 -61 30.5 -103t102.5 -77t203 -72q219 -61 330.5 -116.5t156.5 -125t45 -181.5q0 -129 -65.5 -226.5t-187.5 -149.5t-286 -52q-141 0 -259.5 44t-188.5 119.5t-70 165.5zM557 1650v19q0 92 92 92h16q92 0 92 -92v-19 q0 -92 -92 -92h-16q-92 0 -92 92z" />
<glyph unicode="&#x1e61;" horiz-adv-x="993" d="M82 201q0 27 17.5 48t43.5 30q74 -96 160 -140.5t207 -44.5q129 0 195.5 59.5t66.5 157.5q0 66 -40 107t-98.5 61.5t-160.5 46.5q-119 31 -191.5 59.5t-122.5 87t-50 156.5q0 104 55 176t141 107t176 35q129 0 234.5 -51.5t165.5 -149.5q-49 -51 -84 -51q-27 0 -52 29 q-49 57 -113.5 84.5t-156.5 27.5q-104 0 -165.5 -49t-61.5 -151q0 -59 37 -96.5t92 -56.5t151 -44q123 -29 200 -59.5t130 -95t53 -173.5q0 -152 -111.5 -241.5t-297.5 -89.5q-92 0 -190.5 30.5t-164 81.5t-65.5 109zM398 1425v19q0 92 92 92h16q92 0 92 -92v-19 q0 -92 -92 -92h-16q-92 0 -92 92z" />
<glyph unicode="&#x1e62;" horiz-adv-x="1314" d="M141 309q0 41 30 66.5t79 27.5q33 -145 139.5 -221t274.5 -76q172 0 277.5 80t105.5 209q0 76 -38 129.5t-124 95.5t-238 80q-176 47 -276.5 99.5t-144.5 119t-44 164.5q0 172 127 271.5t350 99.5q195 0 325 -91t175 -257q-27 -27 -82 -27q-57 0 -84 56q-45 90 -136 143 t-198 53q-162 0 -245.5 -63.5t-83.5 -184.5q0 -61 30.5 -103t102.5 -77t203 -72q219 -61 330.5 -116.5t156.5 -125t45 -181.5q0 -129 -65.5 -226.5t-187.5 -149.5t-286 -52q-141 0 -259.5 44t-188.5 119.5t-70 165.5zM557 -256q0 92 92 92h17q92 0 92 -92v-18q0 -92 -92 -93 h-17q-92 1 -92 93v18z" />
<glyph unicode="&#x1e63;" horiz-adv-x="993" d="M82 201q0 27 17.5 48t43.5 30q74 -96 160 -140.5t207 -44.5q129 0 195.5 59.5t66.5 157.5q0 66 -40 107t-98.5 61.5t-160.5 46.5q-119 31 -191.5 59.5t-122.5 87t-50 156.5q0 104 55 176t141 107t176 35q129 0 234.5 -51.5t165.5 -149.5q-49 -51 -84 -51q-27 0 -52 29 q-49 57 -113.5 84.5t-156.5 27.5q-104 0 -165.5 -49t-61.5 -151q0 -59 37 -96.5t92 -56.5t151 -44q123 -29 200 -59.5t130 -95t53 -173.5q0 -152 -111.5 -241.5t-297.5 -89.5q-92 0 -190.5 30.5t-164 81.5t-65.5 109zM397 -256q0 92 92 92h17q92 0 92 -92v-18q0 -92 -92 -93 h-17q-92 1 -92 93v18z" />
<glyph unicode="&#x1e6c;" horiz-adv-x="1093" d="M31 1311v123h1032q8 -38 8 -50q0 -35 -18.5 -54t-55.5 -19h-376v-1311h-148v1311h-442zM450 -256q0 92 92 92h17q92 0 92 -92v-18q0 -92 -92 -93h-17q-92 1 -92 93v18z" />
<glyph unicode="&#x1e6d;" horiz-adv-x="765" d="M25 1016v110h213v308h139v-308h295v-110h-295v-742q0 -172 147 -172q94 0 176 35q15 -10 24 -29.5t9 -39.5q0 -39 -33 -56q-66 -33 -170 -32q-133 0 -212.5 72.5t-79.5 195.5v768h-213zM409 -256q0 92 92 92h17q92 0 92 -92v-18q0 -92 -92 -93h-17q-92 1 -92 93v18z" />
<glyph unicode="&#x1e6e;" horiz-adv-x="1093" d="M31 1311v123h1032q8 -38 8 -50q0 -35 -18.5 -54t-55.5 -19h-376v-1311h-148v1311h-442zM217 -144h668v-123h-668v123z" />
<glyph unicode="&#x1e6f;" horiz-adv-x="765" d="M25 1016v110h213v308h139v-308h295v-110h-295v-742q0 -172 147 -172q94 0 176 35q15 -10 24 -29.5t9 -39.5q0 -39 -33 -56q-66 -33 -170 -32q-133 0 -212.5 72.5t-79.5 195.5v768h-213zM176 -144h668v-123h-668v123z" />
<glyph unicode="&#x1e80;" horiz-adv-x="1753" d="M31 1434h147q39 -256 107.5 -527.5t208.5 -711.5q82 254 154.5 513t191.5 726h86q178 -647 236.5 -850t117.5 -387q133 434 199.5 706.5t103.5 530.5h139q-43 -289 -120.5 -598.5t-237.5 -835.5h-168q-141 475 -203.5 704.5t-105.5 423.5q-49 -221 -117 -469.5 t-192 -658.5h-168q-160 496 -245 816.5t-134 617.5zM646 1829h170l207 -310h-136z" />
<glyph unicode="&#x1e81;" horiz-adv-x="1556" d="M68 1126h143q35 -299 89 -523t142 -417q197 403 267 940h135q74 -555 264 -944q178 426 211 944h160q-82 -623 -312 -1126h-127q-106 233 -168.5 425.5t-97.5 401.5q-37 -213 -100.5 -406.5t-169.5 -420.5h-131q-109 231 -181.5 499.5t-123.5 626.5zM537 1604h170 l207 -310h-136z" />
<glyph unicode="&#x1e82;" horiz-adv-x="1753" d="M31 1434h147q39 -256 107.5 -527.5t208.5 -711.5q82 254 154.5 513t191.5 726h86q178 -647 236.5 -850t117.5 -387q133 434 199.5 706.5t103.5 530.5h139q-43 -289 -120.5 -598.5t-237.5 -835.5h-168q-141 475 -203.5 704.5t-105.5 423.5q-49 -221 -117 -469.5 t-192 -658.5h-168q-160 496 -245 816.5t-134 617.5zM753 1519l229 310h174l-268 -310h-135z" />
<glyph unicode="&#x1e83;" horiz-adv-x="1556" d="M68 1126h143q35 -299 89 -523t142 -417q197 403 267 940h135q74 -555 264 -944q178 426 211 944h160q-82 -623 -312 -1126h-127q-106 233 -168.5 425.5t-97.5 401.5q-37 -213 -100.5 -406.5t-169.5 -420.5h-131q-109 231 -181.5 499.5t-123.5 626.5zM645 1294l229 310 h174l-268 -310h-135z" />
<glyph unicode="&#x1e84;" horiz-adv-x="1753" d="M31 1434h147q39 -256 107.5 -527.5t208.5 -711.5q82 254 154.5 513t191.5 726h86q178 -647 236.5 -850t117.5 -387q133 434 199.5 706.5t103.5 530.5h139q-43 -289 -120.5 -598.5t-237.5 -835.5h-168q-141 475 -203.5 704.5t-105.5 423.5q-49 -221 -117 -469.5 t-192 -658.5h-168q-160 496 -245 816.5t-134 617.5zM580 1626v18q0 92 92 92h17q92 0 92 -92v-18q0 -92 -92 -92h-17q-92 0 -92 92zM998 1626v18q0 92 92 92h16q92 0 92 -92v-18q0 -92 -92 -92h-16q-92 0 -92 92z" />
<glyph unicode="&#x1e85;" horiz-adv-x="1556" d="M68 1126h143q35 -299 89 -523t142 -417q197 403 267 940h135q74 -555 264 -944q178 426 211 944h160q-82 -623 -312 -1126h-127q-106 233 -168.5 425.5t-97.5 401.5q-37 -213 -100.5 -406.5t-169.5 -420.5h-131q-109 231 -181.5 499.5t-123.5 626.5zM471 1401v18 q0 92 92 92h17q92 0 92 -92v-18q0 -92 -92 -92h-17q-92 0 -92 92zM889 1401v18q0 92 92 92h16q92 0 92 -92v-18q0 -92 -92 -92h-16q-92 0 -92 92z" />
<glyph unicode="&#x1e8e;" horiz-adv-x="1208" d="M41 1434h160l405 -695l404 695h157l-489 -832v-602h-148v602zM504 1650v19q0 92 92 92h16q92 0 92 -92v-19q0 -92 -92 -92h-16q-92 0 -92 92z" />
<glyph unicode="&#x1e8f;" horiz-adv-x="993" d="M2 -311q0 41 35 65q20 -14 62 -24.5t83 -10.5q84 0 144.5 74t103.5 225l-401 1108h147l326 -907l321 907h148l-436 -1212q-57 -162 -144.5 -236.5t-220.5 -74.5q-78 0 -123 23.5t-45 62.5zM398 1425v19q0 92 92 92h16q92 0 92 -92v-19q0 -92 -92 -92h-16q-92 0 -92 92z " />
<glyph unicode="&#x1e92;" horiz-adv-x="1187" d="M106 1311v123h959v-131l-782 -1180h798v-123h-970v123l792 1188h-797zM493 -256q0 92 92 92h17q92 0 92 -92v-18q0 -92 -92 -93h-17q-92 1 -92 93v18z" />
<glyph unicode="&#x1e93;" horiz-adv-x="1024" d="M61 0v98l697 910h-643v118h831v-96l-696 -911h713v-119h-902zM411 -256q0 92 92 92h17q92 0 92 -92v-18q0 -92 -92 -93h-17q-92 1 -92 93v18z" />
<glyph unicode="&#x1e97;" horiz-adv-x="765" d="M0 1626v18q0 92 92 92h17q92 0 92 -92v-18q0 -92 -92 -92h-17q-92 0 -92 92zM25 1016v110h213v308h139v-308h295v-110h-295v-742q0 -172 147 -172q94 0 176 35q15 -10 24 -29.5t9 -39.5q0 -39 -33 -56q-66 -33 -170 -32q-133 0 -212.5 72.5t-79.5 195.5v768h-213z M418 1626v18q0 92 92 92h16q92 0 92 -92v-18q0 -92 -92 -92h-16q-92 0 -92 92z" />
<glyph unicode="&#x1e9e;" horiz-adv-x="1433" d="M172 0v961q0 152 70.5 262t189.5 168.5t260 58.5q213 0 348.5 -97.5t169.5 -248.5l-292 -293q169 -25 277 -128t108 -286q0 -133 -61.5 -227t-168 -142t-237.5 -48q-88 0 -171 23.5t-130 59.5q-16 14 -25.5 35t-9.5 43q0 25 12 44.5t35 23.5q68 -51 139.5 -77t157.5 -26 q143 0 225 74t82 215q0 162 -96.5 238t-268.5 76q-35 0 -56 25.5t-21 60.5l333 331q-68 197 -356 197q-104 0 -187 -44t-131.5 -126t-48.5 -192v-961h-147z" />
<glyph unicode="&#x1ea0;" horiz-adv-x="1269" d="M31 0q106 438 231 779t297 655h154q170 -311 295 -652.5t231 -781.5h-152q-55 254 -104 416h-696q-49 -162 -105 -416h-151zM322 539h626q-125 397 -313 745q-188 -348 -313 -745zM534 -256q0 92 92 92h17q92 0 92 -92v-18q0 -92 -92 -93h-17q-92 1 -92 93v18z" />
<glyph unicode="&#x1ea1;" horiz-adv-x="1142" d="M102 272q0 193 187.5 301.5t546.5 124.5v66q0 135 -69 201.5t-208 66.5q-90 0 -167 -38t-165 -126q-12 -12 -30 -12q-20 0 -45 17.5t-48 50.5q92 109 210 166t251 57q190 0 300 -102.5t110 -280.5v-483q0 -95 15.5 -149t53.5 -97q-20 -20 -47.5 -32.5t-52.5 -12.5 q-41 0 -68.5 47t-35.5 129q-63 -86 -170 -136t-224 -50q-156 0 -250 80.5t-94 211.5zM246 274q0 -180 211 -180q110 0 208.5 61.5t170.5 174.5v254q-590 -25 -590 -310zM471 -256q0 92 92 92h17q92 0 92 -92v-18q0 -92 -92 -93h-17q-92 1 -92 93v18z" />
<glyph unicode="&#x1ea2;" horiz-adv-x="1269" d="M31 0q106 438 231 779t297 655h154q170 -311 295 -652.5t231 -781.5h-152q-55 254 -104 416h-696q-49 -162 -105 -416h-151zM322 539h626q-125 397 -313 745q-188 -348 -313 -745zM447 1790q0 55 52 97t134 42q92 0 148.5 -50t56.5 -143q0 -164 -183 -251q-26 0 -50.5 16 t-24.5 39q76 41 107.5 86t31.5 104q0 45 -23.5 71t-66.5 26t-68.5 -27t-42.5 -72q-31 0 -51 17.5t-20 44.5z" />
<glyph unicode="&#x1ea3;" horiz-adv-x="1142" d="M102 272q0 193 187.5 301.5t546.5 124.5v66q0 135 -69 201.5t-208 66.5q-90 0 -167 -38t-165 -126q-12 -12 -30 -12q-20 0 -45 17.5t-48 50.5q92 109 210 166t251 57q190 0 300 -102.5t110 -280.5v-483q0 -95 15.5 -149t53.5 -97q-20 -20 -47.5 -32.5t-52.5 -12.5 q-41 0 -68.5 47t-35.5 129q-63 -86 -170 -136t-224 -50q-156 0 -250 80.5t-94 211.5zM246 274q0 -180 211 -180q110 0 208.5 61.5t170.5 174.5v254q-590 -25 -590 -310zM379 1565q0 55 52 97t134 42q92 0 148.5 -50t56.5 -143q0 -164 -183 -251q-26 0 -50.5 16t-24.5 39 q76 41 107.5 86t31.5 104q0 45 -23.5 71t-66.5 26t-68.5 -27t-42.5 -72q-31 0 -51 17.5t-20 44.5z" />
<glyph unicode="&#x1ea4;" horiz-adv-x="1269" d="M31 0q106 438 231 779t297 655h154q170 -311 295 -652.5t231 -781.5h-152q-55 254 -104 416h-696q-49 -162 -105 -416h-151zM322 539h626q-125 397 -313 745q-188 -348 -313 -745zM330 1519l229 273h150l227 -273h-131l-170 170l-174 -170h-131zM862 1695l229 310h174 l-268 -310h-135z" />
<glyph unicode="&#x1ea5;" horiz-adv-x="1142" d="M102 272q0 193 187.5 301.5t546.5 124.5v66q0 135 -69 201.5t-208 66.5q-90 0 -167 -38t-165 -126q-12 -12 -30 -12q-20 0 -45 17.5t-48 50.5q92 109 210 166t251 57q190 0 300 -102.5t110 -280.5v-483q0 -95 15.5 -149t53.5 -97q-20 -20 -47.5 -32.5t-52.5 -12.5 q-41 0 -68.5 47t-35.5 129q-63 -86 -170 -136t-224 -50q-156 0 -250 80.5t-94 211.5zM246 274q0 -180 211 -180q110 0 208.5 61.5t170.5 174.5v254q-590 -25 -590 -310zM262 1294l229 273h150l227 -273h-131l-170 170l-174 -170h-131zM794 1470l229 310h174l-268 -310h-135z " />
<glyph unicode="&#x1ea6;" horiz-adv-x="1269" d="M31 0q106 438 231 779t297 655h154q170 -311 295 -652.5t231 -781.5h-152q-55 254 -104 416h-696q-49 -162 -105 -416h-151zM322 539h626q-125 397 -313 745q-188 -348 -313 -745zM330 1519l229 273h150l227 -273h-131l-170 170l-174 -170h-131zM662 2054h170l207 -310 h-136z" />
<glyph unicode="&#x1ea7;" horiz-adv-x="1142" d="M102 272q0 193 187.5 301.5t546.5 124.5v66q0 135 -69 201.5t-208 66.5q-90 0 -167 -38t-165 -126q-12 -12 -30 -12q-20 0 -45 17.5t-48 50.5q92 109 210 166t251 57q190 0 300 -102.5t110 -280.5v-483q0 -95 15.5 -149t53.5 -97q-20 -20 -47.5 -32.5t-52.5 -12.5 q-41 0 -68.5 47t-35.5 129q-63 -86 -170 -136t-224 -50q-156 0 -250 80.5t-94 211.5zM246 274q0 -180 211 -180q110 0 208.5 61.5t170.5 174.5v254q-590 -25 -590 -310zM262 1294l229 273h150l227 -273h-131l-170 170l-174 -170h-131zM594 1829h170l207 -310h-136z" />
<glyph unicode="&#x1ea8;" horiz-adv-x="1269" d="M31 0q106 438 231 779t297 655h154q170 -311 295 -652.5t231 -781.5h-152q-55 254 -104 416h-696q-49 -162 -105 -416h-151zM322 539h626q-125 397 -313 745q-188 -348 -313 -745zM330 1519l229 273h150l227 -273h-131l-170 170l-174 -170h-131zM695 2034q0 55 52 97 t134 42q92 0 148.5 -50t56.5 -143q0 -164 -183 -251q-26 0 -50.5 16t-24.5 39q76 41 107.5 86t31.5 104q0 45 -23.5 71t-66.5 26t-68.5 -27t-42.5 -72q-31 0 -51 17.5t-20 44.5z" />
<glyph unicode="&#x1ea9;" horiz-adv-x="1142" d="M102 272q0 193 187.5 301.5t546.5 124.5v66q0 135 -69 201.5t-208 66.5q-90 0 -167 -38t-165 -126q-12 -12 -30 -12q-20 0 -45 17.5t-48 50.5q92 109 210 166t251 57q190 0 300 -102.5t110 -280.5v-483q0 -95 15.5 -149t53.5 -97q-20 -20 -47.5 -32.5t-52.5 -12.5 q-41 0 -68.5 47t-35.5 129q-63 -86 -170 -136t-224 -50q-156 0 -250 80.5t-94 211.5zM246 274q0 -180 211 -180q110 0 208.5 61.5t170.5 174.5v254q-590 -25 -590 -310zM262 1294l229 273h150l227 -273h-131l-170 170l-174 -170h-131zM627 1809q0 55 52 97t134 42 q92 0 148.5 -50t56.5 -143q0 -164 -183 -251q-26 0 -50.5 16t-24.5 39q76 41 107.5 86t31.5 104q0 45 -23.5 71t-66.5 26t-68.5 -27t-42.5 -72q-31 0 -51 17.5t-20 44.5z" />
<glyph unicode="&#x1eaa;" horiz-adv-x="1269" d="M31 0q106 438 231 779t297 655h154q170 -311 295 -652.5t231 -781.5h-152q-55 254 -104 416h-696q-49 -162 -105 -416h-151zM322 539h626q-125 397 -313 745q-188 -348 -313 -745zM328 1935q0 74 50 114.5t128 40.5q45 0 78.5 -13t74.5 -38q31 -20 53.5 -29.5t49.5 -9.5 q84 0 98 97q39 0 60.5 -17.5t21.5 -44.5q0 -59 -47 -102t-127 -43q-47 0 -82 13t-78 38q-33 20 -57.5 29.5t-52.5 9.5q-80 0 -97 -94q-73 0 -73 49zM330 1519l229 273h150l227 -273h-131l-170 170l-174 -170h-131z" />
<glyph unicode="&#x1eab;" horiz-adv-x="1142" d="M102 272q0 193 187.5 301.5t546.5 124.5v66q0 135 -69 201.5t-208 66.5q-90 0 -167 -38t-165 -126q-12 -12 -30 -12q-20 0 -45 17.5t-48 50.5q92 109 210 166t251 57q190 0 300 -102.5t110 -280.5v-483q0 -95 15.5 -149t53.5 -97q-20 -20 -47.5 -32.5t-52.5 -12.5 q-41 0 -68.5 47t-35.5 129q-63 -86 -170 -136t-224 -50q-156 0 -250 80.5t-94 211.5zM246 274q0 -180 211 -180q110 0 208.5 61.5t170.5 174.5v254q-590 -25 -590 -310zM260 1710q0 74 50 114.5t128 40.5q45 0 78.5 -13t74.5 -38q31 -20 53.5 -29.5t49.5 -9.5q84 0 98 97 q39 0 60.5 -17.5t21.5 -44.5q0 -59 -47 -102t-127 -43q-47 0 -82 13t-78 38q-33 20 -57.5 29.5t-52.5 9.5q-80 0 -97 -94q-73 0 -73 49zM262 1294l229 273h150l227 -273h-131l-170 170l-174 -170h-131z" />
<glyph unicode="&#x1eac;" horiz-adv-x="1269" d="M31 0q106 438 231 779t297 655h154q170 -311 295 -652.5t231 -781.5h-152q-55 254 -104 416h-696q-49 -162 -105 -416h-151zM322 539h626q-125 397 -313 745q-188 -348 -313 -745zM332 1519l229 273h150l227 -273h-131l-170 170l-174 -170h-131zM534 -256q0 92 92 92h17 q92 0 92 -92v-18q0 -92 -92 -93h-17q-92 1 -92 93v18z" />
<glyph unicode="&#x1ead;" horiz-adv-x="1142" d="M102 272q0 193 187.5 301.5t546.5 124.5v66q0 135 -69 201.5t-208 66.5q-90 0 -167 -38t-165 -126q-12 -12 -30 -12q-20 0 -45 17.5t-48 50.5q92 109 210 166t251 57q190 0 300 -102.5t110 -280.5v-483q0 -95 15.5 -149t53.5 -97q-20 -20 -47.5 -32.5t-52.5 -12.5 q-41 0 -68.5 47t-35.5 129q-63 -86 -170 -136t-224 -50q-156 0 -250 80.5t-94 211.5zM246 274q0 -180 211 -180q110 0 208.5 61.5t170.5 174.5v254q-590 -25 -590 -310zM264 1294l229 273h150l227 -273h-131l-170 170l-174 -170h-131zM471 -256q0 92 92 92h17q92 0 92 -92 v-18q0 -92 -92 -93h-17q-92 1 -92 93v18z" />
<glyph unicode="&#x1eae;" horiz-adv-x="1269" d="M31 0q106 438 231 779t297 655h154q170 -311 295 -652.5t231 -781.5h-152q-55 254 -104 416h-696q-49 -162 -105 -416h-151zM322 539h626q-125 397 -313 745q-188 -348 -313 -745zM323 1734q0 33 25 54.5t70 21.5q12 -88 65 -139t154 -51q98 0 152.5 54t68.5 146 q43 0 68.5 -22.5t25.5 -61.5q0 -59 -38 -108t-109.5 -80t-167.5 -31q-101 0 -172.5 32t-106.5 82t-35 103zM504 1865l229 310h174l-268 -310h-135z" />
<glyph unicode="&#x1eaf;" horiz-adv-x="1142" d="M102 272q0 193 187.5 301.5t546.5 124.5v66q0 135 -69 201.5t-208 66.5q-90 0 -167 -38t-165 -126q-12 -12 -30 -12q-20 0 -45 17.5t-48 50.5q92 109 210 166t251 57q190 0 300 -102.5t110 -280.5v-483q0 -95 15.5 -149t53.5 -97q-20 -20 -47.5 -32.5t-52.5 -12.5 q-41 0 -68.5 47t-35.5 129q-63 -86 -170 -136t-224 -50q-156 0 -250 80.5t-94 211.5zM246 274q0 -180 211 -180q110 0 208.5 61.5t170.5 174.5v254q-590 -25 -590 -310zM253 1509q0 33 25 54.5t70 21.5q12 -88 65 -139t154 -51q98 0 152.5 54t68.5 146q43 0 68.5 -22.5 t25.5 -61.5q0 -59 -38 -108t-109.5 -80t-167.5 -31q-101 0 -172.5 32t-106.5 82t-35 103zM434 1640l229 310h174l-268 -310h-135z" />
<glyph unicode="&#x1eb0;" horiz-adv-x="1269" d="M31 0q106 438 231 779t297 655h154q170 -311 295 -652.5t231 -781.5h-152q-55 254 -104 416h-696q-49 -162 -105 -416h-151zM322 539h626q-125 397 -313 745q-188 -348 -313 -745zM323 1734q0 33 25 54.5t70 21.5q12 -88 65 -139t154 -51q98 0 152.5 54t68.5 146 q43 0 68.5 -22.5t25.5 -61.5q0 -59 -38 -108t-109.5 -80t-167.5 -31q-101 0 -172.5 32t-106.5 82t-35 103zM396 2138h170l207 -310h-136z" />
<glyph unicode="&#x1eb1;" horiz-adv-x="1142" d="M102 272q0 193 187.5 301.5t546.5 124.5v66q0 135 -69 201.5t-208 66.5q-90 0 -167 -38t-165 -126q-12 -12 -30 -12q-20 0 -45 17.5t-48 50.5q92 109 210 166t251 57q190 0 300 -102.5t110 -280.5v-483q0 -95 15.5 -149t53.5 -97q-20 -20 -47.5 -32.5t-52.5 -12.5 q-41 0 -68.5 47t-35.5 129q-63 -86 -170 -136t-224 -50q-156 0 -250 80.5t-94 211.5zM246 274q0 -180 211 -180q110 0 208.5 61.5t170.5 174.5v254q-590 -25 -590 -310zM255 1509q0 33 25 54.5t70 21.5q12 -88 65 -139t154 -51q98 0 152.5 54t68.5 146q43 0 68.5 -22.5 t25.5 -61.5q0 -59 -38 -108t-109.5 -80t-167.5 -31q-101 0 -172.5 32t-106.5 82t-35 103zM328 1913h170l207 -310h-136z" />
<glyph unicode="&#x1eb2;" horiz-adv-x="1269" d="M31 0q106 438 231 779t297 655h154q170 -311 295 -652.5t231 -781.5h-152q-55 254 -104 416h-696q-49 -162 -105 -416h-151zM321 1734q0 33 25 54.5t70 21.5q12 -88 65 -139t154 -51q98 0 152.5 54t68.5 146q43 0 68.5 -22.5t25.5 -61.5q0 -59 -38 -108t-109.5 -80 t-167.5 -31q-101 0 -172.5 32t-106.5 82t-35 103zM322 539h626q-125 397 -313 745q-188 -348 -313 -745zM447 2075q0 55 52 97t134 42q92 0 148.5 -50t56.5 -143q0 -164 -183 -251q-26 0 -50.5 16t-24.5 39q76 41 107.5 86t31.5 104q0 45 -23.5 71t-66.5 26t-68.5 -27 t-42.5 -72q-31 0 -51 17.5t-20 44.5z" />
<glyph unicode="&#x1eb3;" horiz-adv-x="1142" d="M102 272q0 193 187.5 301.5t546.5 124.5v66q0 135 -69 201.5t-208 66.5q-90 0 -167 -38t-165 -126q-12 -12 -30 -12q-20 0 -45 17.5t-48 50.5q92 109 210 166t251 57q190 0 300 -102.5t110 -280.5v-483q0 -95 15.5 -149t53.5 -97q-20 -20 -47.5 -32.5t-52.5 -12.5 q-41 0 -68.5 47t-35.5 129q-63 -86 -170 -136t-224 -50q-156 0 -250 80.5t-94 211.5zM246 274q0 -180 211 -180q110 0 208.5 61.5t170.5 174.5v254q-590 -25 -590 -310zM253 1509q0 33 25 54.5t70 21.5q12 -88 65 -139t154 -51q98 0 152.5 54t68.5 146q43 0 68.5 -22.5 t25.5 -61.5q0 -59 -38 -108t-109.5 -80t-167.5 -31q-101 0 -172.5 32t-106.5 82t-35 103zM379 1850q0 55 52 97t134 42q92 0 148.5 -50t56.5 -143q0 -164 -183 -251q-26 0 -50.5 16t-24.5 39q76 41 107.5 86t31.5 104q0 45 -23.5 71t-66.5 26t-68.5 -27t-42.5 -72 q-31 0 -51 17.5t-20 44.5z" />
<glyph unicode="&#x1eb4;" horiz-adv-x="1269" d="M31 0q106 438 231 779t297 655h154q170 -311 295 -652.5t231 -781.5h-152q-55 254 -104 416h-696q-49 -162 -105 -416h-151zM321 1734q0 33 25 54.5t70 21.5q12 -88 65 -139t154 -51q98 0 152.5 54t68.5 146q43 0 68.5 -22.5t25.5 -61.5q0 -59 -38 -108t-109.5 -80 t-167.5 -31q-101 0 -172.5 32t-106.5 82t-35 103zM322 539h626q-125 397 -313 745q-188 -348 -313 -745zM330 1927q0 74 50 114.5t128 40.5q45 0 78.5 -13t74.5 -38q31 -20 53.5 -29.5t49.5 -9.5q84 0 98 97q39 0 60.5 -17.5t21.5 -44.5q0 -59 -47 -102t-127 -43 q-47 0 -82 13t-78 38q-33 20 -57.5 29.5t-52.5 9.5q-80 0 -97 -94q-73 0 -73 49z" />
<glyph unicode="&#x1eb5;" horiz-adv-x="1142" d="M102 272q0 193 187.5 301.5t546.5 124.5v66q0 135 -69 201.5t-208 66.5q-90 0 -167 -38t-165 -126q-12 -12 -30 -12q-20 0 -45 17.5t-48 50.5q92 109 210 166t251 57q190 0 300 -102.5t110 -280.5v-483q0 -95 15.5 -149t53.5 -97q-20 -20 -47.5 -32.5t-52.5 -12.5 q-41 0 -68.5 47t-35.5 129q-63 -86 -170 -136t-224 -50q-156 0 -250 80.5t-94 211.5zM246 274q0 -180 211 -180q110 0 208.5 61.5t170.5 174.5v254q-590 -25 -590 -310zM253 1509q0 33 25 54.5t70 21.5q12 -88 65 -139t154 -51q98 0 152.5 54t68.5 146q43 0 68.5 -22.5 t25.5 -61.5q0 -59 -38 -108t-109.5 -80t-167.5 -31q-101 0 -172.5 32t-106.5 82t-35 103zM262 1702q0 74 50 114.5t128 40.5q45 0 78.5 -13t74.5 -38q31 -20 53.5 -29.5t49.5 -9.5q84 0 98 97q39 0 60.5 -17.5t21.5 -44.5q0 -59 -47 -102t-127 -43q-47 0 -82 13t-78 38 q-33 20 -57.5 29.5t-52.5 9.5q-80 0 -97 -94q-73 0 -73 49z" />
<glyph unicode="&#x1eb6;" horiz-adv-x="1269" d="M31 0q106 438 231 779t297 655h154q170 -311 295 -652.5t231 -781.5h-152q-55 254 -104 416h-696q-49 -162 -105 -416h-151zM321 1734q0 33 25 54.5t70 21.5q12 -88 65 -139t154 -51q98 0 152.5 54t68.5 146q43 0 68.5 -22.5t25.5 -61.5q0 -59 -38 -108t-109.5 -80 t-167.5 -31q-101 0 -172.5 32t-106.5 82t-35 103zM322 539h626q-125 397 -313 745q-188 -348 -313 -745zM534 -256q0 92 92 92h17q92 0 92 -92v-18q0 -92 -92 -93h-17q-92 1 -92 93v18z" />
<glyph unicode="&#x1eb7;" horiz-adv-x="1142" d="M102 272q0 193 187.5 301.5t546.5 124.5v66q0 135 -69 201.5t-208 66.5q-90 0 -167 -38t-165 -126q-12 -12 -30 -12q-20 0 -45 17.5t-48 50.5q92 109 210 166t251 57q190 0 300 -102.5t110 -280.5v-483q0 -95 15.5 -149t53.5 -97q-20 -20 -47.5 -32.5t-52.5 -12.5 q-41 0 -68.5 47t-35.5 129q-63 -86 -170 -136t-224 -50q-156 0 -250 80.5t-94 211.5zM246 274q0 -180 211 -180q110 0 208.5 61.5t170.5 174.5v254q-590 -25 -590 -310zM253 1509q0 33 25 54.5t70 21.5q12 -88 65 -139t154 -51q98 0 152.5 54t68.5 146q43 0 68.5 -22.5 t25.5 -61.5q0 -59 -38 -108t-109.5 -80t-167.5 -31q-101 0 -172.5 32t-106.5 82t-35 103zM471 -256q0 92 92 92h17q92 0 92 -92v-18q0 -92 -92 -93h-17q-92 1 -92 93v18z" />
<glyph unicode="&#x1eb8;" horiz-adv-x="1146" d="M176 0v1434h856v-123h-708v-516h610v-123h-610v-549h710q0 -74 -21.5 -98.5t-84.5 -24.5h-752zM473 -256q0 92 92 92h17q92 0 92 -92v-18q0 -92 -92 -93h-17q-92 1 -92 93v18z" />
<glyph unicode="&#x1eb9;" horiz-adv-x="1146" d="M102 565q0 272 135.5 427t370.5 155q215 0 336 -133t121 -371q0 -47 -4 -94h-815q4 -213 95 -332t253 -119q111 0 187.5 43t127.5 138q14 27 43 26q33 0 90 -39q-45 -133 -165.5 -209.5t-282.5 -76.5q-150 0 -261.5 70.5t-171 202.5t-59.5 312zM250 659h672 q0 369 -320 369q-156 0 -246 -94t-106 -275zM493 -256q0 92 92 92h17q92 0 92 -92v-18q0 -92 -92 -93h-17q-92 1 -92 93v18z" />
<glyph unicode="&#x1eba;" horiz-adv-x="1146" d="M176 0v1434h856v-123h-708v-516h610v-123h-610v-549h710q0 -74 -21.5 -98.5t-84.5 -24.5h-752zM385 1790q0 55 52 97t134 42q92 0 148.5 -50t56.5 -143q0 -164 -183 -251q-26 0 -50.5 16t-24.5 39q76 41 107.5 86t31.5 104q0 45 -23.5 71t-66.5 26t-68.5 -27t-42.5 -72 q-31 0 -51 17.5t-20 44.5z" />
</font>
</defs>
</svg>
